<?xml version="1.0" encoding="utf-8"?>
<!-- Generator: Adobe Illustrator 18.1.0, SVG Export Plug-In . SVG Version: 6.00 Build 0)  -->
<!DOCTYPE svg PUBLIC "-//W3C//DTD SVG 1.1//EN" "http://www.w3.org/Graphics/SVG/1.1/DTD/svg11.dtd">
<svg version="1.1" xmlns="http://www.w3.org/2000/svg" xmlns:xlink="http://www.w3.org/1999/xlink" x="0px" y="0px"
	 viewBox="0 0 648 648" enable-background="new 0 0 648 648" xml:space="preserve">
<g id="Outline_Version">
	<g>
		<path d="M540.7,612h0.8c1.3-6.5,7.7-13.3,11.3-18.7c4.3-6.6,8.8-13.1,13.2-19.6c9.4-14,18.6-28,24.2-44.1l0,0.4
			c3.4-12.1,6.6-24.2,10-36.2c7.3-26-1.3,4.7,0,0c6-21.4,12.6-43.1,12.6-65.5c0-24.8-8.1-49.4-18.2-71.8
			c-18.4-40.6-46.3-78.2-78.7-108.7c23.6,8.5,45.8,15.1,70.7,16.7c-27.4-16-48.2-39.1-73-58.5c17.3-2.1,34.8-2.2,52.2-2.2
			c-21.1-27.8-59.5-26.1-89-40.3c15.5-9.7,29.3-22.7,42-35.6c9.3-9.4,18.1-18.4,22.3-31.1c-28.8,3.8-56.9,12.4-86.1,14
			c4.4-24.6,11.1-49.7,6.9-74.8c-24.1,17.1-47.1,35.6-71.6,52c-3.2-18.7-10.5-36.9-22.5-51.6c-37.6,48.4-68.7,108-121.8,141.8
			c-29.7,21.6-55.6,53.3-64.5,89.7c-3.9,16.3-3.6,34.1,5.6,48.6c8,12.6,20.4,19.1,33.4,25.2c-4.6-15.1-12.7-38.1,0.9-51.1
			c9.9-9.4,22.4-4.7,30.2,4.1c11.8,13.3,23-0.3,36.2-0.1c9.3,0.9,12.7,24.9,13.3,31.3c2,19.6-2.3,39.5-9.7,57.6
			c-17.9,3.9-38.1,5.1-53.4,16.3c-20.5,15.2-27.2,42-41.1,62.1c-14.8-1-40.6-23.6-26.9-38.4c10.2-9.9,31.9-29.5,19.9-45.1l-4.8-6.2
			c-1.9,6.9-3.2,13.4-9.9,17.4c-8.7,5.2-19.7,5.1-29.5,6.3c-8.6-10.2-14-32.5-7.3-44.8c8.8-16.4,29.7-8.3,42.5-2.9
			c-5.3-17.2-11.4-35.7-31.2-39.9c-30-6.4-49.1,15.6-50.2,44.5c-11.7-14.9-18.7-34.4-6.4-51c11.7-15.9,24.7-11,40.9-3.7
			c0-14.3-4.1-26.1-16.2-34.8c-11.4-8.1-24.9-10-37.7-4.5c-33.2,14.3-43.6,54.6-35.5,87.3c4.1,16.8,15.6,26.9,24.1,41.2
			c4.8,8.1,6.6,17.6,11.4,25.8c4.8,8.1,11,15.4,18.1,21.6c14.3,12.4,33.2,15.8,47.3,28c10.8,9.4,19.4,21.4,26.4,33.8
			c-14.8,19.2-31.2,37-49.3,53.1C110.8,560.3,98.4,570,85.4,579c-13.7,9.5-29.6,16.7-42.7,26.7v6.2h490.6H540.7z M264.6,293.2
			c-7.3,0-11.1-9.8-17.4-12.8c-8.6-4.1-19.3-3.5-27.4,1.7c-14.7,9.5-14.9,29.3-11.7,44.6c-53.7-34.8,2.9-112.8,37.5-138.5
			c-0.4,20.9-0.1,45.2,19.8,57.1c5.5,3.3,13.1,5.9,14.6,12.9c2,9.8-1.2,21.5-2.7,31.1C273.3,290.8,269.1,293.2,264.6,293.2z
			 M300.7,296.9c-3.3-5.6-8.1-10.6-15.1-9.9c2.7-18,7.5-35-10.4-45.3c-6.7-3.8-13-7-16.6-14.1c-6.2-12.4-5.4-28.3-5.1-41.7
			c0.1-5.6,8.9-9.6,13.2-13.3c6.2-5.2,12.1-10.8,17.8-16.6c11.5-11.6,22.1-24.1,32.3-36.8c18-22.5,34.3-46.1,50.9-69.6
			c9.9,15.4,15.4,34.2,15.4,52.4c25.1-16,48.8-34,72.5-51.8c0.2,23.3-7.3,45.6-9.7,68.6c27.4,0.2,54.7-6.5,81.4-11.8
			c-10.7,13.6-24.1,25.5-37.3,36.7c-9.5,8-18.1,14.5-29.9,18.1c25.6,19.5,59.4,18.7,86.8,34.3c-17.4,0.4-34.7,0.8-51.3,6.4
			c21,15.1,39.4,32.8,58.9,49.7c-29-8.1-57-19.6-85.2-30c11.1,7.8,22.7,15.3,33.1,24c20.3,17.2,37.9,37.9,53.4,59.4
			c18.5,25.8,33.8,54,43,84.5c10.2,33.6,4.3,64.2-5,97.3c-8.1-54.6-43.7-92.9-78.1-133.5c2.8,6.9,5.5,13.8,8.3,20.7
			c4.2,10.6,2.6,24.5,2.5,35.6c-0.3,26.2-1.8,52.5-4.9,78.5c-7.9-18.9-17.8-37-27-55.3L482.1,408l-2.1-4.3
			c-0.1,36.1-14.3,66.5-38.7,93.1c0.6-15.3-3.7-29.9-8.1-44.4c-4.6-15.1-8.4-30.3-12.1-45.6c-2.2,0-4.5,0-6.7,0
			c-1.3,23.2-28.8,44.6-45.6,57.5c20.4-33.8,34.6-73.8,43.6-112.1l0,0l0.1-0.6l-3.8-0.9l3.7,1.2L405,350l0.6,0.2L405,350
			c-2.1,6.3-21.1,35.3-50.5,47.6c22.9-32.5,32.8-86.9,19.5-116.5l-7.4,2.5c1.4,6.3-1,14.3-2.5,20.3c-3.3,12.8-8.4,25.3-15.1,36.7
			c-10.9,18.6-27,35-48.2,41C314.1,345.7,310.6,313.5,300.7,296.9z M484.5,489.3c-0.5,14.4-2.8,28.8-10,41.5
			c-8.4,14.8-21.2,27-32.2,39.8c0.8-12.8-1.2-25.5-2-38.2c-0.3-5-0.5-10.1-0.4-15.1c0.2-6.2,0.5-7.8,4.8-12.4
			c16.5-17.5,30.5-37.4,37.7-60.5C483.8,459.1,485,474.2,484.5,489.3C484.4,491.8,484.5,488.9,484.5,489.3z M426.7,511.7
			c-16,14.2-37.1,23.9-57.7,29.1c30.3-27.6,43.5-69.7,50-109C424.4,452,445.6,495,426.7,511.7z M278.6,394.3
			c21.7-4.1,40.9-8.8,57.4-24.4c18-17,29.8-40.8,35.8-64.6c3.4,40.3-13.2,78.3-40.7,106.8c26.9-6,49-16.5,67.1-38
			c-10.2,32.7-22,69.7-43.4,97c-9.8,12.4-26,22-38.2,32.1c-15.9,13.3-31.8,26.8-49.4,38c13.1-18.4,17.3-41.6,25.8-62.2
			c4.9-11.7,10.4-23.2,15.7-34.8c-7,7.8-13.7,15.9-21.1,23.4c-15.3,15.3-35.2,23.5-55.9,29c1.5-41.1,38.4-66.4,67.8-90.1
			c-29.5,6-55.7,11.6-79.7,31C236.8,402.1,251.7,399.3,278.6,394.3C283.7,393.3,251.7,399.3,278.6,394.3z M131.5,445.3
			c-26.6-9.2-42.5-29.2-52.4-54.5c-4.2-10.7-12.7-18.6-18.9-28.1c-6.9-10.6-9.7-22.9-10.2-35.4c-0.7-22.5,7.1-45.8,27.1-58
			c17.2-10.6,42.2-4.5,48.2,16.7c-11.4-4.2-22.8-5.2-31.9,3.9c-8.2,8.2-14.5,18.6-15,30.4c-0.9,22.4,16.2,39.6,30.5,54.7
			c-1.9-18.4-3.8-40.6,11.7-54.1c16.3-14.2,40.4-3.2,47.7,14.4c-18.3-4.9-37.6,3.6-39.8,23.6c-1.8,15.8,2.7,34.6,14.5,45.7
			c13.9-2.4,30.9-1.3,41.7-12.1c-2.5,7.7-8.7,14.2-14.2,19.9c-4.5,4.7-11.1,9.1-12,16c-2.3,18.5,16.3,37.7,33.3,41.2
			c-4.8,6.9-9.7,13.7-14.7,20.4C170.4,478.5,153.1,452.8,131.5,445.3z M176,504.3L176,504.3c12.6-16.4,24.2-33.4,36.3-50.2
			c17.6-15.3,34.5-27.9,57.5-33.5c-15.9,13.8-33.1,29.8-41.4,49.7c-4.9,11.7-4,24.1-5.5,36.5c21.5-5.2,42.9-11.4,60.6-25.1
			c-7.8,19.8-11.9,41.4-25.3,58.4c-8,10.2-17.8,19.1-27,28.3c15.7-7.4,31.3-14.4,45.7-24.2c26.9-18.3,50.7-40.8,76.4-60.8l0.2,0.3
			c21.6-12.4,42.4-29.6,57.1-49.8c-4.1,26.4-12.4,53.8-26.7,76.4c-11.5,18-26.8,30.3-44.1,42.2c32.9-3,65-11.9,90.7-33.8l0,0.3
			l1.5-1.5c-0.1,16.9,3.3,33.8,2.6,50.6c-0.5,10.7-3.7,21.1-6.3,31.5c17.6-21.4,39.7-41.3,53.4-65.4c15.6-27.3,11.2-62.7,8.4-92.6
			c13.1,26.4,25.7,51.9,34.6,79.9l0,0c10.4,27.7,18.4,52.9,10.9,82.5H60.8C120,569,153.4,533.1,176,504.3z M557.1,572.8
			c-3.2,4.7-6.8,10.1-10.9,16.2c1.7-16.9-1.1-33.7-6.3-49.8c-3-9.3-6.6-18.4-9.9-27.5c-3.2-8.6-1.4-15.6-0.4-24.6
			c3.7-32.7,6.1-66.5,4.4-99.4c22.3,26.7,42.5,53.5,49.8,88.1c1.4,6.6,2.3,13.2,3.2,19.8c1.4,10.4,0,18.6-3.3,28.6
			C578,542.1,567.6,557.4,557.1,572.8C553.9,577.5,574,547.9,557.1,572.8z"/>
		<path d="M446.8,336.7c8.6-12.3,18-24.7,20.9-39.8c7.6,9.6,14.1,19.2,20.2,36.9c1.5,4.4,4.5,8.9,7.9,13.9l0,0
			c0.6-5.4,1.1-11.3-0.7-16.1c-7.9-20.8-19.8-37.8-34.3-56c0,13.1-0.6,24.6-7.1,36.5c-1.7-14.1-6.8-37.8-21.5-57.2
			c-2.2-2.9-6.8-3.2-10.5-5.2l0,0c2.3,2.3,2,7.1,4,9.6C442.5,281,446.6,309.7,446.8,336.7z"/>
		<path d="M347.7,215.9c30.9,0,30.9-48,0-48S316.8,215.9,347.7,215.9z M347.7,175.7c20.8,0,20.8,32.3,0,32.3
			C326.9,208,326.9,175.7,347.7,175.7z"/>
	</g>
</g>
<g id="Shape_Version" display="none">
	<g display="inline">
		<path d="M188,468.9L170,496.1c-7.6-12.8-16.9-25.2-28.5-34.6c-15-12.1-34.3-15.5-48.7-29.1c-12.2-11.5-17.6-24.6-24-39.6
			c-5.3-12.6-16.4-21.5-22.4-33.7c-13.9-28.2-8.7-68.7,15.8-89.4c21.3-17.9,63.3-12.6,63.3,21.9c-18.4-8.3-32.7-6.4-43.3,10.8
			c-13.7,22,0.7,46.3,16.4,62.8c-2-19.7,4.2-49.4,27.6-53.7c23.3-4.2,38.5,9.6,45,30.8c-42-17.6-57.8,33.6-31.2,60.2
			c12.4-2.1,38.4-1,43.6-19.7c13.4,17.3-18.8,33.4-24.3,45.8C152,444.7,174.2,465.4,188,468.9z"/>
		<line stroke="#FFFFFF" stroke-width="1.5" stroke-miterlimit="10" x1="195.9" y1="470" x2="195.9" y2="470"/>
		<path d="M539.4,609.2H431.3c16.8-20.4,36-39.4,51.2-61c19.2-27.3,17.2-61.6,14.6-93.3C518.8,501,552.1,556.6,539.4,609.2z"/>
		<path d="M433.3,588.9l-5.1,20.3H61.5c42.1-25.8,79.7-57.9,110.5-96.6c26.1-32.8,45.8-72.7,89-85.4c-14.9,13.6-30.8,29.4-37.8,48.8
			c-4.4,12.3-3.2,25.4-5.1,38.1c21-5.2,42-10.6,60.2-22.8c-9.2,24.9-15.2,46.3-34.5,65.7c-7.9,8.2-16.1,16.1-24.1,24.2
			c14.4-6.8,29.4-13,43.2-20.9c33.7-19.3,61.9-47.2,92.3-71.1l0.2,0.4c19.2-11.1,39.9-27.9,54.1-45c-10.4,52.3-33.3,86.9-76.5,116.4
			c36.3-3.3,70.7-10.4,99.8-34.3C433.1,547.3,438.3,568.5,433.3,588.9z"/>
		<g>
			<path d="M433.4,509.8c-13.6,14.6-36.1,26.2-56.3,32.5c21.7-22.6,36.5-55.2,44.7-98.7C428.1,465.4,436.5,486.7,433.4,509.8z"/>
		</g>
		<g>
			<path d="M454.1,563.7c-2.1,2.4-4.3,4.9-6.7,7.5c0-18.3-9.9-48.1,3.1-62c14.4-15.5,27.1-32.7,34.7-52.5
				C490.7,522.4,481.6,532.8,454.1,563.7C452,566.1,481.6,532.8,454.1,563.7z"/>
		</g>
		<path stroke="#FFFFFF" stroke-width="1.5" stroke-miterlimit="10" d="M420.4,412.7c0,0.1,0,0.1,0,0.1"/>
		<path stroke="#FFFFFF" stroke-width="1.5" stroke-miterlimit="10" d="M411,351.5c-0.1,0.2-0.1,0.4-0.1,0.6"/>
		<line stroke="#FFFFFF" stroke-width="1.5" stroke-miterlimit="10" x1="279.9" y1="291.5" x2="279.9" y2="291.4"/>
		<line stroke="#FFFFFF" stroke-width="1.5" stroke-miterlimit="10" x1="355.3" y1="481.5" x2="355.2" y2="481.5"/>
		<path stroke="#FFFFFF" stroke-width="1.5" stroke-miterlimit="10" d="M487.9,423.2c0-0.1,0-0.1,0-0.1"/>
		<path stroke="#FFFFFF" stroke-width="1.5" stroke-miterlimit="10" d="M420.4,412.7c0,0.1,0,0.2,0,0.3"/>
		<path d="M274.5,287.1c-20,8.6-25.4-16-47.4-11.9c-22.4,4.2-27.6,27.9-24.7,47.2c-45.8-36.1,7.4-108,39.3-133.5
			c0,19.3,0.9,42.6,18.6,54.4C280,256.5,278.2,262.6,274.5,287.1C273.9,287.3,279.5,254,274.5,287.1z"/>
		<path d="M395.3,383.7c-9.7,29.3-20.6,60.6-38.4,86.1c-9,12.9-24,21.8-36,31.7c-15.7,13.1-31.3,26.5-48.2,38.2
			c11.9-20.9,16.7-46,26.8-67.9c5.4-11.9,10.8-23.7,16.3-35.6c-25.2,28.2-45.9,51.6-84.1,62.1c1.3-42,45.5-69.5,75-93.2
			c-29.3,5.8-58.7,9.9-83.3,28.2c16.6-30,41-31.5,71.5-38.6c39.2-6.6,64.7-41.9,76.7-77.4c-1.2,40.5-18.8,72.2-46.1,100.5
			C352.2,411.7,375.4,404,395.3,383.7z"/>
		<g>
			<path d="M593,512c-6.7,29.2-22.1,51.9-38.7,76.3c1.1-34.6-21.2-63.8-17.3-97.3c3.6-31.7,5.6-64,4.7-95.9
				C576.1,436.9,588.2,458.2,593,512z"/>
		</g>
		<path d="M602.6,388.6C579,311.9,523,257.5,459.7,212.8c30.8,11.3,61.4,23.7,92.7,33.3c-18.7-16.1-36.6-32.6-56.6-47.2
			c16.2-5.4,31.8-7,48.9-7.6c-28.8-12.5-59.7-14.8-85.2-34.2c27.3-8.4,49.5-31.3,68-52.4c-26.5,5.3-53.4,11.4-80.6,11.1
			c2.4-22.9,9.2-45.1,10.2-68.2c-23.9,18.6-48.7,36.4-74.3,52.6c0-18.9-4.2-37.1-13.9-53.7c-34.3,46.6-66.2,100.4-115,133.7
			c-0.6,16.9-2.9,43.1,13.9,53.6c22.7,14.2,23.3,23.4,19.3,50.2c36,2.7,22.8,77.5,16.4,96.1c22.1-7.8,38-26.7,48.3-47.1
			c6.4-12.6,17.4-35,13.9-49.9c3.8-1.3,7.6-2.6,11.4-3.8c13.1,29.2,4.6,81.3-16.4,115.5c27.3-14.2,43.3-41.3,44.5-44.7
			c3.9,1.1,7.7,2.1,11.5,3.3c-6.2,25.8-22.5,73.9-40,106.6c16-13.4,35.6-31.3,38.7-53.1h9.8c6.9,28.6,20.5,59.5,21.2,89.1
			c25.9-29.5,35.6-60.5,35.6-98.7c14.5,29.3,30,58.3,43.6,88c3.5-32.8,6.4-67.2,3.6-100.3c-1.2-14-9.7-28.2-14.9-41.1
			c35.4,41.9,76.6,82.4,87,138.3C609.9,450.2,613.1,420.9,602.6,388.6C581.8,321,607.7,404.2,602.6,388.6z M348.4,203.3
			c-18.7,0-18.7-29.2,0-29.2C367.2,174.2,367.2,203.3,348.4,203.3z M492.8,332.2c-5.3-11.7-12.2-23-20.6-32.8
			c-3.8,16.6-15.1,30.7-24.2,44.7c-0.1-35.2-4.6-66.1-23.5-96.5c18,15.8,28.1,35.1,32.8,58.6c5.2-10.6,5.5-23,7.1-34.6
			c18.3,24.9,30.8,45.7,35.9,76.7C497.7,343,495.1,337.6,492.8,332.2C491.6,329.6,495.1,337.6,492.8,332.2z"/>
	</g>
</g>
</svg>
