<?xml version="1.0" encoding="utf-8"?>
<!-- Generator: Adobe Illustrator 18.1.0, SVG Export Plug-In . SVG Version: 6.00 Build 0)  -->
<!DOCTYPE svg PUBLIC "-//W3C//DTD SVG 1.1//EN" "http://www.w3.org/Graphics/SVG/1.1/DTD/svg11.dtd">
<svg version="1.1" xmlns="http://www.w3.org/2000/svg" xmlns:xlink="http://www.w3.org/1999/xlink" x="0px" y="0px"
	 viewBox="0 0 648 648" enable-background="new 0 0 648 648" xml:space="preserve">
<g id="Outline_Version">
	<g>
		<path d="M595.6,442.3c3.7-44.7,2.3-89.6,1.7-134.5c-0.6-47-10.9-92.3-27.9-135.9c7.4-33.9,5.7-71.9-2.1-105.6
			c1,31.3,0.8,62.1-3.5,93.1c-5.7-11.8-12.4-22.8-19.3-34l0.1,0c-2.3-17.9-0.4-36.9-10.8-52.6c-16.7-25.1-52.5-32.1-80-36.2
			l-4.5-0.7c-0.1,22.6,4.4,45.1,19.7,62.6c16.5,18.9,41.6,26.4,66,26.9c9.7,14.6,18.5,29.3,25.5,45.4c-32.4-3.7-60-18.2-87.8-34.2
			c25.8,22.2,56.7,39.4,91.2,42.3c6.7,16.2,11.6,33,15.7,50c-24.7-7.8-49.7-19.5-65.7-40.6c15.3,24.5,41.8,38.4,67.7,49.3
			c14,66.7,5,135.3,11.5,202.8l-0.6-0.4c-2.5-4.7-5.1-9-7.8-13c-4.2-24.2-13.1-46.1-22.2-68.8l0.9-0.1c23.5-22.1,16.8-61.3,5.9-88.4
			c1.1,10.3,2.2,20.6,2.5,30.9c0.6,15.4,1.6,39.1-11.7,50.3c-0.2,0-0.3,0-0.5,0.1c-6.8-16.4-14.3-32.8-22.7-48.4
			c19.9-17.4,12.4-56.5,5.6-77.9c0.4,16,1.6,32.5-1,48.4c-0.8,7.4-2.7,17.1-8.5,22.4c-6.6-12.2-13.1-24.2-20.5-35.9
			c4.9-30.3,6.5-67.2-15.5-91.6c-21-23.2-51.9-21.3-79.4-29.7l0.5,5.8c2.3,29.7,6.4,65.1,27.5,88.1c15.6,17,38.8,22.3,59.6,30.5
			c7,11.1,13.3,22.3,19.5,33.9c-21.3,0.2-39.2-3.9-54.6-18.7c11.3,20.8,36.6,26.9,58.7,26.2c8.3,15.4,15.8,31.5,22.6,47.6
			c-15.9,0.2-28.4-4.1-40-14.9c9.8,15.3,24.9,21.8,42.9,22c7.6,18.8,13.7,38.4,21.8,57c-16.1-18.7-36.4-29-66.8-35.3
			c-15.8-27.8-34.5-54.4-52.6-80.8c-21.4-31.3-43.6-62.2-67.5-91.8c0.5-29.6,0.8-64.6-13.5-91.3c9.3,24.9,6.4,55.9,6,82
			c-11.2-13.9-22.8-27.6-34.8-40.7c1.5-32.3-4.8-64.5-17.5-94.2c5.8,28,12.1,57.4,10.2,86.3c-7.7-8.4-15.7-16.5-23.9-24.4
			c-3.5-3.4-7.2-6.7-10.8-10c-0.3-3.2-0.7-6.5-1.2-9.7c-1.9-12-5.4-23.9-12.1-34.1c-18.8-29.1-56.5-35-88.5-35h-4.5l0.6,4.4
			c8.1,64.2,32.5,77.8,101.8,86l4.7,0.6l0-0.8c9.7,8.8,19,18.4,27.9,28.1c-33.9-1.1-65.6-10.8-98.4-18.2
			c34.2,15.1,68.3,25,105.7,26.2c13.2,14.4,25.8,29.3,38,44.6c-33-0.3-69.4-10.2-100.3-21.3c16.6,10.1,36.4,16.3,54.9,21.5
			c15.9,4.5,34.6,9.9,51.2,7c22.6,28.3,43.8,57.6,64.3,87.5c18.8,27.4,35.3,56.5,54.5,83.5c-4.4,10.4-18.2,45.8-17.7,76.9
			c-8.6-24.1-25.8-46.1-40.3-66.8c6.3-22.1,5.1-47.6-0.8-69.8c-0.8,20.1,0.6,42.3-5.1,61.7c-8.3-11.4-17.2-22.5-26.2-33.3
			c1.5-12.8,1.7-25.9,0.3-38.7c-1-9.9-2.2-23.9-9.4-31.7c7.6,17.3,3.3,43.7,1.9,62c-10-11.6-20.1-23.1-30.4-34.4
			c5.1-33.7-4.8-68.4-35.7-86c-15.4-8.8-33.2-12.5-50.7-13.3c-8-0.4-16.6-8.8-23.5-12.9c-9.5-5.7-19.1-11.1-28.8-16.3l0.4-0.3
			c-30.5-34.3-50.7-72-62.9-116.3c8.3,38.8,22.2,76.5,46.6,108.2c-19.5-10.2-39.3-19.8-58.7-30.1c-11.9-26.2-20.6-54.8-26.9-82.9
			c0.3,26,7.8,52.8,16.3,77.2c-18-9.7-36.1-19.9-52-32.9c2.5-18.3,2.1-39.6-11.5-53.7C74.7,38.4,54.5,36.5,36.4,36.6v3.9
			c0,54.3,14.8,72.7,58.8,72.7h0.9c17.1,13.5,36.4,24.3,55.6,34.6c-33.6,5.2-73.8,14.2-88.9,48.5c22.4-32.9,64.3-36.1,100.4-42.4
			c32.3,16.8,65.2,32.3,96.5,51c10.4,6.2,18.1,11,23.8,22c5.9,11.4,7.8,24.3,11.2,36.6c4.8,17.3,13.3,32.5,29.2,41.7
			c10.8,6.3,23.2,9.5,35.6,11.4c3.7,0.6,7.4,1,11.2,1.3c3.7,4.1,7.3,8.1,11,12.2c6.1,6.8,12.1,13.7,18,20.7
			c-15.7-2.3-30.2-6-44.1-13.9c13.4,14.1,32.6,20.1,51.5,22.6c9.1,10.8,18,22,26.3,33.4c-18.4,0-32.9-10.7-46.9-21
			c12.6,16.9,30.4,29.8,52.4,28.6c13.7,19.5,25.1,39.9,37.8,59.9c-21.4-15.9-51.2-19.5-79.3-21.1c-2.8-3.6-5.5-7.2-8.3-10.8
			c-5.7-25.9-15.6-50-33.5-69.8c12.9,17.6,19.9,36.9,23.8,58.3c-12.2-14.3-24-28.9-37-42.4c6.7-12.2-2.7-28.5-9.4-38.5
			c-8.7-13.1-19.6-25.4-31.7-35.5c7.8,10.6,15.4,21.3,22.3,32.5c5.8,9.3,15.4,23.6,12.7,35.2c-16.1-16.8-31.4-32-51.1-44.6l3.5-1.3
			c-27.4-22.9-58.5-36.8-94.8-35.1c-19.6,0.9-38.9,6-56.9,13.6c-9.5,4-18.7,8.7-27.7,13.9c-10.2,5.9-19.7,14.9-30.3,19.7
			c23.3-26.5,52.6-58.6,88-68.8c12.2-3.5,21.6,0.6,33.8,2.6c23.5,4,48.3-1.9,63-21.8l3.7-5.1c-41.8-7.7-85.8-9.6-123.7,12.5
			c-35.7,20.8-57.3,57-82.2,88.7l1.5,1.2c-2.8,2.1-5.5,4.4-7.9,6.9c11.5-39.7,35.1-101.4,55.6-107.1c22.2-0.9,51.7-0.2,71.2-13.1
			c12.1-8,15.4-23.3,20.9-35.8c-50.6-7.6-93.7,10.3-120.9,54.1C60.2,284,50.9,325.3,43,365.6l-0.5,2.4l0.6,0.1
			c-19.3,40.7,5.2,88.3,29.3,121.1c31.3,42.5,72.6,75.4,115.4,105.6c-9.8-21.1-19.3-42.3-21.6-65.7c-2.6-27.5,5.2-54.6,6.3-81.9
			c27.2,3.7,49.8,32.9,65.1,53c25.7,33.9,45.4,72.2,61,111.7h313.2c0-52.7,0-105.4,0-158.1C606.7,449.6,601.2,445.9,595.6,442.3z
			 M457.2,45.2c23,3.8,51.8,9.6,67.4,28.8c9.5,11.7,10.2,26.2,11,40.5c-3.9-4.3-7.9-8.3-12.2-12.2l-0.3-2.1
			c-2.1-14.8-9.1-29.9-46.1-39.4l-6.9-1.8l2.2,6.8c6.8,21,22.8,34.4,46.2,38.8l1.9,0.4c3.2,4,6.3,8.1,9.2,12.4
			C485.6,114.5,458.9,88.1,457.2,45.2z M511.2,94.5c-13.2-4.3-22.9-12.2-28.6-23.9c21.1,6.7,28.2,14.9,31,23.4
			c-6-4.5-9.4-6.9-9.4-6.9S506.7,89.8,511.2,94.5z M426.3,149c23.7,4.8,49.7,6.1,66.4,26.3c16.6,20.1,16.3,49.7,13.3,74.1
			c-3.5-5.5-6.7-10.8-10-15.4c0.9-17.6-0.6-38-12.6-52c-11.1-13-28.3-16.4-44.3-19.3l0.8,5.5c2.8,18.2,7.4,38.3,20.8,51.9
			c4.5,4.6,9.9,8.1,15.6,11c3,1.5,6,2.8,9.1,4c5.7,2.2,9.4,11.8,12.6,16.8c-17-6.1-35-11.7-47.4-25.6
			C432.6,205.7,428.7,175,426.3,149z M472.5,212c2.3,3.9,4.7,7.8,7,11.8c-14.9-7.5-25-19.1-30.8-51.3c27.5,6,38.8,24.2,39.4,51.5
			c-7.1-7.4-14.1-15-21.4-22.2C466.7,201.9,468.7,205.6,472.5,212C474.4,215.2,468.7,205.6,472.5,212z M207.4,44.6
			c65.3,1.2,83.3,29.5,88.4,63.3c-3.5-2.8-7.3-5.2-11-7.8c-3.4-2.3-3.5-5.5-5.1-9.3c-2.6-6.1-6.3-11.8-11.2-16.4
			c-11.2-10.7-26.8-15.2-41.9-17.1l-5.8-0.7l1.5,5.7c6.7,25.7,20.3,36,55.9,42.2l3.8,0.7c4.9,4.3,9.4,9.1,14.3,13.5
			C235.4,110.9,215.2,98.9,207.4,44.6z M266.6,91.8c1.3,0.9,2.5,1.9,3.8,3c-23-5.1-33.1-12.6-38.8-28.8
			c23.7,4.3,34.2,14.4,39.5,24.9c-6.6-4-13.5-7.4-20.2-11C250.9,80,256.6,84.3,266.6,91.8C267.9,92.7,256.6,84.3,266.6,91.8z
			 M44.3,44.6c13.3,0.4,28.1,2.9,37.8,12.8c10.9,11.1,11.7,28,10.3,42.7c-3.8-2.8-7.4-5.7-10.8-8.9C81.5,71.8,74.1,62.3,56,56.8
			l0.7,6c2.2,18.5,8,27.2,20,30l0.5,0.1c2.9,4.3,6.2,8.3,9.6,12.2C55.1,103,44.9,88,44.3,44.6z M67.7,72.4c0.5,1.5,2,6.2,2.6,7.7
			c-1.8-2.4-3.4-5.8-4.6-11.2c4.6,2.9,6.5,7.8,7.4,13.1c-1.1-1.3-1.6-2.7-2.2-3.7L67.7,72.4z M353.7,247
			c12.1,14.4,17.1,33.9,14.9,56.9c-3.6-3.9-7-8.1-10.8-11.6c-0.6-32-20.6-50.3-49.9-58.6c-4-4.7-8.5-9-12.9-13.2
			C320.8,222.9,340.9,231.9,353.7,247C365.8,261.4,340.9,231.9,353.7,247z M338.7,279.6c1,1.4,2.2,3,3.4,4.6
			c-16.7-7.2-20.1-23.1-24.1-39.2c17.6,6.8,28.9,20.9,31.3,39.8c-5.8-5-11.5-10.1-17.5-14.9C331.8,269.9,334.2,273.5,338.7,279.6
			C339.7,281,334.2,273.5,338.7,279.6z M299.6,251.2c-2.2-9.1-4.6-18.3-8.8-26.9c5.6,3.5,11.1,7.1,16.5,11
			c3.6,13.4,5.5,28.3,12.8,40.3c4.2,7,10.6,12,18,15.4c4.4,2,10.7,2.4,13.6,6.2c3.1,4.2,7.2,7.8,10.8,11.6
			C312.2,302,306,277.3,299.6,251.2C297.4,242.1,306,277.3,299.6,251.2z M216.1,243.6c11.5,0,23.9,1.1,37,3.2
			c-9.3,9.6-22.3,14.3-35.5,14.8c-14.1,0.5-27.2-6.6-41-5.7c-23.4,1.4-45.1,17.7-62.2,32.1C138.1,262.4,167.4,243.6,216.1,243.6z
			 M594.9,451.2c3.1,2,6.2,4.1,9.1,6.4v70.6c-11.3,2-21.9,9.7-31,16.2c-4.1-28.8-6.5-74.3,17-96.5c1.4,0.9,2.7,1.8,4.1,2.7
			L594.9,451.2z M553,559.1c-9.6,7.1-21.1,17.1-33.1,19.7c-19.7-24.6-31.8-53.6-22.9-85.6c29.4,9.9,56.9,26.5,67.8,57
			C560.9,553.2,556.9,556.2,553,559.1C552.3,559.7,554.8,557.8,553,559.1z M509.7,580.5c-26.1,2.2-52.4-8.4-74.4-21.4
			c-0.4-2.7-0.7-9.3,0.2-14.8c26.3,1.6,52.6,12.8,71.2,31.6l0,0c1.2,1.6,2.4,3.1,3.7,4.6C510.1,580.5,510,580.5,509.7,580.5z
			 M508.6,393.4c9.2,12.9,18.1,25.9,27.1,38.9c-7-14.3-14.1-28.6-21.6-42.7c38.9,9.4,56.4,27.2,70.4,52.5
			c-21,21.5-23.2,59.1-21.2,87.1c-15.2-23.3-40.3-35.8-65.9-44.3C485.6,457,498.2,420.1,508.6,393.4
			C509.6,394.8,501.7,411.1,508.6,393.4z M490.2,488.5c-7.2,21.3-4.3,47.4,4.7,67.7c-17.7-11.7-39.7-19.3-61-19.8
			c-35.5-32.6-39.1-58.1-36.9-84.5c7.3,9.5,15.9,17.9,24.9,25.9c-5.3-10.5-11-20.8-18.2-30.1C446.3,450.6,475.9,459.4,490.2,488.5
			C490.2,488.6,475.9,459.4,490.2,488.5z M272.7,319.5c-14,3.8-28.9,3.6-42.8-0.8c-7.2-2.3-14-5.6-20.1-10
			c-5.9-4.2-10.3-10.7-17-13.5C222,293.3,249,301.6,272.7,319.5 M194.4,305.6c21.3,22.7,56.3,30.7,87.9,19.1l1.3-0.5
			c13.1,16,28.2,29.7,42.4,44.6c-22.6-3.9-46.3-8.8-65.4-21.9c18.1,20.2,48.7,27.4,74.5,31.4c15.5,16.2,29.7,33.6,44.2,50.7
			c-20.5,6.8-48-14.9-62.7-26.2c14.4,13.5,44.9,42.3,67.6,32.1c3.7,4.9,6,6.4,5.4,12.4c-0.4,3.9-0.7,7.8-0.8,11.7
			c-0.3,8.9,0.4,17.8,2.5,26.4c5.5,22.3,20.3,40.8,36.8,56.1c-0.6,3.3-1,7.9-0.9,12.3c-67.5-44.4-103.5-118.5-159.1-175
			c-40.6-41.3-90.5-72.1-150.3-57.9c13.8-7.1,28.3-13.6,43.4-17.6C170.8,300.8,186.5,297.2,194.4,305.6z M177.5,200.2
			c4.6,0,9.3,0.3,14.1,0.8c-4.2,10.7-7.7,20.5-18.9,25.6c-19.3,8.8-42.8,7.5-63.5,9.1c-6.2,1.5-12.4,6.6-18.3,13.9
			C109.7,221.3,136.9,200.2,177.5,200.2z M574.2,553.3c8.9-6.5,18.8-14.3,29.7-16.9v67.8h-300c-36.1-89.9-92.6-160.3-131.5-164.6
			c-0.8-12.9-10.2-24-11.9-36.7l0,0c2.1,15,4.8,28.9,4.1,44.4c-0.6,15.1-3.1,30-5,45c-3.5,27.4-0.8,53.5,9.3,79.4
			c-45.2-33.5-91.6-75.4-114.3-128.1c-8.9-20.6-14.5-45.3-6.4-67.2c9.5-25.8,34.6-36.7,59.2-44.4c109.5-34.3,177,77.7,234.3,150.6
			c32.1,40.8,72.3,81.3,122.4,98.8c14.8,5.2,30.8,8.4,46.5,7c22.1-1.9,39.4-17.2,56.6-29.9l0,0l4.1-3L574.2,553.3z"/>
		<path d="M104.7,418.6c-0.4-1.2-1-2.3-1.5-3.3c-0.9-1.9-2.3-2.9-3.1-3.8c-0.9-0.8-1.4-1.3-1.4-1.3s0,0.7,0,1.9
			c-0.1,1.2,0.5,2.9,0.3,4.7c-0.1,0.9-0.1,1.8-0.1,2.7c0.1,0.9-0.3,2-0.3,3c-0.1,2.1-0.7,4.1-1.1,6.3c-0.7,2-1.2,4.1-2.2,6
			c-0.5,0.9-0.7,2-1.2,2.8c-0.5,0.8-1,1.7-1.4,2.5c-0.8,1.7-1.9,2.8-2.4,3.8c-0.6,1-1,1.7-1,1.7s0.7-0.1,1.8-0.4
			c1.1-0.4,3-0.7,4.7-1.9c0.9-0.6,1.8-1.2,2.8-2c1.1-0.7,1.8-1.8,2.6-2.9c0.7-1.1,1.8-2.1,2.2-3.5c0.5-1.3,1.1-2.7,1.6-4
			c0.2-1.4,0.4-2.9,0.6-4.3c0.3-1.4-0.1-2.8-0.2-4.2C105.4,421.1,105.3,419.8,104.7,418.6z"/>
	</g>
</g>
<g id="Shape_Version" display="none">
	<g display="inline">
		<path d="M616.2,454v69.8c-8.1,1.9-17.4,7.3-28.3,14.8c-6.1-48.5,5.2-80.4,16.3-92.8C608.4,448.4,612.4,451,616.2,454z"/>
		<path fill="#FFFFFF" d="M165.8,432l-0.1,5.2v0.2c0-0.2,0-0.3,0-0.5v-0.1c0-0.2,0-0.4,0-0.5c0-1.1,0.1-2.5,0.3-4.2H165.8z"/>
		<g>
			<path d="M201.1,186.5c-11.6,26.6-5.8,39.4-89.3,42.9C83,236.5,53.3,331.1,46.3,361.9C58.1,302.2,82.6,169.4,201.1,186.5z"/>
		</g>
		<g>
			<path d="M266,234c-19.7,26.7-53.3,24.4-74.2,17.4c-20-6.7-62.5,8.6-126.7,86.1C110.8,279.3,141.9,211.2,266,234z"/>
		</g>
		<g>
			<path d="M286.9,312.9c-34.8,12.8-67.3,1.2-85.8-18.5C182.6,274.6,120,305,84,329.1C157,274.6,230.1,265.3,286.9,312.9z"/>
		</g>
		<path d="M516.2,574.6c-13.6,0.6-38.6-2.5-70.2-21.2c-0.3-2.6-0.5-7.4,0-11.7c12.2,1,44,6,68.9,31.1
			C515.4,573.3,515.8,573.9,516.2,574.6C502.6,575.1,515.8,574,516.2,574.6z"/>
		<path d="M575.9,547.3c-13.5,9.4-26.9,23-43,27.8c-2-2.4-4.2-4.9-6.8-7.5c-21.6-28.5-19.7-60.6-16.1-75.4
			C528.3,498.4,562.4,512,575.9,547.3z"/>
		<path d="M165.8,432l-0.1,5.2c0-0.1,0-0.2,0-0.4v-0.1c0-0.2,0-0.4,0-0.5C165.9,434.8,165.9,433.4,165.8,432L165.8,432z"/>
		<path d="M586.9,554.2l-0.3,0.2c-9.4,6.9-18.6,14-28.3,20.6c-8,5.4-17.1,11.6-27,12.7c-24.9,6.7-54.7-3.2-76.7-14
			c-39.1-19.1-71.4-50.5-98.9-83.6c-30.1-36.3-55.3-76.1-88.5-110c-21.9-22.4-47-43.6-76.9-54.4c-16.7-6-34.3-8.1-51.9-6
			c-14,1.6-27.6,5.5-40.7,10.4c-13.2,4.9-26.1,10.6-36,21c-21.9,27.3-17.2,59.4-3.8,89.2c22.7,50.8,66.1,91,109.7,124
			c-9.9-28.2-10.1-55.9-6.1-85.2c1.9-14,3.6-27.8,4.1-41.9l0.1-5.2h0.1c0-11.8-1.4-23.4-2.5-35.2c4.4,11.5,11.1,23.3,13.2,35.6
			c40.4,5.3,98.2,77.2,135.3,168.8h304.3v-64.8C608,539.3,597,546.8,586.9,554.2z M107.4,425.7v0.1c0,0.1,0,0.1,0,0.2
			c-0.5,3-0.9,6-2.3,8.8c-3.2,4.7-8.6,7.5-14.3,6.4c-0.4-0.1-0.7-0.5-0.6-1c1.2-6.7,4.1-11.5,7.9-16.9c3.1-5.8,2.4-12.4,1.4-18.6
			c0.2-0.8,0.6-0.9,1.1-0.5C106,410.8,107.6,417.3,107.4,425.7z"/>
		<path d="M598.2,412.3c0,0,0-0.1,0-0.2c-0.1-0.6-0.2-1.1-0.2-1.7c-0.1-0.4-0.1-0.6-0.1-0.6c-3-20.4-12.6-39.9-20.2-59.1
			c23.8-22.2,16.3-63.3,4.9-90.2c0.7,7.5,1.4,15.1,1.9,22.7c0.9,16.5,4,46.6-10.3,58.9c-6.9-16.5-14.5-33.1-23-48.8
			c7-6.2,9.7-17,10.4-26c1.5-17.6-0.8-36.2-6.5-53c0.2,22.5,3.9,50.5-8.4,70.7c-7.9-14.7-16.2-29-25.1-43.2c1.7-13.4,2.5-27,1-40.4
			c-1.9-17.5-8.2-34.9-21.6-46.9c-20.1-17.9-45.4-15.9-69.5-23.2c2.5,32.2,7.1,72.6,34.2,94.4c8.8,7.1,19.2,11.6,29.8,15.4
			c2.8,1,5.6,2,8.4,3c4.8,1.7,6.3,2.4,9.1,6.9c7.5,12,14.8,23.9,21.2,36.5c-20.9,0-38.2-4.4-53.5-18.7
			c11.7,20.9,35.6,27.7,58.2,27.5c8.4,15.4,15.9,31.6,22.8,47.8c-15.5-0.3-27.2-4.5-38.6-14.9c9.5,15.3,23.9,22.2,42,22.9
			c6.3,15.6,12.9,31.2,18,47.2c4.2,12.9,11.5,24.9,17.1,37.3C599.9,428.3,599.2,420.3,598.2,412.3z M477.5,190.7
			c4.4,9.3,9.1,18.3,14,27.3c-18.1-8.4-30.1-20.8-36.5-57.6c-0.2-1.5-0.6-3.1-0.8-4.9c13.8,2.5,28.5,6.6,37.9,17.9
			c9.4,11.4,11.6,27.3,11.6,41.6C496,206.2,486.4,198.4,477.5,190.7z"/>
		<path d="M529.4,386.3c-15.7-32.2-37.4-62.1-57.5-91.7c-23.3-34.3-47.5-68.2-73.6-100.4c0.3-29.7,0.2-64.4-14.4-91.1
			c8.9,24.6,6.1,54.7,5.7,80.4c-11.2-13.8-22.7-27.3-34.7-40.4c1.5-32.2-5.5-64.8-18.6-94.3c5.2,26.6,12.9,57.7,10.2,85.2
			c-7.7-8.4-15.9-16.6-24.2-24.5c-4-3.8-8-7.5-12-11.2c-3.6-3.3-4-4.3-4.8-8.9c-2.1-11.4-5.9-22.7-12.7-32.2
			c-19.1-26.9-55.4-32-85.9-32c3.4,27.2,11,55.8,37,69.5c12.6,6.6,26.9,9.7,40.8,12c4.2,0.7,8.4,1.3,12.7,1.9
			c6.9,0.9,9.5,3.1,14.6,7.8c8.8,8.1,17.4,16.7,25.4,25.5c-33.4-0.6-65.2-11.4-97.6-18c33.9,15.5,68.5,26.3,106.1,27.3
			c13.3,14.5,26,29.5,38.3,44.8c-16.2,0-32.6-4.1-48.3-7.7c-17.3-3.9-34.8-7.9-51.6-13.6c15.9,10,34.9,16.1,52.8,21.5
			c16.4,5.1,36.8,11.3,54.1,8.6c25.3,31.5,48.9,64.4,71.6,97.9c19.8,29.1,37.2,60.3,58.5,88.3c-7.4,19.6-20.9,62-10.8,88.4
			c0.1,0.1,0.1,0.2,0.2,0.3c15,4.9,44.1,15,63.6,40.1c-1.8-44.1,10.8-70.9,21.7-82.8C582.1,412.4,565.5,395.8,529.4,386.3z
			 M271.8,78.5c2.6,2,5.3,4.6,8.1,7.3c-31.1-6.1-43-15.6-49.3-39.4c31,4,45,16.4,51.5,32.6c-8.3-5.2-17.3-9.1-26.1-13.3
			C256.1,65.7,261.8,70.3,271.8,78.5C274.5,80.6,261.8,70.3,271.8,78.5z"/>
		<path d="M502.2,548.9c-24.9-14.6-49.4-16.8-57.6-17.1c-15.5-14.3-29.6-31.6-34.8-52.5c-1.9-7.5-2.5-15.2-2.3-23
			c0.1-6-1.8-7.9-5.3-12.9c-3.2-4.3-6.3-8.7-9.5-12.9c-23.5,10.8-55.5-17-69.3-33.6c10.5,6.4,21,12.9,32.1,18.3
			c9.1,4.4,21,10.4,31.5,7.9c-13.8-16.8-26.8-34.4-41.4-50.5c-13.2-0.6-27.9-6.2-40.2-10.6c-14.4-5.2-28.4-11.8-39.5-22.6
			c19.6,15.4,46.4,20.3,70.5,23.1c-15.8-17.5-32.5-33.6-49.6-49.7c19.2,16.2,37.8,32.5,55.8,50.2c5.5-10.4-4.1-26.1-9.1-35
			c-7.5-12.8-16.3-24.8-25.8-36.2c11.4,11.2,22.2,23,31.2,36.1c7.5,10.9,18.6,28.2,10.3,41.6c13.2,12.9,25.2,27,37.5,40.7
			c-4.4-20.9-11-41.1-23.4-58.7c20.3,17.9,30.5,45.6,34.8,71.7c5.9,7.2,11.9,14.5,17.8,21.7c35.5,2.9,61.7,9.9,77.1,29.9
			c0.1,0,0.1,0.1,0.1,0.1c2.2,2.8,4.2,5.9,5.9,9.3c0.1,0.2,0.2,0.3,0.3,0.6C495.9,496.2,492.2,521.9,502.2,548.9z"/>
		<path d="M498.7,459.1c-8.1-25.9-26.8-49.4-42.3-71.4c6-21.9,4.2-47.8-1.9-69.6c-0.8,20-1.1,40.5-5,60.2
			c-8.5-11.3-17.2-22.5-26.4-33.3c1.2-12.2,1.2-24.6-0.1-36.8c-1.1-10.3-2.4-25.1-9.9-33.1c4,7.8,3,18.8,3,27.3
			c0,11-0.5,22-1.3,32.9c-8.8-10.3-17.8-20.5-26.9-30.5c-1.8-2-3.7-4-5.5-6.1c-2.5-2.7-1.5-4.8-1.3-8.3c0.2-4.7,0.2-9.4-0.2-14.1
			c-1.5-17.5-8.3-34.3-21-46.6c-13.3-13-31.2-19.8-49.3-22.7c-6.1-1-10.6-0.3-15.1-4.7c-4.3-4.2-9.6-7.3-14.7-10.5
			c-12.2-7.8-24.9-14.9-37.6-21.8l0.3-0.2c-14.8-16.1-28.5-32.9-39.2-52.1c-11.7-21-20.1-42.8-26.8-65.9
			c7.6,38.3,20.8,72.8,41.9,105.6c-17.6-9.1-35.4-17.8-52.9-27c-12.1-26.4-21.5-55.4-29.1-83.5c-0.8,24.9,5.4,51.5,13.3,75
			c-15.6-8.5-31.1-17.5-45.2-28.4c-3-2.3-8.2-4.8-7.9-8.8c0.3-3.5,0.4-7,0.4-10.5c-0.1-6-0.8-12.1-2.6-17.8
			C88,31.9,63.1,25.3,40.1,25.3c0,21.9,0.6,52.6,23,64.3c4.3,2.3,9.1,3.7,13.9,4.6c2.8,0.5,5.6,0.9,8.4,1.1
			c4.7,0.4,7.2,3.2,10.9,6.2c16,12.7,33.9,22.9,51.9,32.7c-33.2,5.6-71.7,16.5-85,50.8c24.1-32.1,65.9-34.8,102.5-41.5
			c22.8,11.9,46,23.1,68.7,35.3c19.7,10.6,38,23.8,57.8,34c11.3,20.4,9.9,45.6,23.6,64.9c8.7,12.3,22.3,19.3,36.6,23.2
			c4.6,1.3,9.3,2.2,14.1,3c3.3,0.5,4.8,0.2,7.1,2.7c2.5,2.7,4.9,5.4,7.3,8.1c8.2,9.1,16.3,18.2,24.2,27.5
			c-14.4-2.4-29.1-5.5-41.7-13.2c11.5,15,32.5,20.7,50.3,23.4c9.1,10.8,17.8,22,26.3,33.2c-17.7-1.8-31-10.6-45-20.7
			c10.7,17.9,30.6,30.4,51.7,30c20.6,29.4,37.7,60.7,59.2,89.4C503.8,475.9,501.2,467.5,498.7,459.1
			C497.9,456.5,500.3,464.3,498.7,459.1z M77.6,71.1c-3-3.2-5.8-6.5-8.5-9.9c1.2,4,2.5,8,4.3,11.8C66.9,69.7,62.8,62.7,61,47.6
			c11.7,3.6,16.4,12.3,17.2,24.1C78,71.5,77.8,71.3,77.6,71.1C74.9,68.2,77.8,71.3,77.6,71.1z M360.1,276.4
			c-6.8-5.5-13.8-10.8-21-15.9c4,6.7,8.1,13.3,12.4,19.7c-23.5-8.4-26.6-29.9-32.3-51.4c23.5,6.7,39.7,23.8,42.1,48.5
			C360.9,277,360.5,276.7,360.1,276.4C355.9,273,360.5,276.7,360.1,276.4z"/>
		<path d="M610.7,437.9c6.3-44.7,3.2-90.5,2.9-135.5c-0.4-49.5-10-99.4-29.5-145c6.5-33.3,6.4-73.1-3.3-105.7c2,30.2,0.5,61-3.4,91
			c-5.5-11.2-11.4-23.3-19.4-33c-2.9-3.6-5.5-5.2-5.7-9.8c-0.1-2.2-0.2-4.5-0.4-6.7c-0.6-9.1-1.7-18.2-5.6-26.5
			c-13.8-29.5-53.9-37.1-82.6-41.4c0,26.9,10.2,53.8,33.3,69.1c13,8.5,28.4,12.6,43.8,13.7c4.1,0.3,5.4,5.1,7.3,8.5
			c2.7,4.6,5.8,8.9,8.6,13.5c5.4,9.1,10.2,18.6,14.4,28.2c-32-4.4-59.9-18.4-87.5-34.3c25.4,23.2,56.9,40.2,91.5,43.7
			c6.4,15.7,11.5,31.8,15.5,48.2c-24.2-7-48.9-18.9-64.8-38.9c15,25.3,41.6,40.3,67.7,52c14.1,67.8,1.6,137,12.3,204.8L610.7,437.9z
			 M530.4,83c-4.7-3.6-9.5-6.8-14.4-10c4,4.3,8,8.5,11.6,13.1C503.4,80.3,492,65.4,487,50c31.7,8.2,40.7,19.8,43.6,33.2
			C530.5,83.1,530.4,83,530.4,83C525.9,79.6,530.4,83,530.4,83z"/>
	</g>
</g>
</svg>
