<?xml version="1.0" encoding="utf-8"?>
<!-- Generator: Adobe Illustrator 18.1.0, SVG Export Plug-In . SVG Version: 6.00 Build 0)  -->
<!DOCTYPE svg PUBLIC "-//W3C//DTD SVG 1.1//EN" "http://www.w3.org/Graphics/SVG/1.1/DTD/svg11.dtd">
<svg version="1.1" xmlns="http://www.w3.org/2000/svg" xmlns:xlink="http://www.w3.org/1999/xlink" x="0px" y="0px"
	 viewBox="0 0 648 648" enable-background="new 0 0 648 648" xml:space="preserve">
<g id="Outline_Version">
	<g>
		<path d="M611,157.7C573.3,120,544,63.8,489.8,47.9c-30.9-9-67.8-10.9-97,4.3c-31.8,16.5-54,46.5-85.9,62.9
			c-16.5-29.2-43-54.4-74.7-66.2c-29.9-11.1-64.6-9.1-95-0.6c-31.7,8.9-59.9,27.6-77.3,55.9c-26.4,42.8-28.7,103.5-18.1,151.4l0,0
			c2.1,6,2.3,9.9,4.4,15.9c5,14.5,13.8,27.1,19.3,41.4c11.8,30.6,11.5,63.5,8.9,95.6c-2.2,27.3-10.2,61.1,15,80
			c9.1,6.8,18.6,7.3,29.3,9c11.7,1.9,21.5,8.1,30.8,15.2c17.6-16.8,12.7-42.2,16-64.1c3.9-25.7,23.4-33.3,41.9-46.7
			c3,2.5,8.7,5.4,19.1,6.9c-12.7,11.3-32.8,24.6-38.5,41.6c-3.4,10.1-2.4,22.7-1.6,33.3c3.1,40.1,30.9,75.1,56.5,104l-0.2,0
			c2.7,2.9,5.9,5.8,8,9.2h0.5c6.2,6.6,12.5,13.2,18.9,19.6c17.5,0,35.1,0,52.6,0l0.5,0.5c6.2-2,15.9-0.5,22.5-0.5
			c16.4,0,32.9,0,49.3,0c20.4,0,40.9,0,61.3,0c52,0,103.9,0,155.9,0c0-90.3,0-180.5,0-270.8c0-62.3,0-124.5,0-186.8L611,157.7z
			 M190,49.3c84.4,0,146.9,96.6,128.7,175.2c-5.9,25.2-21,49.3-43.8,62.5c-18,10.3-38.2,9.3-57.8,4.5c-17.7-4.3-36.7-13.2-45.1-30.3
			c-8-16.4-5.8-42.4,10-53.7c4,8.5,8.1,14.8,12.5,19.3c-6.6,4.4-12.4,10.5-11,19.1c0.5-4.5,4.1-10.7,8.9-12c8.7-3,13.4,1.7,22.2,2.4
			c-3.8,9.1,1.7,18.2,9.5,23c-3.3-3.3-6.3-8.2-6.3-13c-0.3-4.6,2.8-9.2,7.1-10.1c5.9-1.2,10.4-5.6,13.2-10.8
			c7.7,11.1,22.1,12.5,34.4,9.3c-9.5,0.7-24.2-1.2-28.5-11.3c-2.8-4.8-1.7-8.7-0.8-13.7c1.3-7.2,1.7-14.6,1.7-22
			c6.8,1.2,14,0.2,20.6-1.3c3.5-0.8,7-1.7,10.5-3c0.4-0.2,5.7-3.2,5.8-3.2c-0.4-0.3-15,2.9-16.7,3c-6.4,0.2-15.3,0.5-20.9-3.3
			c-1.5-8-5.4-14.7-11.5-20c15.4-6.8,24.7-22.5,22.5-39.4c-0.2,11.5-6.1,24.5-16.7,29.9c-15,8.5-29.1-3.4-45.5-1.6
			c5.3-24.8-14-49.2-33.4-62.2c18.1,15,34.1,40.1,25.1,64c-9,2.8-17.7,8.5-24.6,16.3c-11-18-46.6-23.2-62.1-8.2
			c18-12.2,48.1-4.7,57.2,14.7c-6,8.7-9.8,18.8-11,29.3c-0.9,8.2,1.2,20.7-6.4,26.5c-2.4,1.8-5.5,2.1-8.3,1.1
			c-3.6-1.3-2.5-6.6-7.1-8c-9.3-2.9-14.9,10-13.1,17.2c-4.8-2.7-13.1-12.7-19.2-10c-6.4,2.8-10.2,14.2-11.5,20.4
			c-14.6-15.6-15.4,15.3-23,20.2c-0.8,0-1.8-1.2-2.2-1.7c-14.6-43.4-12.9-102,5.9-144.5C82.6,71.3,134.8,49.3,190,49.3z
			 M233.5,413.3c16.7-14.7,28.7-32.3,36.2-53.3c6.1-16.9,9.2-49.3,32.2-50.8c-20.2,0-25.9,23.6-31.8,38.8
			c-8.2,21-18.6,38.9-35.8,53.7c-12.7-0.8-18.7-3.6-21.2-5.3c5.7-7.6,9.6-16.9,13-25.7c-6,8.4-12.4,16.6-20.6,22.9
			c-9.1,7-20.1,11.1-28.6,19c-12.1,11.3-18.3,24.1-19.9,40.5c-1.5,15.5,1.3,35.8-8.5,49.1c-8.1-5.8-17.1-10.3-26.9-12.1
			c-7.7-1.4-15.7-1.1-22.8-4.8c-21.5-11.2-19.9-33.5-18.4-54.5c1.8-24.5,4.6-48.9,2.6-73.4c-1.1-13.8-3.6-27.5-7.9-40.6
			c-4.6-13.8-12.4-25.7-18.1-38.9c8.5-1.6,11.6-17.7,15-23.5c2.4,2.6,10.8,12.6,13.4,4.3c2.3-7.7,2.3-14.3,7.5-21.3
			c7.3,5.4,18.4,16.5,28.4,14.9l1.1-2.2c2-4.1-4.6-8.7-5.4-12.6c-0.2-0.8,1.7-8.8,2.9-7.6c0,8.5,12.6,10,18.6,7.8
			c9.8-3.6,12.7-14.9,13.2-24.2c0.9-17.3,4.7-32.8,18-45c12.3-11.3,28.2-14.5,44.2-9.8c11.5,3.4,21.3,11.5,23,23.9
			c1.4,12.2,0.7,30-6.5,40.7c-5.6,8.4-19.1,6.5-26.4,1.4c-9.1-6.2-13.9-18-18.1-27.8l-3.5,1.4c-24.6,9.6-27.4,48.1-16.6,68.2
			c14,25.9,47.9,35.2,75.3,36.5c40.9,2,72.5-32.9,83.4-69.6c11.1-37,3-77-13.8-111c30.5-15.7,52-43.7,81.6-60.7
			c27.3-15.8,61.3-14.8,91.2-7.2c54.6,13.9,83.8,70.4,120.9,107.8v194.7c-12.8-6-11.5,16.6-12.3,23.1c-35.6-4.4-71.9-5-107.2,2.3
			c-12.4,2.5-24.5,6.1-36.5,10c-15,4.9-31.8,11.1-47.4,5c1.4-8.7-0.3-18-2.2-26.6c-0.4,7.7-0.7,16.7-4,23.8l0,0l-1.8,3.4
			c-11.6,22.1-40.9,31.1-62.9,38.4c-26.8,8.8-60,14.4-82,33.2c-32.1,27.4,17.3,77.7,34.2,98.6c-5.5,9.7-15,22-27.4,21.2
			c-26.2-28.5-56.1-63.5-60.2-103.8c-1-9.7-2.1-21.7,0.8-31.1C200.3,437.5,221.4,424.1,233.5,413.3
			C235.1,411.8,194,448.6,233.5,413.3z M604,457.3c-13.9,2.1-23.5,14.7-27.2,27.5c-2.8,9.8-2.5,20.6,1.4,30.1
			c0.9,2.2,9.9,18.5,11.3,18.5c-4,4-16.3,1-21,0.2c-9-1.4-18.2-5.2-27.3-5.5c-11.8-19.4-40-6.5-52.4,4.7c-8.6,7.8-14,18-19.6,28
			c-3.4,6.1-9.9,22.5-18.6,22.5c-5.5,0-9.2-5.7-12.9-8.8c-4.3-3.6-9.6-5.4-15.2-5.4c-11.8,0-23.2,6.2-33.5,11.3
			c-20.6,10.3-41,20.8-63.2,27.4c-3.9-4.6-7.8-9.2-11.7-13.8c37.5-21.3,101.4-86.5,123.4-114.9c1.9,27.6-8.8,48.8-25,69.6
			c20.8-10.9,37-23.6,53.2-40.8c19.6-20.9,40.3-43.8,54-69.1c11.8,17.1,10.9,38.7,9.1,58.4c22-12.6,51.2-36,36.4-64.9
			c-4.6-9.1-15-31.5-0.2-37.7c11.5-4.9,26.4,11.6,33-6.1l0.2,0c1.9-8,0.9-16.7,3.2-24.5c1,0.6,1.9,1.5,2.8,2.3v90.8
			C604.2,457.2,604.1,457.2,604,457.3z M290,565c-14.5-17.9-30.5-36.5-40.3-57.6c-7.7-16.5-4.5-28.7,11.7-38
			c23.9-13.7,51.9-19.3,77.7-28.2c21.3-7.3,46.3-16.7,58.8-36.7c26.4,10.6,56.8-7.5,82.7-13.4c35.8-8.2,72.9-7.8,109.2-3.5
			c-2.6,4.3-8.2,0.7-11.6-0.3c-5.7-1.7-12.1-2.1-17.5,0.7c-9.8,5-11.8,17.5-10.5,27.4c1.7,12.5,12.2,22.3,10.7,35.3
			c-1.6,13.7-12.2,24.6-23.1,32c0.8-22.9-5.2-42.2-20.8-59c-5.1,16.6-16.2,30.2-26.9,43.7c-15.8,19.9-32.7,39.8-52,56.4
			c8.5-21.7,8.4-43.2,3.7-65.6c-13.9,23.1-32.7,42.5-51.7,61.6c-24.4,24.5-50.7,51.5-81.3,68.2C302.1,579.7,295.7,572,290,565z
			 M273.4,608.6c-4.2-4.2-8.1-8.3-11.8-12.2c11.3-2.7,19.9-12.5,25.9-22c4.5,5.4,9.3,11.2,14.3,17.3l0,0c4.7,5.7,9.5,11.3,14.3,16.9
			H273.4z M358.1,604.4c18.7-8.3,36.9-21,56.8-26.1c9.9-2.5,15.3,0.3,22.5,6.7c6.8,6.1,15.4,8.6,23,2.4c16-13.1,19.3-36.8,35.4-50.3
			c8.4-7.1,25.8-16.3,36.2-7.8c-15.6,5.2-17,22.4-6.4,33.5c7.1,7.4,11.1,12,0.8,17.4c-14.5,7.7-32.1,9.4-48,12.1
			c-10.2,1.7-30.6,3.3-32.9,16.3h-97.4C351.6,607.2,354.9,605.8,358.1,604.4C358.2,604.4,354.9,605.8,358.1,604.4z M454.3,608.6
			c4.8-7.6,21.5-7.9,29.2-9.2c15.8-2.6,33.1-4.8,47.3-12.7c12.1-6.7,13.7-18.1,2.6-27.5c-13.6-11.7-3.8-26.7,12.4-22.6
			c6.2,1.7,53.4,15.6,51.6-4.3c-0.7-7.7-8.5-12.9-11.5-19.6c-3.3-7.4-3.8-15.8-2.1-23.6c2.3-10.4,9.2-21.6,20.4-23.9v143.3H454.3z"
			/>
		<path d="M130.2,298.9l-1.6,0.2c-4.9,3.3-10.2,7.6-12.6,13.2c-2.7,6.3,3.7,5.6,4.7,10.4c0.7,1.2-1.5,4.6-2.1,5.4l0.1,1.6
			C133.3,331.5,132.1,307.7,130.2,298.9z"/>
	</g>
</g>
<g id="Shape_Version" display="none">
	<g display="inline">
		<path d="M311.4,616.2h-38.6c-3.2-3.3-6.4-6.5-9.3-9.6c9.8-3.4,17.3-11.8,23-20.1C294.8,596.4,303,606.4,311.4,616.2z"/>
		<path d="M609.5,473.8v142.4H463.8c12.6-5.4,112.4-12.9,79.2-47.5c-5.5-5.8-16.3-17-3.3-22c5.2-2,10.1-0.6,15.3,0.7
			c11.8,2.9,43.1,13,50.7-2.2c2.7-6-1.2-12.5-5-17c-5.5-6.5-8.8-13.6-9-22.2c-0.3-11.2,4.2-24.6,14.4-30.5
			C606.1,474.8,609,473.9,609.5,473.8z"/>
		<path d="M609.5,378.8v82.4c-11.9,1.7-20.4,12.2-25.4,22.2c-4.3,9.5-5.8,20.3-3.7,30.6c2.1,10.8,9.1,16.6,13.7,25.9
			c-15.4,3.9-31-5.3-46.1-6.2c-6.2-9.7-19.1-11.4-29.5-9.2c-28.6,6.2-39.6,31.7-53.3,54.2c-2.3,3.8-5.3,9.2-9.6,11.1
			c-5.1,2.2-10.1-5.1-13.3-7.8c-10.3-8.7-23.5-6.8-35.2-2.4c-27.6,10.5-52.1,27.1-80.6,35.7c-0.3-0.3-0.6-0.7-0.8-1.1
			c-3.2-3.2-6-6.9-8.8-10.3c37-22.1,96.7-82.3,121.7-112.9c-0.1,16.8-3.9,37-14.5,50.6c-5.5,7.1-11.1,14.3-16.6,21.4
			c20.3-10.7,37.4-20.6,53.9-37c23.4-23.3,46.6-49.6,63.6-78.1c10.7,18.2,8.8,39.8,6.9,59.8c11.8-6.8,23.8-13.4,32.9-23.9
			c14.6-16.7,15.1-34.4,5.2-53.5c-3.6-6.9-5.5-16-2.9-23.6c3.6-10.2,13-6.2,20.6-3.9C603.2,407.3,609.5,391.7,609.5,378.8z"/>
		<path d="M536.9,581.9c-1.6,7.9-22.7,11.3-28.1,12.6c-15.3,3.6-55.7,2.5-61.6,21.7h-88.3c19.7-8.6,39.4-23.3,60.6-27.7
			c17.8-3.7,27.4,23.8,45.3,9.9c15.3-11.9,18.6-33.9,32.1-47.4c7.9-8.8,23.5-18.6,36-14.5v0.1c-4.8,4.8-9.6,6.8-11.1,14.4
			c-1.1,5.8,0.5,11.7,3.7,16.6C527.4,570.6,538.1,578,536.9,581.9C536.7,582.7,537.2,580.9,536.9,581.9z"/>
		<path d="M303.7,255c-11.1,18.3-29.1,34.8-50.8,38.8c-15,2.7-32.3-0.6-46.6-5.3c-15.1-5-30.4-13.9-37.2-28.9
			c-6.9-15.3-4.8-38.3,8.3-49.9c2.2,4.4,6.3,14.5,10.9,16.8c-5.4,5.4-10.7,11.1-8.6,19.6c1.3-7.4,7-10.4,13.5-12.3
			c5.7-0.6,10.5,3.5,16.2,4.2c-2.4,8.3,4,18.5,11.8,21.6c-5.4-5.4-8.2-16.3-0.8-21.3c6.5,0,12.4-5,15.8-10.1
			c8.6,9.5,23.4,9.9,34.8,6.2c-11.1,0.3-27.8-3.3-29.2-16.9c-0.9-9.2,2.7-19.8,2.7-29.3c6.5,0.5,13.2-0.8,19.4-2.5
			c3-0.8,15.1-3.2,16.3-6.8c-7.7,5.2-26.7,2.4-34.7-0.8c-2.9-1.1-2.4-4.3-3.5-7c-1.9-4.8-4.8-9.5-8.6-13
			c14.6-7.8,22.4-24.6,19.8-40.8c-0.7,11.5-7,24.6-17.9,29.6c-15.1,7.5-27.7-4.7-43.7-2.7c1.5-25.7-15.3-48.2-36.5-61.6
			c9.6,8.6,18.2,19.7,23,31.7c2.8,5.8,4.4,12.9,4.1,19.3c-0.5,3.9-2.9,9.3-2.9,13c-9.2,3.7-16.8,8.4-23.8,15.4
			c-8.6-9.5-19-14.5-32-14.6c-7.5,0-26.5,1.4-31.3,8.7c17.6-8.8,47.8-5.2,55.9,15c-3.9,5-6.7,11.7-8.4,17.8
			c-3.7,10.5-1.2,21.9-4.6,32.2c-1,3-2.8,6.3-6.1,7.2c-6.2,1.6-5.2-4.7-9.3-7.4c-9.5-6.2-18.8,5.8-18.8,14.6
			c-5-3.3-10.6-10.7-17.4-8.5c-6.8,2.3-10.8,13-12.7,19.1C58.2,234.5,52.6,261,48,267.9c-12.1-36.7-12-82.5-2.6-120.3
			c8.3-33.1,26.8-63.2,56.5-81c40.3-24.2,98.9-28.9,140.4-5.8c35.8,19.9,60.1,55.8,71.2,94.7C323,188.5,321.9,225.1,303.7,255z"/>
		<path d="M567.7,113.7c-13-15.7-26-31.9-42.4-44.2c-17-12.7-37.2-19.2-58.1-21.7c-28.7-3.4-55-1.1-79.5,15.3
			c-26.1,17.5-46.8,42-74.8,56.9c19.8,40.8,27,89.9,6.5,131.8c-17.8,36.5-52,59.2-92.8,53.6c-26.9-3.7-58.4-15.5-69.2-42.8
			c-10.3-26.1-0.8-59.1,26.1-69.5c4.2,9.6,8.3,20.1,16.1,27.4c5.3,5,17.4,9.1,24,4.2c8.3-6.2,8.7-21.8,9.2-31
			c0.6-12.9-1.1-24.8-13.6-31.6c-28.5-15.6-60.2,2.6-68,32.6c-3.2,12.5,0.2,26.6-7.8,37.7c-6.3,8.8-22.9,12.5-29.5,1.6
			c-0.1,0.3-0.2,0.7-0.3,1.1c-1.9,7.5,9.6,10.4,3.8,19.4c-10.8,1.1-22.2-7.7-29.9-14.3c-6.8,10.3-5.1,34.3-21.5,17.9
			c-3.4,6.8-5.6,18.2-13.1,21.9c5.9,12.8,13.3,24.5,17.8,38c4.1,12.4,6.7,25.3,7.9,38.3c2.3,23.8,0.3,47.7-1.7,71.5
			c-1.8,21-6.3,45.7,13.2,59.7c6.9,4.9,14.5,5.4,22.6,6.5c11.3,1.5,21.5,5.9,30.8,12.3c8.3-13.7,5.7-32.7,7.2-48
			c1.7-17.3,8.4-30.8,21.1-42.7c3.9-3.7,8.3-6.6,13-9.2c5-2.8,11-8.3,16.2-10.1c7.5-7.5,15.7-13.7,22.6-22.2
			c-2.9,8.8-6.3,17.5-10.8,25.6c5.5,3.1,12.4,3.9,18.6,4.3c16.4-16.4,27.5-31.7,36.5-53.4c6.5-15.8,12.4-39.5,33.4-39.5
			c-18.8,1.6-22.9,22.6-27.3,37.5c-6.3,21.2-14.1,40.6-28.4,57.7c-11.2,12.2-24.2,22.6-36.1,34c-6.8,6.5-14.5,13.6-16.2,23.3
			c-8.9,51.3,28.7,97.8,60.7,132.8c10.5,0,20.5-11,24.7-19.6c-15.9-19.6-34.7-41-43.1-65.3c-8.1-23.3,6.7-39,27.2-48.9
			c31.4-15.1,66.4-20.4,97.9-35.2c23.9-11.3,37-27,40-53.3c2.4,8.3,4.8,17.3,4.1,25.9c15.2,5.3,31.6-1,46.1-5.7
			c11.9-3.9,23.9-7.4,36.2-10c36.2-7.6,73.6-7.2,110.1-2.8c0.6-6.3,0-28.4,12.4-24.3V160.8C592.5,143.7,579.3,127.8,567.7,113.7
			C532.7,71.7,579.3,127.8,567.7,113.7z M125.7,319.1c-1.3,6.3-4.7,13.9-12.4,12.9c-1.4,0,2.5-6.3,2.1-7.2
			c-1.4-6.4-8.7-4.8-3.6-13.1c2.7-4.8,7.9-8.6,12.4-11.6C125.6,299.2,125.9,317.5,125.7,319.1C125.2,321.4,126.3,314.3,125.7,319.1z
			"/>
	</g>
</g>
</svg>
