<?xml version="1.0" encoding="utf-8"?>
<!-- Generator: Adobe Illustrator 18.1.0, SVG Export Plug-In . SVG Version: 6.00 Build 0)  -->
<!DOCTYPE svg PUBLIC "-//W3C//DTD SVG 1.1//EN" "http://www.w3.org/Graphics/SVG/1.1/DTD/svg11.dtd">
<svg version="1.1" xmlns="http://www.w3.org/2000/svg" xmlns:xlink="http://www.w3.org/1999/xlink" x="0px" y="0px"
	 viewBox="0 0 648 648" enable-background="new 0 0 648 648" xml:space="preserve">
<g id="Outline_Version">
	<g>
		<path d="M614.5,355.6L614.5,355.6c2.6-20.6,0.7-43,0.7-63.8c0-18.8-0.4-37.6-2.3-56.3c-3.6-35-13.2-70.2-37.2-96.9
			c-9.7-10.7-20.5-20.4-29.7-31.6c-2.5-3-6.8-7.4-7.2-11.5c-0.3-3.9,16.4-5.8,19.2-6.4c25.1-6,56.9-17.8,56.5-48.1
			c-41.9,0-86.3,0.3-126.8,12.7c-10,3.1-25.9,8-31,18.4c-22.3,27.1-18.1,60.5,3.3,86.5c12.2,14.8,27.7,24.9,43.2,35.8
			c14.6,10.4,28.4,22,41.2,34.6c-33.1-23.7-74.3-40.9-101.4-72c-12-13.8-17.4-31.8-26.4-47.5c-8.4-14.5-18.3-28.5-30.6-40
			c-22.5-21.2-52-30.2-82.2-21.2c-26.4,8-48.6,26.1-67.2,46c-9.3-9.3-21.7-11.2-36.8-12.8c-43-4.6-93.9,1-128.4,29.4
			c-43.6,35.8-36.1,95-18.2,142.3c5.7,14.9,10.6,27.7,10.4,44c-0.2,15.5-3.2,30.9-6.4,45.9c-4.3,19.7-9.3,39.2-13,59
			c-6.2,33.2-8.5,68,2.4,100.6c14,41.7,47.8,71.9,85.2,93.2c14,7.9,28.5,14.8,43.3,20.8c1.2,0.2,2.3,0.3,3.6,0.3
			c9.3,0,18.6,0,27.9,0c34,0,68,0,102,0c26.6,0,53.3,0,79.9,0c44.3,0,56.5-59.6,75.2-90.4c2.8-4.6,5.8-9,9.1-13.1
			c7.4,1.9,15,3.8,21.7,7.2c9,4.5,7.2,11,2.5,18.4c-5.5,8.7-41.6,47.9-11.1,47.9c25.3,0,51.6-9.6,61.2-34.8
			c8.1-21.3,2.8-44.4-4.3-65.5c14,4.1,24.8,14.1,29.8,29.4c5.5,17.1,4.2,36.3-0.6,53.3c-3.5,12.5-9.4,26.4-19.8,34.8
			c-3.3,2.7-7.3,4.7-11.6,4.7c-0.9,1.1-0.1,6.3-0.1,7.9c0.6,0,1.2,0,1.8,0c40.2,0,62.5-45.2,69.3-79.1c7.1-35.5,2.5-77.6-24.4-104.2
			C601.7,415.5,615.4,382.7,614.5,355.6z M332.1,52.6c32.8,1.8,57,27.5,73.4,53.6c10.4,16.5,16.1,36.2,28,51.6
			c11.8,15.3,28,26.9,44,37.4C513,218.5,551.8,238.4,580,271l6.2-4.8c-15.3-21.9-33.7-41.7-53.9-59.1
			c-19.2-16.4-42.2-28.4-59.8-46.6c-24.6-25.5-30.7-56.5-8.1-85.6c6.5-8.4,19.9-12,29.5-14.7c36.1-10.2,75.1-11.2,112.4-11.3
			c-2.5,12.6-15.7,20.1-26.4,24.8c-8.7,3.8-17.8,6.5-27,8.5c-6.3,1.4-16.8,2-20.6,8.3c-3.9,6.4,2,14.2,5.8,19.1
			c9.6,12.5,21.5,22.8,32,34.5c48.7,54.5,36.7,140.6,36.7,207.7h-0.3c1.1,26.4-8.3,55.9-25.1,76.7c-31.1-24.9-79-23.9-113.2-6.1
			c-17.2,8.9-31.5,21.7-44,36.2c-12.3-22-19.7-44.4-22.4-68l0,0c-1.5-24.5-1.1-50,11-72.1c-12.8,18.5-16.8,40.8-18.3,62.9
			c-18.7-19.8-35.9-44.2-50.3-71.2c3.6-1.6,7.1-3.3,10.5-5.3c19.5-10.9,44.7-30.4,40.9-56c-2.5-16.4-10.3-26.6-20.6-39
			c7.4,12.4,15.6,24.7,14.6,40c-2.1,22.6-20.1,37.7-38.7,48.1c-11.9,6.6-24.6,11-37.2,16c-10.5,4.2-21,9.8-28.3,18.6
			c-8,9.7-7,19.8-6.1,31.1c-4.9,2.1-8.8,4.9-13.5,7.8c-1.6,1-3.4,1.4-5.3,1.6c-2.9-0.1-5.8-0.4-8.6-1c-1.3-0.3-2.6-0.6-3.8-0.9
			c-0.3-0.7-0.6-1.4-0.9-2.1c-1.4-4.4-2.9-12.7-2.7-23.1c0.2-4.4,0.7-8.7,1.1-12.7c17.6-17.4,26.6-40.9,40.9-60.8
			c0-0.1,0.1-0.1,0.1-0.2c0.4-0.5,0.7-1,1.1-1.5c2.6-2.1,4.8-4.1,7-6.6c5.6-3.2,10.6-4.5,15.7-4.7c5.8,0.1,11.7,1.8,18.6,3.5
			c6.7-13.3,22-24.5,15.4-41.7c-2.8-7.4-16.1-10.1-26-11.4c-2.6-0.4-5.4-0.8-8.3-1.1c1-6.7,4.2-20.8-5-23.5
			c-7.9-2.3-18.6,3.5-25.9,6c-17.8,6.3-49.8,9.3-59.8-11.3c5.5-2.9,10.3-6.3,14.5-10.1c3.1-2.5,5.9-5.2,8.3-8.6
			c3.9-5.5,6.6-11.7,8.8-18.1c1.2-3.2,2.6-6.1,3-9.1c0.2-0.5,0.3-1.1,0.5-1.6c1.7-5.3-5.9-19-9-25.2c-1.1-2.3-2.3-4.6-3.6-6.9
			C264.6,75.6,296.4,50.6,332.1,52.6z M369.8,507.9c-10.3,2-19.6,8.1-27.1,15.3c-4.5,4.3-12.3,16.9-19.4,10.2
			c-7.2-6.8-10.5-18.7-13.6-27.8c-9.5-27.5-23.4-58.2-45.1-79.7c0.3-15.1-0.7-30.2-2.8-45.2c8.8-1.1,16.8-8.8,25.5-11.6
			c-0.8-10.4-3.9-20.9,2.8-30.1c6.2-8.6,16.5-13.8,26.1-17.6c6.8-2.7,13.6-5.3,20.4-8c16.1,30.4,35.9,57.6,57.3,79.1
			c3.2,25.5,11.3,49.3,24.7,72.6c-11,13.6-20.8,28.4-30.2,42.9C381.4,506.8,373.3,507.2,369.8,507.9z M218.8,251.1
			c-5-9.1-10.7-19.2-18.6-26c-9-6.6-12.9-16.5-6.4-26.4c4.5-6.9,11-11.4,17.9-15.5c1.9,4.4,4.1,8.3,8.7,10.7
			c8.3,4.3,16.9,8.5,26.2,10c11.6,1.8,23.2-1,34.1-4.8c4.7-1.6,17.3-8.7,22-6.2c2.3,2.7,1.2,9.7,0.1,15.6
			c-20.5-0.6-41.4,4.9-58.1,17.1c-7.6,5.6-12.6,12.3-18.4,19.4C224.1,247.6,221.6,249.5,218.8,251.1z M538.3,552.8
			c-8.8,18.6-29.3,25.6-48.7,26.3c-10.9,0.4-9-3.4-3.9-11.2c5.6-8.4,12.4-15.9,17.8-24.4c14.6-23-5.7-31.3-25.2-36.5
			c12.6-13.4,28.6-22.5,48.6-22.5c2.3,0,4.6,0.1,6.9,0.4C541.3,506.1,548.5,531.2,538.3,552.8z M606.5,516.5
			c-1.9,30.9-13.8,68.9-41.7,86c19.5-25.3,26.6-68.6,11.8-97.8c-7.6-15-21.5-23.8-37-26.9c0-0.1,0-0.1-0.1-0.2
			c-0.8-0.1-1.5-0.2-2.2-0.3c-11.2-1.8-23.1-0.8-34,3c-15,5.2-26.7,15.3-36.3,27.5c-0.9,1.1-1.9,2.2-2.8,3.3c0.1,0,0.1,0,0.2,0.1
			c-7.2,9.8-13.2,20.8-18.5,31.4c-10.1,20.2-20.9,57.8-45.4,65.3c-6.3,2-13.9,1.1-20.4,1.1c-13,0-26,0-39,0c-54.6,0-109.2,0-163.7,0
			c-40.1-16.5-81.1-39.3-106.6-75.5c-17.4-24.8-24.7-54.3-24.1-84.3C47.6,408.2,61,369,68.2,328.9c2.8-15.7,4.8-32,2.5-47.9
			c-2.1-14.7-9.4-28-14.1-42c-8.3-25-13.6-52.8-7.3-78.9c11.5-47,59.7-66.3,103.5-70.6c19.3-1.9,39.1-1.6,58.3,1.7
			c5.7,1,13.9,1.7,18.3,5.8c0.9,0.9,1.7,1.8,2.5,2.7c6.5,9.9,10.6,21,14.2,32.2c-7,22-16.5,34.3-37.5,44.5c0,0.1,0.1,0.1,0.1,0.2
			c-5.7,3.1-11.2,6.3-15.9,10.9c-9.3,9.1-14.1,22.5-6.7,34.3c3.6,5.7,9.3,9,13.4,14.2c4.4,5.6,8.2,11.8,11.7,18
			c-6,1.5-12.6,1.6-18.6,0.6c0.5,0.2,1,0.3,1.4,0.5c0.2,0.1,0.4,0.1,0.5,0.2c0.1,0,0.2,0.1,0.3,0.1c16.7,4.9,29.6-0.4,41.8-12.3
			c7.9-7.7,16.3-14.6,26.5-19.1c11-5.1,24.8-8.1,38.4-8c0,0.1,0,0.2,0,0.3c6,0.3,13,0.6,19.6,1.9c5.4,1.3,10.5,3.2,15.1,5.7
			c0.5,5.6,1.5,12.1-1.6,16.9c-3,4.7-7,8.4-10.1,13.1c-1.9-0.4-3.8-0.8-5.7-1.1c-5.4-1.7-11-2.8-16.4-1.1c-2.8,0.9-5.1,1.9-7.1,3.1
			c-3.3,1.5-6.5,3.6-9.7,6.5c-1.2,1.1-2.3,2.2-3.4,3.4c-11,9-17.3,27.2-24.6,39c-4.8,7.9-10.3,15.5-16.6,22.2
			c-0.5,0.5-0.9,1-1.3,1.5c-4.1,4.3-8.6,8.2-13.6,11.5c-23.8,16-47.7,5.6-67.2-11.3c11.2,13.7,25.3,26.5,44,27.2
			c12.1,0.5,23-5.5,32.4-12.9c-0.3,5.4,0.2,11.1,1,16.3c0.4,3.5,1,7,1.9,10.4c0.8,3.5,2,7.7,4.1,9.7c2.1,1.8,7,2.4,11.3,2.6
			c1.8,13,2.8,25.8,2.8,38.1c-6.4-5.2-13.3-9.7-21-13.1c7.9,5.1,14.8,11.7,20.9,19.1c0,0.5,0,1,0,1.4l1.2,0
			c5.4,6.6,10.1,13.8,14.5,20.9c5.9,9.6,12.6,18.7,17.7,28.9c5.2,10.3,8.5,21.2,12.2,32.1c5,14.5,16.9,48.2,37.1,29.7
			c15.3-15.7,30.4-27.5,52.5-20.1c0.3,0.1,0.6,0.2,0.8,0.3c0.4,0.1,0.7,0.3,1.1,0.4c-0.5,8-10.4,16.9-15.7,21.9
			c-4.1,4-8.5,7.7-13.2,11.1c-0.1,0.1-0.3,0.2-0.4,0.3c-0.8,0.6-1.5,1.1-2.3,1.6c-1.7,1.2-3.4,2.3-5.1,3.4c-2.3,1.4-4.6,2.8-6.9,4.1
			c-19.2,10.6-41.8,17.1-63.7,12.6c-19.5-4-35.5-16.2-51.7-27.1c-12.5-8.6-24.4-17.6-36.2-26.9c10.9,11.4,22.5,23.8,35.3,34.6
			c-9.1,3.3-18.4,6.1-27.7,8.7c15.9,25.6,50.9,31.3,78.7,32.3c15.1,0.5,29.5-1.5,43.1-8.5c7.5-3.9,14.4-9,20.7-14.7
			c1.6-1.4,3.3-2.7,5-3.9c4.1-2.3,8-4.7,11.8-7.3c0.5-0.4,1.1-0.8,1.8-1.3c0,0,0,0,0,0c0,0,0,0,0.1,0c10.3-7.3,36.8-27.8,34.5-41.6
			c-0.1-1.6-0.6-3-1.7-4.3c-0.7-1.4-2.1-2.6-3.9-3.5c20.4-31,42.7-64.7,76.9-81.6c30.6-15.2,72.9-16.4,101.1,4.6
			C600.1,452.2,608.4,486,606.5,516.5z M296.9,583c9,0.4,18-0.6,26.7-2.8c-2.9,1.5-5.8,2.8-8.9,3.8c-27.7,9.4-72.7,3.8-95.2-16.6
			c8.1-2.5,15.3-4.9,21.6-7.3C257.6,572.7,276,582.1,296.9,583z"/>
		<path d="M78.2,198.7c-7-10.7-4.6-22.2,2.4-32.3c-14,8-16.9,23.5-8.8,36.9c10.8,11.1,28.6,11.6,38.5-1.2
			C99.4,206.5,87,207.9,78.2,198.7z"/>
		<path d="M347.3,127.6c12.5,0.9,22.7-9.1,22.3-21.5c-0.4-14.3-16.8-21.9-29-16.6C364.6,93.9,368,115.7,347.3,127.6z"/>
		<path d="M137.5,125c-3.5,10-13.8,15.8-24.2,13.6c1.7,13.4,34.7,4.6,24.9-13.3L137.5,125z"/>
		<path d="M314,108l-0.6-0.5c-6.2,8.6-17.6,11.3-27,6.3C284.2,127.6,318.3,127.1,314,108z"/>
	</g>
</g>
<g id="Shape_Version" display="none">
	<g display="inline">
		<path d="M542.6,550.9c-5.8,23.5-33.9,39.2-57.7,34.4c3.8-16.9,23.2-27.4,27.7-44.5c4.8-18.5-15.9-24.7-29.5-28.4
			c13.7-14,32.3-21.5,52-19.7C541.6,511.1,547.6,531.5,542.6,550.9C539.5,563.4,545.8,538.5,542.6,550.9z"/>
		<path d="M609.4,516.4c0-43.4-21.2-83.8-66.9-91.2c-46.9-7.6-87,15.5-115.5,51.2v0.1c-10.6,12.6-19.7,26.5-28.8,40.3
			c13.8,6.2-3.2,26.7-8.6,32.6c-15.1,16.6-34.7,29.9-55.7,37.6c-18,6.4-37.1,8.9-55.9,4.5c-20.4-4.7-37.1-17.6-53.6-29.9h-0.1
			c-6.9-5.4-12.7-10.4-18.4-17.3c-2.7-3.4-13-12.9-13-17.7c14.4,8.6,28.2,17.8,41.8,27.6c16.1,11.6,31.9,23.7,52.1,26.6
			c21.9,3.1,44.1-3.9,62.8-14.9c15.5-9.1,33.3-22.4,40.9-39.2c-11.3-4.3-22.8-3.5-33.2,2.9c-10.8,6.6-19.4,24.5-33.6,23.3
			c-6.7-0.8-10.6-5.2-13.2-8.4c-9.5-13-13.5-29.5-18.6-44.5c-4.9-14.3-12.5-26.3-20.2-39.2c-9.9-16.7-22.5-42.1-40.9-51v-0.1
			c6.8,2.3,14.4,6.5,19.4,11.6c0-11.9-1.1-23.9-2.7-35.7c-3.7-0.5-7.4-1.6-11-2.3c-6.7-10.5-7.2-23.3-7.2-35.4
			c-10.4,7-22.8,13.3-35.8,11.1c-18.4-3.2-30.2-15.5-41.2-29.5c17.8,13.2,33.5,21.5,56,16c20.3-4.9,36.3-29.2,46.2-45.8
			c14.8-25,30.4-60.2,66.3-48.3c2.4-4.6,7.1-7.3,9.6-11.5c2.9-4.7,2.2-10.2,1.7-15.6c-24.6-11.4-57.8-9.1-80.8,5.1
			c-9,6.2-16.6,13.6-24.9,20.6c-5.4,4.6-13.6,8.6-20.9,7.9c-6.7,0.3-12.7-3.2-18.9-3.2c5.7,0.6,11.3,0.3,16.6-0.8
			c-3.5-6.1-7.2-12.2-11.7-17.7c-4.8-6-11.4-9.6-14.9-16.8c-5.6-11.5-1.5-24.6,7.3-33.4c8.9-11.1,24.1-14.8,35.2-23.1
			c11.3-8.5,16-21,20.2-34.1c-3.4-10.5-7.2-25.1-15.2-33.2c-5.5-6.6-19.9-7-27.7-7.9c-21.5-2.6-43.6-2-65,1.6
			c-48,8.2-90.6,36.3-92.5,88.9c-1.1,32.1,11.4,59.6,21.4,89.2c10,29.8,1.2,63.6-5.6,93.1c-8.3,35.8-17.9,72.4-15.3,109.5
			c5.2,75.1,67.6,119.5,132,146h220.9c13.7,0,23-11.9,29.6-22.5c10.1-16.3,17.2-34.2,26.2-51.1c12.7-24,29.6-48.7,56.3-58.1
			c24.4-8.6,55.8-4.6,72.2,16.9c21.1,27.7,15.8,71.9,0.2,100.8C596.6,583.5,609,548.6,609.4,516.4
			C609.4,514.3,609,548.6,609.4,516.4z M104.6,203.7c-11.8,9.8-30.9,11.1-41.4-1.5c-10.4-12.6-5.7-31.1,6.1-40.9
			c2.6-2.1,6.5,0,6.2,3.3c-0.3,3.3-5.6,6.7-7.3,9.5c-3.6,6.2-4.6,14.3-0.9,20.7c3.9,6.9,11.7,9.9,19.3,8.9c4.8-0.6,9.4-2.7,13.1-5.8
			C103.5,194.8,108.4,200.6,104.6,203.7C98.6,208.8,106.2,202.4,104.6,203.7z M134.2,123c-2,7.2-7.3,13.1-14.2,15.9
			c-3.4,1.4-20.7,4.5-18.3-3.8c1.2-4.1,14.4-2.1,18.5-4.9c3.2-2.2,5.6-5.5,6.7-9.3C128.2,116.2,135.5,118.2,134.2,123
			C131.2,133.7,134.8,120.9,134.2,123z"/>
		<path d="M609.6,264.9c-0.8-28-3.7-56.8-13.8-83.1c-10.7-27.9-31-45.4-50.3-67.3c-7.8-8.8-23.6-27.5-4.9-34.8
			c20.8-8.2,59-8.2,67.8-34c-126.9,0.9-141.6,26-141.7,26.3c-10.6,16.7-18.8,31.4-12.5,51.7c6.1,19.3,21.1,35.1,36.9,47.1
			c18.8,14.3,38.4,26.8,55.8,43c16.7,15.5,31.9,32.7,45,51.4c-3.2,2.5-6.4,5-9.6,7.5c-28.8-33.3-68.5-53.6-104.8-77.4
			c-16.6-10.9-33.4-22.9-45.6-38.8c-12.2-15.9-18.1-36.1-28.8-53.1c-16.2-25.9-40-51.6-72.4-53.9c-35.8-2.5-68.3,22.6-91.4,47.2
			c5.5,10.2,8.8,21.2,12.8,32c-7.4,21.7-14.7,38.6-35.7,50.2c0.6,1.5,1.3,2.7,1.9,3.8c20.3,10.5,36.1,12.4,57.9,4.5
			c7.3-2.7,17.2-7.7,25.3-5.8c10.8,2.5,8.6,16.4,7.5,24.5c12.4,2,24.9,3.9,34.7,12.1c1.1,9.8,2.9,22.8-4.8,30.5
			c-5.2,5.2-8.4,10.5-11.7,17c-9.4-1.9-18.9-6.7-28.5-3.1c-9.7,3.3-17,13.4-21.9,22c-10.3,17.9-19.5,37-34.3,51.8
			c-3.4,10.2-1.4,26.5,1.9,36.4c2.4,0.6,4.9,1.2,7.5,1.3v0.1c9.2,0.6,12.5-5.8,20.8-8.8c-5.5-39.4,32.2-48.3,60.6-60.7
			c17.6-7.7,38.6-19.1,47.7-37.1c10.4-20.6,2.3-39.8-7.8-58.5c16.8,18.1,30.1,38.1,19,63.1c-8.5,19.2-29.7,31.9-47.7,40.7
			c12.2,22.6,27.7,46,46.9,67.1c0.4-16.5,3.4-32.5,5.4-48.8c1.7,45.1,6.1,89,27.6,129.6c2.4-2.8,5-5.5,7.6-8.2v-0.1
			c33.2-33.6,83-50.9,129-34.9c-6.7-21.3-17.8-39.7-29.5-58.6c-8.4-13.5-19.5-32.8-34.4-40v-0.1c19.4,6.7,34.9,24.9,47.5,40.2
			c16.1,19,23.4,42.5,31.7,65.5c3,1.7,5.8,3.6,8.5,5.6c15.3-20.6,23.8-46.6,24.3-72.2C609.4,326.9,610.7,295.9,609.6,264.9z
			 M314.1,106c-3.8,6.2-10.4,10.4-17.6,11.3c-3.7,0.5-21.6-1.2-17-8.7c2.3-3.7,14.4,2,19.2,0.4c3.7-1.2,6.9-3.7,9-7.1
			C310.3,97.8,316.7,101.8,314.1,106C309.5,113.4,315.2,104.2,314.1,106z M362.5,118c-4.1,5.1-10.2,8.4-16.6,9.6
			c-1.7,0.3-3.4-0.9-3.7-2.6c-0.6-3.5,3.4-3.7,5.6-4.4c13-4.1,19-21.4,5.8-29.5c-3.8-2.3-17.4-1.2-18.1-5.2c-1.2-7.3,15.1-3.2,18-2
			C367,89.7,371.9,106.2,362.5,118C358.4,123,366.6,112.8,362.5,118z"/>
	</g>
</g>
</svg>
