<?xml version="1.0" encoding="utf-8"?>
<!-- Generator: Adobe Illustrator 18.1.0, SVG Export Plug-In . SVG Version: 6.00 Build 0)  -->
<!DOCTYPE svg PUBLIC "-//W3C//DTD SVG 1.1//EN" "http://www.w3.org/Graphics/SVG/1.1/DTD/svg11.dtd">
<svg version="1.1" xmlns="http://www.w3.org/2000/svg" xmlns:xlink="http://www.w3.org/1999/xlink" x="0px" y="0px"
	 viewBox="0 0 648 648" enable-background="new 0 0 648 648" xml:space="preserve">
<g id="Outline_Version">
	<g>
		<path d="M542.6,107.5c-30.9-32.1-73-50.7-117.2-53.9c-43.6-3.1-82.3,11.1-110.6,44.7c12.3-17.1,26.9-31.6,42.8-45.2h-10.4
			c-42.4,0-85,12.3-111.2,47.4c-4.1,5.4-7.6,15.6-14.2,16.7c-13.2,2.3-26.3,5.6-38.8,10.6c-19.9,8-36.3,20.8-51.5,35.7
			c-30.4-27.8-48.1-56.1-43.6-107.5L89.3,41C74,64.1,61.7,87.9,54.8,115c-14,54.7-0.6,110,26.5,158.5c-2.5,29.1-16.8,63.8-7.1,92.6
			c7.2,21.3,33.5,30,53.1,36.4l24.7-14.9c0-8.1-0.2-15.8-2-23.8c11.2,9.5,24.2,15.8,38.8,18c14.7,2.1,25.8,4.1,38.6,12.3
			c18.7,12,35.7,27.9,50.3,44.6l2-0.3c9.1-1.2,16.9-6.7,22.6-16l0.1,0.1c1.2-2.3,2.4-4.6,3.5-6.9l-0.1-0.1
			c3.8-8.7,6.2-18.3,6.8-27.8l-0.6-1.1c-12.2-19.9-6.7-51.1-0.7-64.8c6-0.5,11.4-1.1,16.4-1.7c2.8,8.8,4.3,18.1,7.6,26.8
			c3.1,8.1,4.4,17.9,10.4,24.4c8,8.7,16.4,15.1,26.5,21l25.5-13.6c3.5-15.8,6.7-33.5,3.2-49.5c9.4,3.5,18.2,6.3,23.8,7.9
			c-22.5,25.7-27.4,55.3-14.1,84.5c-46.5-4.8-75.5,27.7-107.7,55.5c-19.9-12-40.5-27.9-53.8-47.4c-13.5-4.9-43.4-18.8-57.3-7.9
			l-1.3,1c-1.4,18.5-9.2,37.8-7.3,56.4c1.4,14,24.5,25.3,35.1,31.3c-88.6-1.3-123.5-27.6-123.5-92.4v-5.6l-5.2,2
			c-30.6,11.8-39.8,58.5-40.5,86.8c-0.7,27.3,10.6,51.5,30.8,69.8c31.8,28.8,81.4,45.9,124.2,45.9c88,0,176,0,263.9,0
			c50.6,0,88.9-44.3,109.2-86.2c20-41.3,28.9-87.4,33-132.8c5.3-58.9,4.4-120.2-9.6-177.9C590.2,178.8,572.4,138.5,542.6,107.5z
			 M126.3,393.9c-1.4-0.5-3.5-1.3-6.1-2.3c-1.7-10.9-4.7-21.2-8.5-31.5c1.3,9.5,2.2,19.1,1.6,28.7c-4.9-2.1-10.4-4.7-15.3-7.5
			c-0.4-9.7-1.7-19.2-3.7-28.7c-0.3,8.2-0.8,16.7-2.6,24.7c-12.4-8.8-13.3-25-12.1-38.9c1.5-18.1,5.9-35.8,8.3-53.8
			c14.6,24.3,32.1,47.4,51.1,68.4c3.3,10.3,4.6,16.5,5,21.3c-4.9-5.3-10.4-10-16.1-14.3c6,7.3,11,15.1,15.2,23.6L126.3,393.9z
			 M280.6,430.3c-2.3-2.5-7.1-7.7-13.6-13.9c6.7-7,21.7-1,28.4,2.3C291.4,425.1,286.5,429,280.6,430.3z M372.3,220.1
			c16.2-5.7,27-10.6,33.2-13.6c-4.9,20.1-27.9,52.7-46.4,64.1l-4.4,2.7c9.4,8.3,18.5,15.9,31.6,16.4c-19.9,17.4-47.9,21.8-73.1,24.1
			c1.9-13.2,5.5-25.8,9.9-38.3c-13.5,4.1-24.8,9.6-34.5,20.2c5.3-41.5,44.9-123.8,101.7-145.5c-6.4,26.2-13.9,51.2-28.9,73.7
			L372.3,220.1z M349.6,364.1c0.3-8.4,4.4-15.7,9.8-21.8c-5.3,3.4-9.6,7.3-12.9,12.7c-4.1-12-7.3-24-11-36.1
			c10.1-1.7,20.5-3.8,29.9-7.8c7.6,6.5,17.4,10.9,26.5,14.6c3.6,13.3,2.3,26.7,0.2,40.2c-3.7-5-8.1-9.9-14-12.3
			c6.3,4.9,9.5,13.1,11.6,20.6l-15.9,8.5c-4.2-8.9-6.2-17.8-5.4-27.7c-2.7,8.3-3.2,16.3-1.8,25C362.5,377.2,357.5,373,349.6,364.1
			C349.6,363.6,357.5,373,349.6,364.1z M191,480.4c-0.9-2.2-0.6-7,0.2-12.9c6.9,2.3,13.4,6,19.7,9.7c-5.6-5.9-11.6-12.2-18.7-16.4
			c1.5-8.9,3.2-17.7,4.4-26.6c5.5,5.6,12,10.3,18.6,14.6c-6.1-6.5-12.8-13.7-16.4-21.9c8.3-2.1,18.4,1.1,26.3,3.2
			c2.9,9.2,8.7,17.2,15.2,24.1c-3.8-6.9-6.7-14.2-7.9-22c3.6,1.1,7.5,2.4,11.5,3.9c3.7,5,20.5,26.4,52.5,46.2
			c-18.1,14.6-38.3,25.3-61.6,27.8C228.5,509.6,193.4,486.8,191,480.4z M203.8,609.3c-43.2,0-95.7-17.9-125.5-50.2
			c-16.9-18.3-23.4-40.9-21.3-65.5c1.9-23.1,9.3-55.1,29.9-69.1c1,29.3,11,57.4,36.8,73.6c30.7,19.2,74.8,22.9,110,20l0,0
			c0.2,0,0.5,0,0.7-0.1c33.7,14.1,67.6,19.9,104.1,17.8c-28.1,15.1-55.3,18.9-86.2,22.8c39.9,3.6,81.4,10.8,121.4,6.4
			c-29.4,18.8-75.6,44.3-98.4,44.3H203.8z M467.7,609.3H306.9c37.3-14.6,71-37.2,103.6-60.1l0,0l0,0c-9.8,2.5-19.7,5.4-29.7,7
			c-22.8,3.8-46.2,2.1-69.1,0c21.3-7.3,40.3-19.1,59.4-30.9c-41.8,3.8-81.5,5.1-121.6-9.8c22.4-5.2,42.3-18.4,59.2-33.6l0,0
			c18.6-16.2,36-35.4,58.6-46.1c21.2-10,44.9-8.5,66.7-1.2c48.6,16.3,71.8,68.6,74.7,116.2c-0.8-57.5-30.2-112.8-88.9-127.8
			c-19.9-37.6-3.2-67.1,14.6-85.3l4.6-4.7c-22.4-6-47.2-12.2-66.2-25.9c12.4-6.9,21.5-14.1,30.6-25c-13.3,0-24.8,1-35.9-7.9
			c20.8-15.6,46.7-53.2,46.7-74.6l0-6.9c-11.1,6.8-22.7,12-34.9,16.7c10.4-22.2,16-46.7,21.5-70.5l-6.3,1.9
			c-67.8,19.9-116,122.3-114.2,166l0.4,9c9.4-9.7,17.8-21.5,30.1-27.6c-2.8,9.5-4.7,19.2-5.8,29c-4,8.3-6,17.7-7.1,26.8
			c-1.4,11.4-1.1,23.2,2.1,34.2c1.5,5.2,5.2,9.6,4.3,15c-1,6.4-2.6,12.7-5.2,18.7c-10-5-28.4-10.5-37.7-0.7
			c-16.2-15-36.8-33-59.6-35.9c-23-2.9-39.1-8.3-55.6-25.4v-0.1c-34.5-36.2-64.8-81.8-80-129.6C50.2,170,55.8,118.5,79.5,71.8
			c0.2,45.9,20,73.6,49.5,100l2.7,2.4c11.6-11.6,23.5-22.9,37.8-31.2c18.7-10.8,39.8-16.1,61-19.4l0.9-1.7
			c13.5-25,39-57.8,105.3-60.9c-34,32.3-53.2,71.6-67.4,115.2c21.1-29.7,39-64.8,66.9-88.8c35.7-30.9,87.4-32.1,130.9-18.9
			c70.4,21.4,108.2,87.8,124.7,155.3c17.1,69.7,16.9,145.4,4.8,215.7c-10.3,60.1-34.9,135.1-95.7,162.1
			C490.6,606.4,479.2,609.3,467.7,609.3z"/>
		<path d="M236.7,265.8c-3.3,5.3-4.3,11.6-2.9,17.7l7.5-1.8c-1.9-8.3,3.4-16.9,11.7-18.8l-1.8-7.5
			C245.1,256.8,240,260.5,236.7,265.8C233.4,271.1,240,260.5,236.7,265.8z"/>
		<path d="M143.6,312.5c0.1-0.1,2.2,1.9,2.4,2c1.3,1.2,2.3,1.9,3.9,2.5c3.6,1.4,7.5,1.9,11.3,1.4c3.1-0.4,6.1-1.4,8.9-2.9
			c2.9-1.7,4.4-3.7,6.5-6.3C166.6,301.1,151.8,302.5,143.6,312.5z"/>
	</g>
</g>
<g id="Shape_Version" display="none">
	<g display="inline">
		<path d="M227.4,523.1C227.3,523,227.3,523.1,227.4,523.1L227.4,523.1z"/>
		<path d="M394.1,564.1c-0.7,0.5-1.5,1-2.2,1.5C393.3,563.8,394,564.1,394.1,564.1C393.4,564.6,394.1,564.1,394.1,564.1z"/>
		<path fill="#FFFFFF" d="M231.5,511.9C231.4,512,231.8,511.9,231.5,511.9C231.3,512.1,231.6,511.9,231.5,511.9z M394.1,564.1
			C394.1,564.1,394.5,564.1,394.1,564.1C394.1,564.1,394.2,564.1,394.1,564.1z M393.9,564.1c-0.1,0.1-0.8,0.6-0.8,0.7
			C393.4,564.7,394.1,563.9,393.9,564.1z"/>
		<path d="M291,418.9c-2.4,3.2-5.3,6.1-8.9,8c-5,2.6-11.1-7.3-14.8-10.9C274.4,412,284.4,415.8,291,418.9
			C290.5,419.5,284.9,416.1,291,418.9z"/>
		<path d="M232.8,512.3C233,512.3,233.1,512.4,232.8,512.3C232.9,512.3,232.8,512.3,232.8,512.3z"/>
		<path d="M233,512.4C233.1,512.4,233.2,512.5,233,512.4L233,512.4z"/>
		<path fill="#FFFFFF" d="M231.5,511.9C231.4,512,231.8,511.9,231.5,511.9C231.3,512.1,231.6,511.9,231.5,511.9z M231.5,511.9
			C231.4,512,231.8,511.9,231.5,511.9C231.3,512.1,231.6,511.9,231.5,511.9z M231.5,511.9C231.4,512,231.8,511.9,231.5,511.9
			C231.3,512.1,231.6,511.9,231.5,511.9z M231.5,511.9C231.4,512,231.8,511.9,231.5,511.9C231.3,512.1,231.6,511.9,231.5,511.9z
			 M231.5,511.9C231.4,512,231.8,511.9,231.5,511.9C231.3,512.1,231.6,511.9,231.5,511.9z M231.5,511.9
			C231.4,512,231.8,511.9,231.5,511.9C231.3,512.1,231.6,511.9,231.5,511.9z M231.5,511.9C231.4,512,231.8,511.9,231.5,511.9
			C231.3,512.1,231.6,511.9,231.5,511.9z M231.5,511.9C231.4,512,231.8,511.9,231.5,511.9C231.3,512.1,231.6,511.9,231.5,511.9z
			 M231.5,511.9C231.4,512,231.8,511.9,231.5,511.9C231.3,512.1,231.6,511.9,231.5,511.9z M231.5,511.9
			C231.4,512,231.8,511.9,231.5,511.9C231.3,512.1,231.6,511.9,231.5,511.9z"/>
		<path d="M613.6,282.2C605.4,193.8,574,91,482.5,57c-40.5-15-89.7-17.8-127.8,5c-42.5,25.4-66.2,75.2-94,114.4
			c8-24.5,15.2-48.9,27.5-71.7c11.7-21.5,26.5-41.4,43.9-58.7c-30.3,2.1-61,12.1-82.9,34.1c-5.6,5.6-10.5,11.9-14.8,18.6
			c-2.3,3.8-3.5,8.9-6.9,11.9c-4.2,3.7-19.2,3.6-25,5.1c-9.3,2.3-18.3,5.3-27.1,9.2c-15.6,6.9-29.2,17.2-41.5,28.8
			c-1.1,1.1-10.5,12-12,10.6c-6.3-5.8-12.6-11.5-18.4-17.7c-21.4-23.1-35.7-51.7-37.4-83.4c-18.8,40.4-25.3,85.9-15,129.5
			c9.7,41.2,31,78.8,56,112.6c20.8,28.2,44.6,61.1,82.4,64.7c21.5,2.1,38,11.9,54.5,25.3c6.8,5.5,11.5,14,20.4,10.2
			c5.6-2.4,9.6-2.8,15.5-2.2c-7.8-1.6,5.2,0.8,5.5,0.9c3.9,0.9,7.7,2.3,11.2,4.1c3.2-8.6,6.4-17.9,2.3-26.6
			c-4.9-10.5-5.9-22.4-5.3-33.8c0.5-10,2.1-20.2,5.4-29.7c3.7-10.8,4.8-21.6,7.6-32.6c-12,7.6-20.4,19.5-30.1,29.5
			c-3.1-79.3,52.4-169.9,130.4-192.8c-5.8,24.7-11.5,49.6-21.4,73.1c12-4.8,23.7-10.6,34.7-17.4c0,35.1-21,67.5-47.6,89
			c11.2,8.2,25.7,6.2,38.7,6.2c-9.4,11.1-19.6,21.3-32.4,28.4c20.9,13.5,45.5,19.6,69.2,25.9c-18.9,19.6-35.1,41.6-30.5,70.4
			c0.9,5.6,3.1,22,10,23.9c12.7,3.5,24.6,8.6,35.3,16.2c37.9,26.6,53.3,74.2,54.4,118.8c-5.1-62.1-43.5-126-112.3-125.8
			c-32.2,0.1-57.8,20.6-80.3,41.4c-11.1,10.3-22.2,20.8-34.4,29.7c-6.5,4.8-13.4,9.1-20.8,12.4c-3.8,1.7-14.1,2.9-16.7,5.5
			c41.4,14.9,85.8,11.1,128.7,7.2c-19.9,12.3-39.6,25.2-61.4,33.8c17.6,1.4,35.3,2.4,52.8,0.6c17.5-1.8,34.5-7.1,51.5-11.4
			c-34.5,24.4-69.7,48.5-108.5,65.6c52.1,0,104.2,0,156.3,0c51.9,0,89-44.7,109.1-88c29.3-63,35.8-136.9,34.4-205.6
			C615.6,308.8,614.8,295.5,613.6,282.2C607.4,215.2,617,319,613.6,282.2z M165.4,306.9c-9,1.2-18.1,2-27.3,2.6
			c-0.6-15.8,25.8-18,28.8-2.8C166.5,306.7,165.9,306.8,165.4,306.9z M247.7,252.7c-4.5,7.8-9.6,15.3-14.3,23
			c-12.5-9.2,1.3-32.2,15.2-24.6C248.3,251.6,248,252.2,247.7,252.7C243.1,260.5,248,252.1,247.7,252.7z"/>
		<path d="M132.7,367.7c-4.1-4.1-8.8-8-14-10.6c4.6,6.9,9.2,13.9,12.5,21.6c1.9,4.3-8.1,7.4-10.5,8.9c-4.6,2.7-8.2,2.3-9.5-3.4
			c-2.1-9.3-5.3-18.5-9.6-27c0,9,1.2,18,0.3,27c-4.2-1.8-12.9-4-13.5-9.5c-1-8.7-2.9-17.1-5.1-25.6c-0.7,7.6-1.7,15.3-3.6,22.7
			c-10-7.5-10.7-22-10.1-33.4c1-18.4,5.5-36.4,8.2-54.6c10.1,15.1,20.2,31.4,32.5,44.8C120.7,339.9,130,352.3,132.7,367.7
			C128.9,363.9,130.8,357.1,132.7,367.7z"/>
		<path d="M209.8,449.5C209.9,449.5,209.9,449.5,209.8,449.5L209.8,449.5z"/>
		<path fill="#FFFFFF" d="M209.8,449.5C209.8,449.5,209.8,449.5,209.8,449.5L209.8,449.5z"/>
		<path fill="#FFFFFF" d="M205.2,479.2C205.2,479.3,205.2,479.3,205.2,479.2L205.2,479.2z"/>
		<path fill="#FFFFFF" d="M233,512.3C233,512.3,232.6,512.3,233,512.3C233,512.3,232.9,512.3,233,512.3z"/>
		<path fill="#FFFFFF" d="M233.1,512.4C233.1,512.4,233.1,512.4,233.1,512.4L233.1,512.4z"/>
		<path d="M394,564.1c-0.6,0.4-1.4,1-2,1.5C394.2,565.1,394.9,564.6,394,564.1z M394,564.1c-0.6,0.4-1.4,1-2,1.5
			C394.2,565.1,394.9,564.6,394,564.1z M394,564.1c-0.6,0.4-1.4,1-2,1.5C394.2,565.1,394.9,564.6,394,564.1z M394,564.1
			c-0.6,0.4-1.4,1-2,1.5C394.2,565.1,394.9,564.6,394,564.1z M394,564.1c-0.6,0.4-1.4,1-2,1.5C394.2,565.1,394.9,564.6,394,564.1z
			 M394,564.1c-0.6,0.4-1.4,1-2,1.5C394.2,565.1,394.9,564.6,394,564.1z M394,564.1c-0.6,0.4-1.4,1-2,1.5
			C394.2,565.1,394.9,564.6,394,564.1z M394,564.1c-0.6,0.4-1.4,1-2,1.5C394.2,565.1,394.9,564.6,394,564.1z M394,564.1
			c-0.6,0.4-1.4,1-2,1.5C394.2,565.1,394.9,564.6,394,564.1z M394,564.1c-0.6,0.4-1.4,1-2,1.5C394.2,565.1,394.9,564.6,394,564.1z
			 M394,564.1c-0.6,0.4-1.4,1-2,1.5C394.2,565.1,394.9,564.6,394,564.1z M394,564.1c-0.6,0.4-1.4,1-2,1.5
			C394.2,565.1,394.9,564.6,394,564.1z M394,564.1c-0.6,0.4-1.4,1-2,1.5C394.2,565.1,394.9,564.6,394,564.1z M394,564.1
			c-0.6,0.4-1.4,1-2,1.5C394.2,565.1,394.9,564.6,394,564.1z M394,564.1c-0.6,0.4-1.4,1-2,1.5C394.2,565.1,394.9,564.6,394,564.1z
			 M394,564.1c-0.6,0.4-1.4,1-2,1.5C394.2,565.1,394.9,564.6,394,564.1z M394,564.1c-0.6,0.4-1.4,1-2,1.5
			C394.2,565.1,394.9,564.6,394,564.1z M394,564.1c-0.6,0.4-1.4,1-2,1.5C394.2,565.1,394.9,564.6,394,564.1z M394,564.1
			c-0.6,0.4-1.4,1-2,1.5C394.2,565.1,394.9,564.6,394,564.1z M394,564.1c-0.6,0.4-1.4,1-2,1.5C394.2,565.1,394.9,564.6,394,564.1z
			 M394,564.1c-0.6,0.4-1.4,1-2,1.5C394.2,565.1,394.9,564.6,394,564.1z M394,564.1c-0.6,0.4-1.4,1-2,1.5
			C394.2,565.1,394.9,564.6,394,564.1z M394,564.1c-0.6,0.4-1.4,1-2,1.5C394.2,565.1,394.9,564.6,394,564.1z M394,564.1
			c-0.6,0.4-1.4,1-2,1.5C394.2,565.1,394.9,564.6,394,564.1z M394,564.1c-0.6,0.4-1.4,1-2,1.5C394.2,565.1,394.9,564.6,394,564.1z
			 M394,564.1c-0.6,0.4-1.4,1-2,1.5C394.2,565.1,394.9,564.6,394,564.1z M394,564.1c-0.6,0.4-1.4,1-2,1.5
			C394.2,565.1,394.9,564.6,394,564.1z M394,564.1c-0.6,0.4-1.4,1-2,1.5C394.2,565.1,394.9,564.6,394,564.1z M394,564.1
			c-0.6,0.4-1.4,1-2,1.5C394.2,565.1,394.9,564.6,394,564.1z M394,564.1c-0.6,0.4-1.4,1-2,1.5C394.2,565.1,394.9,564.6,394,564.1z
			 M394,564.1c-0.6,0.4-1.4,1-2,1.5C394.2,565.1,394.9,564.6,394,564.1z M394,564.1c-0.6,0.4-1.4,1-2,1.5
			C394.2,565.1,394.9,564.6,394,564.1z M394,564.1c-0.6,0.4-1.4,1-2,1.5C394.2,565.1,394.9,564.6,394,564.1z M394,564.1
			c-0.6,0.4-1.4,1-2,1.5C394.2,565.1,394.9,564.6,394,564.1z M394,564.1c-0.6,0.4-1.4,1-2,1.5C394.2,565.1,394.9,564.6,394,564.1z
			 M394,564.1c-0.6,0.4-1.4,1-2,1.5C394.2,565.1,394.9,564.6,394,564.1z M394,564.1c-0.6,0.4-1.4,1-2,1.5
			C394.2,565.1,394.9,564.6,394,564.1z M394,564.1c-0.6,0.4-1.4,1-2,1.5C394.2,565.1,394.9,564.6,394,564.1z M394,564.1
			c-0.6,0.4-1.4,1-2,1.5C394.2,565.1,394.9,564.6,394,564.1z M394,564.1c-0.6,0.4-1.4,1-2,1.5C394.2,565.1,394.9,564.6,394,564.1z
			 M394,564.1c-0.6,0.4-1.4,1-2,1.5C394.2,565.1,394.9,564.6,394,564.1z M394,564.1c-0.6,0.4-1.4,1-2,1.5
			C394.2,565.1,394.9,564.6,394,564.1z M394,564.1c-0.6,0.4-1.4,1-2,1.5C394.2,565.1,394.9,564.6,394,564.1z M394,564.1
			c-0.6,0.4-1.4,1-2,1.5C394.2,565.1,394.9,564.6,394,564.1z M394,564.1c-0.6,0.4-1.4,1-2,1.5C394.2,565.1,394.9,564.6,394,564.1z"
			/>
		<path d="M186.5,471.4c6.4,2.1,12.6,4.8,18.6,7.8c-4.6-6-13.1-11.4-16.3-18c-2.6-5.3,2.4-17.9,3.3-23.5c5.4,4.6,11.4,8.6,17.7,11.8
			c-3.8-7.7-10.8-13.4-14.4-21.3c6.6-0.6,14.5,0,20.7,2.1c3.9,1.3,4.6,5.1,6.6,8.5c3.6,6.1,8.2,11.6,13.4,16.4
			c-2.7-6.5-5.3-13.1-6.3-20.1c13.1,3.8,21.4,17.9,31.1,26.6c9.6,8.6,20,16.3,30.7,23.3c-3.6,0-8,5.6-10.6,7.7
			c-4.5,3.7-11.3,7.8-16.8,9.6c-8.6,2.7-17.2,5.4-25.8,8.1c-8.5,2.6-13,0-21.2-5C204.1,497.5,184.5,488.8,186.5,471.4
			C192.9,473.5,185.7,478.3,186.5,471.4z"/>
		<path d="M359.4,579.2c-18,11.1-36.3,22.1-56.3,29.3c-21,7.6-41.9,7.2-63.9,7.6c-39.9,0.7-79-0.9-116.5-16.1
			c-33.3-13.5-66.8-37.6-74.9-74.7c-6.6-30.6,1-75.8,25.8-97.1c2,34.8,17.9,65.5,50.2,80.9c33.9,16.2,69.1,15.2,105.6,15.2
			c-0.2-0.1-0.3-0.2-0.4-0.3c6.2,0,15.2,5.7,21.1,7.8c8.3,3,16.9,5.8,25.5,7.7c17.8,4,36.2,4.3,54.3,3.9
			c-31.2,15.3-66.2,17.5-100.1,21.7c45.8,4.2,91.7,12.2,137.9,9.1C365.1,575.8,362.3,577.6,359.4,579.2
			C331,596.7,360,578.9,359.4,579.2z"/>
		<path d="M380.6,350c1.9,0,3.6,4.1,4.4,5.6c2.2,3.9,3.8,7.8,4.9,12.1c1.5,5.5-10.2,8.3-13.4,10c-3.9-8.3-6.5-17.1-6.1-26.4
			c-2.7,7.2-4,14.7-3.6,22.4c-4.9-3.7-12.1-8.1-13.9-14.5c-1.8-6.9,4.2-15.9,8-21.1c-4.6,2.5-9.6,5.4-12.5,9.9
			c-3.7-10.8-6.8-21.8-9.9-32.8c7.4-1.5,14.3-2.9,21.4-5.7c8.8-3.4,14.5,3.9,22.5,7.7c8.9,4.3,12.1,4.8,13,15.7
			c0.8,8.7-0.6,17.6-1.7,26.2C391.8,355.4,384.9,350,380.6,350z"/>
		<path d="M314.9,306.2c1.9-14.1,6.6-27.6,11.2-41c-13.2,4-26.3,8.7-36.5,18.4c10.4-56.3,45.9-119.6,100.6-143.1
			c-6.9,27.5-16.5,54.2-32.3,77.8c16.2-5.7,32.6-11.1,48.1-18.4c-9.3,27.1-29.1,50.9-53.4,65.9c9.1,8,18.4,17,31,19
			C367,301.3,336.8,303.7,314.9,306.2z"/>
		<path fill="#FFFFFF" d="M394.1,564.1c-0.5,0.3-1.4,1.1-2.2,1.5C390.6,566.4,394.8,564.1,394.1,564.1z M231.5,511.9
			C231.4,512,231.8,511.9,231.5,511.9C231.3,512.1,231.6,511.9,231.5,511.9z M394.1,564.1c-0.5,0.3-1.4,1.1-2.2,1.5
			C390.6,566.4,394.8,564.1,394.1,564.1z M231.5,511.9C231.4,512,231.8,511.9,231.5,511.9C231.3,512.1,231.6,511.9,231.5,511.9z"/>
		<path fill="#FFFFFF" d="M420.5,432.2C419.8,431.9,420.2,432.2,420.5,432.2C420.3,432.2,420.5,432.2,420.5,432.2z"/>
	</g>
</g>
</svg>
