<?xml version="1.0" encoding="utf-8"?>
<!-- Generator: Adobe Illustrator 18.1.0, SVG Export Plug-In . SVG Version: 6.00 Build 0)  -->
<!DOCTYPE svg PUBLIC "-//W3C//DTD SVG 1.1//EN" "http://www.w3.org/Graphics/SVG/1.1/DTD/svg11.dtd">
<svg version="1.1" xmlns="http://www.w3.org/2000/svg" xmlns:xlink="http://www.w3.org/1999/xlink" x="0px" y="0px"
	 viewBox="0 0 648 648" enable-background="new 0 0 648 648" xml:space="preserve">
<g id="Outline_Version">
	<g>
		<path d="M604.9,144c-0.6-23-5.6-50.9-29.8-65.6c-16-9.7-34.8-11-52.7-11c-3.8,0-7.5,0.1-11.2,0.1c-3.5,0.1-7,0.1-10.4,0.1
			c-1.1,0-2.3,0-3.4,0l-2,0c-28.5-0.4-58-0.8-83.9-11.3c-4.7-1.9-8.9-4.6-13.3-7.4c-7.2-4.6-14.6-9.3-24.5-11.1
			c-5.9-1.1-12.1-1.6-20.2-1.6c-3.6,0-7.2,0.1-10.8,0.2c-3.5,0.1-6.9,0.2-10.4,0.2l-1.3,0c-7.2-0.1-14.5-0.1-21.8-0.2
			c-13.8-0.1-27.7-0.3-41.6-0.3c-43.2,0-94,1.4-142.8,11.5c-15,3.1-30.4,7.4-41.7,17.4C72.8,74,62.4,88.4,55.5,103.3
			c-11,23.5-8.5,52.6-6.3,78.3c0.6,6.6,1.1,12.8,1.4,18.7c0.9,19.1,2.4,41.6,6.3,64.2c0.3,1.6,0.5,3.2,0.8,4.9
			c1.3,8.5,2.8,18.2,7.3,26.2c1.2,2.2,2.4,4.3,3.7,6.5c3.4,5.9,6.8,12,10,18.2c8.9,17.3,19,35.5,32.4,51.2
			c7.8,9.1,27.4,29.6,46.8,31.5c0.3,5.1,0.1,10.3-0.2,15.7c-0.4,8.8-0.8,17.9,1.3,27.3c-2.5-0.8-5.1-1.3-7.9-1.3
			c-18.4,0-38.5,17.9-58,35.3c-2.2,1.9-4.4,3.9-6.5,5.8c-4,3.5-7.8,6.7-11.4,9.7c-20.2,16.8-36.2,30.1-31.1,60.6
			c3.1,18.4,4.7,23.1,14,27.3c3.1,1.4,7.5,3.4,15.2,11.4l1.7,1.7l2.4,0.4c1,0.2,1.9,0.3,2.6,0.3c3.5,0,6.5-1.7,8-4.7
			c2.7-5.3-0.6-9.7-5.2-15.9c-4.1-5.6-11.1-15-10.1-20.7c0.2-1.1,0.8-2.7,3.6-4.6c16.2-10.8,20.8-21.5,25.7-32.8
			c1.8-4.3,3.7-8.7,6.4-13.5c2-3.6,5.4-6.1,9.1-6.8c2.7-0.5,5.5-0.9,8.2-1.3c8.6-1.3,18-2.9,28.1-6.2c-5,3.9-10.4,7-15.2,9.8
			c-11,6.3-23.5,13.5-19.6,28c1,3.7,0.4,10.1-0.1,16.4c-1.2,13.3-2.5,28.3,8.1,36.8c0.2,0.1,18.1,14.4,27.9,14.4
			c3.9,0,7.1-2,8.6-5.3c2.5-5.6-0.4-12-12-25.6c0.5-4.6,0-10-0.4-15.9c-0.3-3.9-0.6-7.9-0.7-11.6c-0.1-4.1,2.4-7.8,6.3-9.3
			c16.6-6.6,28.7-12.6,36.9-18.3c0,0.1-0.1,0.2-0.1,0.3c-1.2,3.3-2.6,7-4.5,11.3c-13,25.5-13.9,30.2,0.4,45.6
			c1.4,1.5,2.9,3.2,4.6,5.1c8.3,9.2,16.8,11.2,22.6,11.2c9.3,0,17.4-5.2,18.4-11.9c0.7-4.7-2.1-9-6.9-10.5l-3.9-1.2l-3.1,2.5
			c-0.6,0.4-0.8,0.5-0.8,0.5c-1.3-0.3-4.7-4.4-6.4-6.3c-1.9-2.2-3.7-4.4-5.8-6c1.6-4,6.6-11.3,8.7-14.3c1.3-1.8,2.3-3.4,3-4.5
			c0.5-0.5,3.5-2,5.5-3c3.3-1.7,7.4-3.8,10.9-6.8l1.7,0.8c9.4,4.6,19.5,9.1,30.9,13.7l5.3,2.1c0.5,0.7,1,1.4,1.5,2
			c2.5,2.6,5.8,4,9.3,4c1,0,2-0.1,2.9-0.3c0.2,0,0.4-0.1,0.5-0.1c0.2,0,0.9,0,3,1.8c2.4,2.1,3.2,4.2,4.7,8.9c0.4,1.2,0.7,2.3,1,3.3
			c1.1,3.7,2.3,7.9,5.4,12.1c-0.9,0.6-2,1.2-2.8,1.7c-4.1,2.4-9.2,5.4-10.8,11.3c-1,3.6-0.3,7.5,2,11.3l4.4,7.5l6.8-5.3
			c0.8-0.6,4.2-1.1,6.2-1.3c6.1-0.9,16.2-2.3,18.7-12.4c2.3-9.3,3.5-19.3,3.3-27.5c0.1,0,0.2,0.1,0.4,0.1c1.6,0,3.8-0.4,6-2.4
			c4.8,7.9,13.8,11.7,20.6,14.6c1.2,0.5,2.5,1,3.6,1.6l2,0.9c4.5,2,16.3,7.3,17.4,11.6c0.3,1,0.4,1.9,0.5,2.9l0,0.4
			c0,0.5,0.1,1.1,0.2,1.9c0.1,0.7,0.3,1.5,0.6,2.3c0.3,0.9,0.6,1.5,0.8,2.1l0.6,1.1l0.4,0.4c0.8,1.2,1.8,2.4,3,3.6l9.4,8.6l3-12.1
			c0.1-0.2,0.2-0.4,0.2-0.7c2.1-5.9,8.2-23.1-1.1-36.1c-0.1-0.1-0.1-0.2-0.2-0.3c5-3.6,7.2-9.4,8.3-12.2c0.8-2,1.3-4.1,1.8-6.2
			c0.7-2.7,1.9-7.8,3.4-8.4c1.7,0,5.4,2.7,7.6,4.2c1.2,0.9,2.4,1.7,3.5,2.4c4.2,2.6,8.6,4.3,12.8,6c8.1,3.2,13.3,5.4,15.7,10.7
			c3.2,6.9,3.1,14.9,3,23.5c0,1.5,0,3.1,0,4.6V612l14.4-28c2.3-4.5,4.2-6.7,5.9-8.5c0.9-0.8,1.7-1.7,2.2-2.7
			c5.9-9,1.2-22.5-1.6-30.8l-0.5-1.5c-2-6-5.1-10.9-8.6-15c5.2-1.4,10.3-2.1,16.3-2.1c5.7,0,11.5,0.6,18.2,1.3l3.2,0.3
			c2.8,0.3,5.6,0.4,8.3,0.4c14.1,0,26.7-3.7,39.8-11.8c19.9-12.3,53.6-42,53.6-75.8v-53.7c0-27-9.2-51.5-19.2-73.9l-15.8-35.7
			l1.3,39c0.7,21.3,0,51.6-13.9,69.4c-6.3,8.1-6.5,17.9-6.7,26.4c-0.1,3.5-0.1,6.8-0.6,9.7c-0.3,1.8-0.7,3.6-1.1,5.3
			c-4.7-9-9.3-18.3-12.4-27.7c-1.7-5.3-2.3-9.6-1.8-13.3c0.2-1.1,0.9-2.5,1.6-4c1.3-2.8,3-6.2,3.1-10.5c0.2-8.6-2.8-16.3-5.7-23.8
			c-1.8-4.7-3.5-9.1-4.3-13.3l-2.3-13.4l-10.2,9c-15.7,13.9-15.5,37.4-15.5,50.1l0,5.2c0,18.6,0.1,39.6,7.5,57.2
			c0.9,2.2,2.1,4.3,3.2,6.3c1.7,3,3.2,5.8,3.4,8.1c0.4,6.6-9.3,16-12.9,19.5c-7.4,7.1-17.2,11.1-27.6,15.2
			c-3.6,1.4-7.2,2.9-10.8,4.5c-15.2-21.1-31.9-43.1-51.4-63.3l-0.5-0.5c10.8-8.1,19.9-19,28.1-28.9l6.8-8.1l-7.3-1.2
			c-8.4-1.6-16.7-6-22.3-11.7l-5.3-5.5l-1.1,7.5c-2,13.2-7.3,24.6-14.9,32.4l-2.4-2c-27.2-23.5-60.4-36.8-104.4-41.8l-5.4-0.6
			c-2.1-12.8,1.4-17.5,4.7-20.1l7.2-5.7l-9.1-1c-8.9-1-16.5-4.3-21.5-9.5c-2-2.1-3.6-4.5-4.8-7.2l-6-14.2l-1.3,15.3
			c-1,11.6-0.4,27.1,3,40.8c-4.4-0.1-9-0.1-13.8-0.1c-15.1,0-33.1,0.7-49.1,5.2c0-8.1-2.2-16.7-3.8-23.2c-0.3-1.4-0.7-2.6-0.9-3.7
			c-4.1-18-10.1-36.3-17.8-54.7c-4.1-9.7-8.3-19.2-14-28.2c15.3,8.6,32.5,15,51.5,19.1c15.8,3.4,31.9,5.1,48,5.1
			c8.8,0,17.5-0.5,26-1.5c11.5-1.4,22.8-4.1,33.8-6.7c12.2-2.9,23.8-5.7,35.6-6.8c2.3-0.2,4.6-0.3,7-0.3c18.5,0,36.3,6.6,51.4,13.1
			c15.5,6.7,30.8,10.1,45.5,10.1c8.4,0,16.8-1.1,24.9-3.3c23.5-6.4,43.8-15.2,60.3-26.4c10.6-7.2,18.7-14.9,24.7-23.5
			c4.7-6.8,13.4-19.5-1.1-33.2l-6.4-6l-5,7.2c-8.5,12.2-22.3,17.5-46.2,17.5c-6,0-12-0.3-17.8-0.6l-5.9-0.3
			c-29.4-1.3-59.9-8.1-93.5-20.9c-17.7-6.8-34.7-15.7-51.2-24.4c-5.1-2.7-10.3-5.5-15.6-8.2c4.5-1.2,8.5-4.1,12.2-6.6
			c1.9-1.3,3.7-2.6,5.1-3.3c7.8-3.8,16.6-6.6,26-8.2c7.7-1.4,16-2.1,24.7-2.1c9.6,0,19.8,0.8,31.2,2.5c17,2.5,34.1,6.8,50.7,10.9
			l4.2,1.1c1.1,0.3,2.2,0.6,3.3,0.9c5,1.3,10.6,2.8,16.5,2.8c2.4,0,4.8-0.3,6.9-0.8l3.5-0.9c5.1-1.3,9.9-2.5,15-2.8
			c1.9-0.1,3.8-0.2,5.8-0.2c20.6,0,46.2,6.4,55.8,24.4l6.4,12l6.8-11.8c6.6-11.3,7.6-23.5,8.1-34.6c0-0.3,0.1-0.6,0.1-0.9l0.1-4.9
			l0-1.2l0,0C605.1,147.1,605.2,145.3,604.9,144z M115.9,490.9c-6.3,1.1-11.5,5.3-14.5,10.6c-10.1,18.4-9.7,30.4-29.7,43.6
			c-22.4,14.9,16.6,44.6,7.9,44.6c-0.3,0-0.7,0-1.2-0.1c-22-22.7-22-3.6-27.2-34.7c-5.2-31.1,14.2-40.6,40.1-63.3
			c20.4-17.9,42.2-39.1,59.5-39.1c4.4,0,8.5,1.4,12.2,4.6c0.4,0.4,0.7,0.8,1.1,1.2l9.7,14.8C151.6,486.8,133.5,487.7,115.9,490.9z
			 M153.6,521.3c-6.7,2.7-11.2,9.2-11.1,16.5c0.2,11.2,2.5,23.6,0.6,29.7c14,15.9,15.4,21,11.5,21c-4.6,0-16.7-7.4-23.2-12.7
			c-12-9.6-1.8-36.1-5.4-49.3c-3.6-13.1,15.5-16.7,32.3-29.9c10.2-8,20.1-14,27.8-15.7c1.1-0.2,2.3-0.4,3.4-0.4c1,0,4.5,0.2,7.2,2
			c0.3,0.3,0.7,0.6,1,0.9C208.5,496.4,181.1,510.4,153.6,521.3z M235.4,508.3c-1.1,11-18.9,13.7-22.4,19.5
			c-3.5,5.7-18.1,24.1-11.6,27.6c5.3,2.8,11.1,15.2,18.7,15.2c1.7,0,3.5-0.6,5.5-2.2c4.6,1.4-0.7,7.5-9.2,7.5
			c-5,0-11.1-2.1-16.9-8.6c-15.6-17.5-18-14.7-3.9-42.3c7.2-16.2,7.3-24.6,17.7-30.6c0.2-0.1,0.5-0.3,0.7-0.4c1.5-0.8,3.1-1.6,5-2.3
			c1.2,0.7,2.5,1.3,3.6,1.9c6.4,3.6,10.3,6.3,12.2,9C235.4,504,235.7,505.9,235.4,508.3z M319.4,581.3c-2.1,8.5-16.3,5-22.1,9.5
			c-5.8-9.9,8.6-11.3,12.7-17.3c2-2.9,0.6-4.8-1.3-7.3c-3.3-4.3-3.9-8.6-5.6-13.6c-1.6-4.9-2.9-8.9-7-12.4c-2.5-2.1-4.9-3.7-8-3.7
			c-0.7,0-1.4,0.1-2.2,0.2c-0.4,0.1-0.9,0.1-1.3,0.1c-3.1,0-5.6-2.5-5.4-6c0.1-3.4,3.1-6.3,5.6-8.3c1-0.7,2.5-1.9,4.2-3
			c2-1.1,4-2,6-2.9c0.6-0.1,1.2-0.4,1.7-0.4c0.6,0,1.2,0.1,1.8,0.4c2.6,1.4,5.5,2.1,8.3,3.3c0.3,0.1,0.7,0.3,1,0.4
			c0.2,0.1,0.4,0.2,0.7,0.4c1.1,0.6,2.1,1.3,3,2c0.4,0.4,0.9,0.7,1.3,1.1l0.7,0.7c0.9,1,1.6,2,2.3,3.2c0.2,0.5,0.2,0.9,0.5,1.4
			c1.8,3.8,3.8,8.3,4.6,12.7l0,0.3c0.1,1.5,0.3,4.1,1.2,6.6c0.2,2.2,0.4,4.4,0.4,6.3C322.7,563.5,321.4,573.2,319.4,581.3z
			 M391.7,589.9c-0.1,0.3-0.2,0.6-0.3,0.9c-0.9-0.8-1.6-1.7-2-2.5c-0.2-0.2-0.2-0.3-0.3-0.4c-0.2-0.3-0.3-0.7-0.5-1.2
			c-0.2-0.3-0.2-0.7-0.3-1.2c-0.1-0.3-0.1-0.5-0.1-0.8c-0.2-1.4-0.2-2.9-0.8-4.9c-2.3-8.5-16.6-14.2-23.6-17.4
			c-8.4-3.8-20-7.2-22.6-17.3c-0.8-3.1-1.8-4.2-2.9-4.2c-2.1,0-4.6,4.3-6.9,6.6c-0.4,0.4-0.7,0.6-1,0.6c-0.3,0-0.6-0.3-0.8-0.7
			c-0.8-7.5-2.9-15.6-6.6-22.2c-0.2-1,0-1.9,0.6-2.7c1.1-0.8,2.3-1.7,3.4-2.6c2.2-1.7,4-3.1,5.7-4.2c2.3-1.4,4.8-2.4,7.4-2.4
			c1.1,0,2.2,0.2,3.3,0.6c2,0.7,3.9,1.8,5.7,3.1c3.9,2.9,7.5,7,10.4,10.6c2.1,2.7,3.9,5.4,5.6,7.8c0.3,0.4,0.6,0.8,0.9,1.2
			c0.6,1,1.3,2.1,2.2,3.1c0.2,0.2,0.3,0.4,0.5,0.7c2,2.9,3.9,5.7,6.7,7.8c5.5,4.1,12,6.6,16,12.3C397.7,569.1,395,580.8,391.7,589.9
			z M466.8,542.8c2.1,6.4,7.8,20.9,2.1,26.9c0.6-0.7,0.9-0.9,0.9-0.9c0,0-1.3,1.3-1.3,1.4c-1.9,2-4.4,4.8-7.2,10.3
			c0-10.5,0.9-21.5-3.7-31.3c-5.8-12.5-20.8-13.2-31.4-19.9c-4.1-2.6-9.7-7.7-15.1-7.7c-0.9,0-1.9,0.2-2.8,0.5
			c-6.9,2.7-7.2,13.1-9.4,19c-1.3,3.3-3,7.2-6.1,9.1c0,0,0,0,0,0c-0.5,0-7.1-4.7-8-5.2c-3.8-2.4-6.4-4.6-9-8.2
			c-0.3-0.4-0.6-0.8-0.9-1.2c-0.8-1.2-1.7-2.5-2.7-3.7c-0.6-1.3-0.7-2.5,0.5-3.9c1.5-1.8,3-3.9,4.6-6c0.3-0.4,0.7-0.9,1-1.3
			c4.8-6.3,8.7-11.2,12.9-14.2c2.2-1.4,4.5-2.6,7.1-3c1.1-0.2,2.3-0.3,3.4-0.3c5.2,0,10.2,2,15,4c7.9,3.2,15.9,6.1,23.6,9.5
			C452.4,522.2,462.4,529.7,466.8,542.8z M394.1,426c11.1-7.5,19.3-20.6,23.1-36.3c4.6,3.5,10.1,6.2,15.9,8
			c-9.9,11.9-20.2,24-33.1,31c-3.1,1.7-13.4,6.5-20.1,6.5c-3.3,0-3.6-1.1-3.7-1.7c-0.1-0.5-0.2-0.9-0.2-1.2
			C381.5,432.6,387.6,430.4,394.1,426z M279,349.3c-3,4.9-3.8,11.5-2.8,19.7l0.2,1.4c0.1,0.6,0.1,1.1,0.2,1.7
			c1.7,9.6,6.4,16,9.9,20.7c1.4,1.8,3.4,4.6,3,5.9c-1.3,1.3-2.3,1.4-2.9,1.4c-2,0-7.6-1.8-17.5-18.6c-6.1-10.5-8.7-27.2-8.8-42.1
			C265.1,344.1,271.6,347.5,279,349.3z M597.5,149.8c0,0.4,0,0.8,0,1.2c0,1.3-0.1,2.9-0.1,4.9c0,0,0,0,0,0c0,0,0,0,0,0c0,0,0,0,0,0
			c0,0,0,0,0-0.1c0-0.2,0-0.4,0-0.6c0-0.8,0-1.5,0.1-2.3c-0.4,12.1-1,24.1-7.2,34.9c-11.2-20.9-39.6-28.4-62.5-28.4
			c-2.2,0-4.3,0.1-6.3,0.2c-6.9,0.4-13.1,2.3-19.7,3.9c-1.7,0.4-3.4,0.6-5.1,0.6c-6,0-12.3-2.1-17.9-3.5
			c-18.4-4.6-36.8-9.3-55.7-12.1c-10.7-1.6-21.5-2.6-32.3-2.6c-8.7,0-17.4,0.7-26,2.2c-9.6,1.7-19.1,4.6-27.9,8.9
			c-5.3,2.6-12,9.2-17.9,9.7c-0.4,0-0.8,0-1.1,0c-7.9,0-18-6.2-25.4-8.1c-8.9-2.2-17.9-3.7-27.1-4.2c-2.6-0.2-5.3-0.2-7.9-0.2
			c-15.7,0-31.3,2.7-46,8.3c10.4-2.6,21.1-3.9,31.6-3.9c20.4,0,40.6,4.7,59.4,13.4c28.6,13.3,54.9,30,84.6,41.3
			c30.8,11.7,62.9,20,95.8,21.4c7.6,0.3,15.8,0.9,24,0.9c20.1,0,40.3-3.2,52.4-20.7c8.5,8,6.5,14.1,0.1,23.3
			c-6,8.7-14,15.7-22.7,21.5c-17.4,11.7-37.9,19.9-58.1,25.4c-7.7,2.1-15.3,3-22.9,3c-14.5,0-28.7-3.5-42.5-9.5
			c-17.4-7.5-35.4-13.8-54.4-13.8c-2.5,0-5.1,0.1-7.6,0.3c-23.5,2.2-46.2,10.6-69.6,13.5c-8.3,1-16.7,1.5-25.1,1.5
			c-15.6,0-31.2-1.7-46.4-4.9c-39.3-8.4-75.2-28.6-97.4-62.9c4.1,15.6,14,28.8,25.4,39.9c12.5,12.2,19.1,26.5,25.8,42.5
			c7.2,17.3,13.2,35.2,17.4,53.4c2.2,9.6,9.7,32.5-1.3,38.8c17.2-9.7,41.5-11.2,62.6-11.2c4.8,0,9.5,0.1,13.9,0.2
			c4.1,11.9,14.4,31.6,28.5,33.6c0.5,0.1,1,0.1,1.6,0.1c6.7,0,14.2-5.5,13-12.8c-1.1-7.1-7.8-12.5-10.9-18.8
			c37.4,4.2,71.4,15.1,100.3,40c-8.7,6.4-27.4,1.7-21.7,18.6c2,5.9,6.9,8,12.7,8c9.7,0,21.9-5.8,27.4-9.1
			c20.1,20.8,37.6,44.1,54.4,67.6c15.4-8,33.3-11.6,46.1-23.8c6.3-6.1,15.9-15.8,15.3-25.4c-0.4-6.1-4.8-11.3-7.2-16.8
			c-7.5-17.8-6.8-40.5-6.9-59.5c-0.1-15.2,0.7-33.5,12.9-44.4c2.1,11.9,10.1,23.5,9.9,35.7c-0.1,4.8-3.9,8.7-4.6,13.5
			c-0.8,5.6,0.3,11.4,2.1,16.8c5.3,15.9,14.4,30.8,21.6,46.1c2.4-8.2,5.3-16.5,6.6-24.9c1.7-10.6-1.3-23.7,5.8-32.7
			c15.2-19.4,16.3-50.5,15.5-74.3c10.2,22.9,18.5,45.7,18.5,70.9c0,17.9,0,35.8,0,53.7c0,28.1-27.8,55.8-50,69.4
			c-11.5,7.1-22.9,10.6-35.8,10.6c-2.5,0-5-0.1-7.5-0.4c-7.9-0.8-15.1-1.6-22.1-1.6c-7.1,0-14.2,0.9-22,3.5
			c-8.6-6.8-19.2-10.7-29.2-14.7c-9.4-3.6-18.9-9.1-29.2-9.1c0,0,0,0-0.1,0c-3,0-5.7,0.7-8.2,1.6c-0.5,0.2-0.9,0.3-1.4,0.5
			c-0.9,0.4-1.7,0.7-2.5,1.2c-7.7,4.1-13,11.5-17.5,17.8c-0.5,0.7-0.9,1.3-1.4,1.9c-1.4,1.8-2.7,3.5-4.1,5.2
			c-0.2-0.2-0.4-0.5-0.6-0.8c-3.1-4-6.6-7.9-10.6-11.1c0,0-0.1-0.1-0.1-0.1c-0.6-0.5-1.3-1-2-1.4c-0.8-0.6-1.7-1.1-2.5-1.6
			c-0.1-0.1-0.2-0.1-0.3-0.2c-1.2-0.7-2.5-1.2-3.8-1.7c0,0-0.1,0-0.1-0.1c-0.1,0-0.1,0-0.2-0.1c-1.9-0.6-3.8-1.1-5.8-1.1
			c-5.3,0-9.5,2.3-13.5,5.1c-0.3,0.2-0.5,0.3-0.8,0.5c-0.5,0.3-1,0.7-1.6,1c-1.3,0.8-3.6,2.3-5.6,4.5c-0.4,0.3-0.9,0.7-1.3,1
			c-0.2-0.2-0.5-0.3-0.7-0.5c-0.7-0.6-1.4-1.3-2.2-1.8c-0.4-0.3-0.8-0.4-1.2-0.6c-0.5-0.3-1.1-0.6-1.6-0.9c-0.7-0.3-1.4-0.7-2-1
			c-3.9-1.7-8-3.2-11.6-5.6c-1.5,0.6-3.1,1.3-4.8,2c-2.6,0.7-5.1,2-7.5,3.5c-7,3.8-13.4,8.9-14.4,16.5c-10.3-4.1-20.5-8.5-30.4-13.4
			c3.8-7,3.3-12.4,0.7-16.8c-2.7-6.2-8.6-9.1-13.3-11.3c-0.9-0.4-1.8-0.9-2.6-1.3c-2.1-1.1-4.1-2.2-6-3.3c-2.7,0.9-5.2,2-7.7,3.3
			c-0.9,0.4-1.7,0.9-2.5,1.4c-0.5,0.3-1.1,0.5-1.5,0.8c-0.3-5.3-2.7-9.2-6.1-11.9c-2.4-2.1-6-3.9-11.3-3.9c-1.9,0-3.9,0.3-6,0.8
			c-0.3,0.1-0.5,0-0.8,0.1c-4.2-6.3-8-13.7-12.9-19.6l-0.6-0.9l-0.5-0.8l-0.7-0.7c-0.1-0.1-0.3-0.2-0.5-0.4
			c-0.1-0.1-0.1-0.2-0.2-0.3c-6.9-18.7-0.4-36.7-3.7-55.5l1.8-1c-1.9,0.6-3.8,0.9-5.8,0.9c-16.2,0-35.1-18.9-43.8-29
			c-12.8-14.9-22.5-32.3-31.4-49.7c-4.4-8.5-9.1-16.6-13.8-24.9c-4.6-8.3-5.6-19.5-7.2-28.7c-3.6-20.9-5.1-42.2-6.2-63.3
			c-1.4-29.1-8.6-66.1,4.2-93.4c5.9-12.5,15.4-26.8,25.9-36c10.3-9.1,25.1-12.9,38.2-15.6c46.1-9.6,93.8-11.3,141.3-11.3
			c21.2,0,42.3,0.4,63.3,0.5c0.5,0,0.9,0,1.4,0c7.1,0,14.2-0.4,21.2-0.4c6.3,0,12.6,0.3,18.8,1.5c14.2,2.7,23.3,12.8,36.4,18.1
			c27.9,11.3,59,11.5,88.7,11.9c1.2,0,2.3,0,3.5,0c7,0,14.3-0.2,21.6-0.2c17.1,0,34.5,1.3,48.8,9.9c23.5,14.3,26.6,42.9,26.2,68
			c0-0.7,0-1.4,0.1-2c0.1-2.5,0.1-4.9,0.1-4.9s0,1.3-0.1,4.8C597.5,150.4,597.5,150.1,597.5,149.8z"/>
		<path d="M597.3,155.9C597.3,155.9,597.3,155.9,597.3,155.9C597.3,155.9,597.3,155.9,597.3,155.9c0-0.1,0-0.2,0-0.3
			C597.3,155.7,597.3,155.8,597.3,155.9z"/>
		<path d="M597.4,151.3c0,0.7,0,1.3-0.1,2C597.4,152.6,597.4,151.9,597.4,151.3z"/>
		<path d="M597.4,153.2c0,0.7,0,1.3-0.1,2c0,0.1,0,0.2,0,0.3C597.3,155,597.4,154.2,597.4,153.2z"/>
		<path d="M597.4,151.3c0-0.1,0-0.2,0-0.2c0-0.1,0-0.2,0-0.3c0,0,0,0.1,0,0.1C597.4,151,597.4,151.1,597.4,151.3z"/>
		<path d="M277.7,492.1c4.5,0,9.3-2.3,12.4-5.2c5.7-5.3,7-13.4,5.6-20.8c11.5-5.6,27.6-28.1,11.7-38.2c-3-1.9-6.1-2.7-9.3-2.7
			c-13.1,0-26.6,13.9-28.7,25.7h-0.1c-4.1,9.9-7,28.3,0.2,37.4C271.6,491,274.6,492.1,277.7,492.1z M274.7,458.5h1l1.2-6.3
			c1.5-8.5,12.1-19.4,21.3-19.4c1.9,0,3.6,0.5,5.2,1.5c2.4,1.5,3.3,3.2,3.1,5.7c-0.4,6.8-8.1,16.3-14,19.2l-5.3,2.6l1.2,5.8
			c1.1,5.6-0.1,10.8-3.3,13.8c-1.9,1.8-5,3.1-7.2,3.1c-1.4,0-1.9-0.5-2.2-0.9C271.7,478.8,272.1,467.7,274.7,458.5z"/>
		<path d="M313,474.7c-12.2,1.5-35.7,17.5-16.3,28.4c3.6,2,8,2.9,12.6,2.9c10.8,0,23-4.9,29.6-11.4c14.3-10.2,14.4-48.2-8.1-48.2
			C316.9,446.3,312.1,463.6,313,474.7z M321.1,481.3l-0.6-7.2c-0.4-5.7,1.1-13.7,4.9-17.7c1.5-1.7,3.2-2.4,5.4-2.4
			c1.6,0,6.7,0,9.2,8c3,9.2,0.2,22.3-5.6,26.5l-0.5,0.4l-0.4,0.4c-5.2,5.2-15.6,9.2-24.2,9.2c-3.6,0-6.6-0.7-8.9-1.9
			c-2.4-1.3-3.6-2.7-3.5-3.2c0.8-3.8,10.6-10.2,17-11L321.1,481.3z"/>
		<path d="M438.2,331.1c-5.8,0-11.4,1.6-15.5,4.4c-6.6,4.5-10.6,12.1-10.8,20.5c-0.2,7.9,3.2,15,9.1,19.4c6.7,5,14.5,8.2,21.1,8.9
			c0.7,0.1,1.3,0.1,1.8,0.1c4.1,0,6.5-2.2,8.5-3.9c0.7-0.7,1.5-1.4,2.5-2c11.2-7.3,9-26.9,4.7-35.8
			C456.2,335.5,448,331.1,438.2,331.1z M450.8,372.1c-1.3,0.9-2.4,1.8-3.4,2.7c-1.7,1.6-2.3,2-3.3,2l-0.9-0.1
			c-5.5-0.6-11.9-3.3-17.6-7.4c-3.9-2.9-6.2-7.7-6-13.1c0.1-5.9,2.9-11.2,7.4-14.4c2.9-2,7-3.1,11.3-3.1c5.4,0,12,1.9,14.6,7.2
			C456.5,353.3,457.2,367.9,450.8,372.1z"/>
		<path d="M281.5,290.8c-4.8,0-20.6,1.1-23.3,15.6c-0.2,7.8,2.3,14.5,7.1,19.5c6.1,6.3,16.2,9.9,27.6,9.9c2.8,0,5.9-0.3,8.9-0.8
			l0.8-0.2c5.1-2.1,6.9-7.9,7.4-11.2c1.6-9.5-2-21.2-8.2-26.6C297.6,293.2,289.6,290.8,281.5,290.8z M302.5,322.2
			c-0.5,2.6-1.5,4.6-2.6,5.3c-12.6,2.1-23.4-1-29.2-7c-3.4-3.5-5.1-8.3-5-13.4c1.5-8.2,12.5-8.8,15.8-8.8c6.2,0,12.5,1.8,15.3,4.3
			C301.1,306.4,303.7,315.4,302.5,322.2z"/>
		<path d="M468.5,570.2c0.1-0.2,0.3-0.4,0.5-0.5C468.6,570.1,468.5,570.2,468.5,570.2C468.5,570.2,468.5,570.2,468.5,570.2z"/>
	</g>
</g>
<g id="Shape_Version" display="none">
	<g display="inline">
		<path d="M167.8,460.9c-19.3-17.5-48.9,12-76.1,35.9s-47.7,34-42.2,66.7c5.4,32.7,5.4,12.6,28.6,36.5c13.6,2.5-31.6-30.5-7.1-46.8
			c21-13.9,20.6-26.5,31.2-45.9c3.1-5.6,8.6-10,15.2-11.2c18.6-3.3,37.6-4.2,61.2-18.7L167.8,460.9z"/>
		<path d="M203.6,488.4c-6.9-8.2-23.9,0-41.5,13.9s-37.7,17.6-34,31.4c3.8,13.8-6.9,41.7,5.7,51.8s44.7,28,12.3-8.8
			c2-6.4-0.4-19.5-0.6-31.3c-0.1-7.6,4.6-14.5,11.7-17.4C186.1,516.6,214.9,501.8,203.6,488.4z"/>
		<path d="M226,496.8c9.8,5.7,18.4,6.1,17.3,17.7c-1.1,11.6-19.9,14.5-23.6,20.5s-19.1,25.4-12.2,29c6.9,3.6,14.5,22.4,25.4,13.7
			c7.7,2.4-11,17.2-27.5-1.2c-16.5-18.4-19-15.4-4.1-44.5C210.2,512.2,208.7,503.4,226,496.8z"/>
		<path d="M437.6,541.9c-0.2,0.2-0.5,0.3-0.7,0.4c-4.3,2.1-8.6,4.3-13.1,6.2c0.6-1.6,1.1-3.4,1.5-5.3c1.5-6.1,2.7-6.9,2.7-6.9
			c1-0.1,4.8,2.3,7.6,4.1C436.2,541,436.8,541.5,437.6,541.9z"/>
		<path d="M380.5,543.6l-0.6-0.6c0.1,0,0.2-0.1,0.2-0.1C380.2,543.2,380.4,543.4,380.5,543.6z"/>
		<path d="M301.7,544.3L301.7,544.3c-0.1,0-0.1,0-0.2,0c0,0-0.1,0-0.1-0.1h0.1C301.6,544.2,301.6,544.2,301.7,544.3
			C301.6,544.2,301.7,544.2,301.7,544.3z"/>
		<path d="M341.6,553C341.6,553.1,341.6,553.1,341.6,553C341.6,553.1,341.6,553.1,341.6,553C341.6,553,341.6,553,341.6,553z"/>
		<g>
			<path d="M294.4,465.3c11.2,0,34.8-26.7,17.3-29.8C295.4,432.6,276.4,465.3,294.4,465.3z"/>
			<path d="M343.6,494.6c15,0,15-37.3,0-37.3C328.6,457.3,328.6,494.6,343.6,494.6z"/>
			<path d="M308.7,496.2c-5.2,11.4,23.9,5.4,27,4.1c-4.2-2.7-7.5-7.4-9.4-13.3C317.9,487.9,310.5,492.2,308.7,496.2
				C308.1,497.6,310.5,492.2,308.7,496.2z"/>
			<path d="M288.1,489.3c8.2-1.3,12.1-8.5,11-16.4c-5.5,1.1-11.3,0.5-15.6-3.4C283.1,472.8,281.2,490.3,288.1,489.3
				C292.3,488.6,286.6,489.5,288.1,489.3z"/>
			<path d="M144,237.6l2.8,1.8c-1.3-1-2.6-2-4-3.1C143.2,236.8,143.6,237.2,144,237.6z"/>
			<path d="M624.1,143.5c0.8-27.1-1.7-59.2-27.5-74.8c-22.5-13.6-52.6-9.9-77.8-10.2c-31.2-0.4-63.9-0.6-93.3-12.5
				c-13.7-5.5-23.3-16.3-38.3-19.1c-14.4-2.7-29.1-1-43.6-1.1c-71.3-0.6-145.1-3.2-215.3,11.4C114.6,40,99,44,88.3,53.6
				c-11,9.7-21,24.7-27.2,37.9c-13.5,28.8-6,67.7-4.5,98.4c1.1,22.3,2.8,44.6,6.5,66.7c1.7,9.7,2.7,21.5,7.6,30.2
				c4.9,8.7,9.9,17.3,14.5,26.2c9.4,18.3,19.6,36.6,33.1,52.3c10.3,11.9,34.2,35.5,52.2,29.6l-1.9,1.1c3.4,19.8-3.4,38.7,3.9,58.4
				c6.6,6.6,11,15.9,16.2,23.8c11.4-3,24.8,2.3,25.5,15.7c3.8-2.6,8.1-4.3,12.4-5.8c13,7.4,32.8,15.2,22.4,34.5
				c10.5,5.2,21.2,9.8,32,14.1c1.6-12.8,17.7-19,28.1-23.2c6.4,4.3,14.7,5.4,20.3,10.9c7.6-5.2,14-12.7,23.9-12.7
				c11.3,0,21,10.8,27.5,19c10.2-11.9,18.9-29.6,37-29.7c10.8,0,20.9,5.8,30.8,9.6c10.6,4.2,21.7,8.3,30.8,15.4
				c16.4-5.5,29.7-3.6,46.5-1.9c16.9,1.7,31.1-1.9,45.6-10.8c23.3-14.3,52.6-43.4,52.6-73c0-18.8,0-37.7,0-56.5
				c0-26.4-8.8-50.5-19.5-74.6c0.8,25-0.3,57.7-16.3,78.2c-7.4,9.5-4.3,23.2-6.1,34.4c-1.5,8.9-4.5,17.6-7,26.2
				c-7.5-16-17.1-31.7-22.7-48.5c-1.9-5.6-3.1-11.7-2.2-17.6c0.8-5.1,4.8-9.1,4.9-14.2c0.2-12.8-8.2-25-10.4-37.5
				c-12.9,11.4-13.7,30.7-13.6,46.7c0.1,20-0.6,43.9,7.3,62.7c2.4,5.8,7.1,11.3,7.5,17.7c0.6,10.1-9.4,20.4-16.1,26.8
				c-13.4,12.9-32.4,16.7-48.5,25.1c-17.7-24.8-36.1-49.3-57.3-71.2c-9.3,5.5-36.6,17.8-42.2,1.1c-6-17.8,13.7-12.8,22.8-19.5
				c-30.3-26.2-66.1-37.6-105.5-42.1c3.2,6.6,10.2,12.4,11.4,19.8c1.3,8.3-7.9,14.4-15.4,13.3c-14.9-2.1-25.7-22.8-30-35.3
				c-24.8-0.4-58.2-1-80.5,11.7c11.5-6.6,3.7-30.7,1.4-40.8c-4.4-19.2-10.7-38.1-18.3-56.3c-7-16.8-14-31.9-27.2-44.7
				c-12-11.7-22.4-25.5-26.7-42c23.3,36.1,61.1,57.4,102.5,66.2c24.5,5.2,50.3,6.6,75.2,3.6c24.7-3,48.6-11.9,73.3-14.2
				c22.9-2.1,44.6,5.2,65.3,14.1c22.1,9.6,45.3,13.1,68.8,6.8c21.3-5.8,42.8-14.4,61.1-26.7c9.1-6.2,17.6-13.5,23.9-22.7
				c6.7-9.7,8.9-16.1-0.1-24.5c-18,25.9-52.9,22.1-80.5,20.9c-34.7-1.5-68.5-10.2-100.9-22.5c-31.2-11.9-58.9-29.4-89-43.5
				c-29.9-14-63.6-18.1-95.8-10.1c18.1-6.8,37.5-9.6,56.7-8.4c9.6,0.6,19.2,2.1,28.5,4.4c8.2,2.1,19.5,9.1,28,8.4
				c6.2-0.5,13.3-7.5,18.8-10.2c9.3-4.5,19.3-7.5,29.4-9.3c20.3-3.7,41.1-2.6,61.4,0.4c19.8,2.9,39.2,7.9,58.6,12.7
				c7.6,1.9,16.4,5,24.3,3c7-1.7,13.5-3.7,20.8-4.1c25-1.6,59.5,5.6,72.4,29.7c7.1-12.3,7.2-26.2,7.7-40
				C624.3,139.2,624.2,141.4,624.1,143.5C624.8,121.4,624.2,140.7,624.1,143.5z M343.6,449.2c23.7,0,23.6,40,8.5,50.7
				c-9.8,9.8-31.7,16.1-44.4,9c-20.4-11.4,4.3-28.3,17.1-29.9C323.9,467.4,329,449.2,343.6,449.2z M278.9,454L278.9,454
				c2.8-15.4,24.2-34.3,40.1-24.2c16.7,10.6-0.2,34.3-12.3,40.2c1.6,7.8,0.1,16.3-5.9,21.9c-5.5,5.2-16.2,8.5-21.7,1.5
				C271.5,483.8,274.5,464.5,278.9,454z M181.9,388.3L181.9,388.3C181.8,388.3,181.9,388.3,181.9,388.3z"/>
		</g>
		<path d="M146.8,239.4l-2.8-1.8l-0.1-0.1l-1.1-1.2C144.2,237.4,145.5,238.4,146.8,239.4z"/>
		<path d="M303,401.8c-7.3,7.3-17-0.6-27.7-18.8c-8.9-15.2-10.8-40.9-9.4-58.6c1.4,3.2,3.3,6.2,5.8,8.8c5.9,6.1,14.8,10,25,11.2
			c-6,4.8-8.6,12.3-6.2,25.9C293.8,389,309.6,395.3,303,401.8z"/>
		<path d="M472.1,382.4c-4,2.7-5.4,6.2-10.7,5.5c-7.2-0.7-14.7-4.3-20.5-8.6c-11.5-8.5-10.3-27.3,1.6-35.4
			c9.6-6.5,27.6-5.3,33.1,5.9C479.8,358.2,481.4,376.3,472.1,382.4z"/>
		<path d="M457.5,395.4c0.3,0.1,0.6,0.2,1,0.2c-11.6,13.9-24,29.8-40.2,38.6c-5,2.7-28.2,13.5-30.9,2.5c-0.7-2.8-1.1-6.8,2.4-6.3
			c6.4,0.9,13.1-2.3,18.2-5.8c14-9.5,21.5-26.2,23.9-42.5C438.7,388.8,448.2,393.6,457.5,395.4C457.8,395.5,449.2,393.8,457.5,395.4
			z"/>
		<path d="M317.8,327.3c-0.6,3.2-2.1,7.4-5.4,8.7c-2.7,0.5-5.7,0.8-8.6,0.8c-11,0-20.5-3.4-26.2-9.2c-4.4-4.5-6.5-10.7-6.4-17.6
			c2.2-11.6,16.2-12.5,20.5-12.5c7.5,0,15,2.2,18.7,5.5C316,307.8,319.3,318.7,317.8,327.3z"/>
		<path d="M407.7,600.3c-0.1,0.3-0.2,0.6-0.3,1c-1-0.9-1.7-1.8-2.1-2.6c-0.2-0.2-0.2-0.3-0.3-0.4c-0.2-0.3-0.3-0.7-0.4-1.1
			c0-0.1-0.1-0.1-0.1-0.2s0-0.1,0-0.1c-0.2-0.3-0.2-0.7-0.3-1.1c0-0.1,0-0.1,0-0.2c-0.1-0.3-0.1-0.6-0.1-0.9
			c-0.2-1.5-0.2-3.1-0.8-5.2c-2.4-9-17.5-14.9-24.9-18.3c-8.9-4-21-7.6-23.8-18.3c-2.6-9.5-6.6-1.1-10.3,2.5
			c-2.4,2.4-2.3-1.7-2.7-2.7c0-6.5-3.2-14.3-5.9-20c-1.9-4,4-6.6,7.4-9.1c4-2.9,9-5.4,14-3.6c9.7,3.5,17.3,14.6,23,22.6
			c0,0-0.1,0.1-0.2,0.1c3.7,4.4,6.2,9.9,10.9,13.5c5.7,4.3,12.6,6.9,16.9,12.9C414,578.4,411.2,590.7,407.7,600.3z"/>
		<path d="M380.5,543.6l-0.6-0.6c0.1,0,0.2-0.1,0.2-0.1C380.2,543.2,380.4,543.4,380.5,543.6z"/>
		<path d="M489,579c-2,2.2-4.8,5.1-8.1,11.4c0-11.1,1-22.7-3.9-33c-6.1-13.1-21.9-13.9-33.1-21c-5.1-3.2-12.3-10.1-18.9-7.6
			c-7.2,2.9-7.6,13.8-9.9,19.9c-1.3,3.5-3.1,7.6-6.5,9.6c-0.2,0.2-7.5-4.9-8.4-5.4c-4-2.5-6.7-4.8-9.4-8.6c-2.3-3.3-6.1-6-3.3-9.3
			c7.5-8.8,14.4-23.5,27-25.8c6.8-1.3,13.2,1.4,19.3,3.9c8.3,3.4,16.7,6.4,24.9,10c12.9,5.7,23.5,13.6,28.1,27.4
			C489.1,557.5,495,572.8,489,579C487,581.2,491.9,576,489,579z"/>
		<path d="M344,555.9c-0.2,0.2-0.5,0.6-0.7,0.8l-0.6,0.6c-0.1,0-0.2,0.2-0.3,0.2c-0.1-0.6-0.2-1.3-0.3-1.9
			C342.7,555.8,343.3,555.8,344,555.9z"/>
		<path d="M380.5,543.6l-0.6-0.6c0.1,0,0.2-0.1,0.2-0.1C380.2,543.2,380.4,543.4,380.5,543.6z"/>
		<path d="M334.6,561.2C334.7,561.2,334.7,561.3,334.6,561.2L334.6,561.2L334.6,561.2z"/>
		<path d="M301.6,544.2C301.6,544.2,301.6,544.2,301.6,544.2L301.6,544.2C301.6,544.2,301.6,544.2,301.6,544.2z"/>
		<path d="M334.1,556.3v0.2C334.1,556.5,334.1,556.4,334.1,556.3L334.1,556.3z"/>
		<path d="M334.7,561.2L334.7,561.2C334.7,561.3,334.7,561.2,334.7,561.2L334.7,561.2z"/>
		<path d="M301.6,544.2C301.6,544.2,301.6,544.2,301.6,544.2h-0.2C301.5,544.3,301.6,544.3,301.6,544.2c0,0.1,0,0.1,0.1,0.2
			L301.6,544.2C301.7,544.2,301.6,544.2,301.6,544.2z M334.6,561.2C334.7,561.2,334.7,561.3,334.6,561.2L334.6,561.2L334.6,561.2z
			 M301.6,544.2C301.6,544.2,301.6,544.2,301.6,544.2h-0.2C301.5,544.3,301.6,544.3,301.6,544.2c0,0.1,0,0.1,0.1,0.2L301.6,544.2
			C301.7,544.2,301.6,544.2,301.6,544.2z M334.6,560.8v0.4c0.1,0,0.1,0.1,0.1,0.1v-0.1h0.1L334.6,560.8z M301.6,544.2
			C301.6,544.2,301.6,544.2,301.6,544.2h-0.2C301.5,544.3,301.6,544.3,301.6,544.2c0,0.1,0,0.1,0.1,0.2L301.6,544.2
			C301.7,544.2,301.6,544.2,301.6,544.2z M334.6,561.2C334.7,561.2,334.7,561.3,334.6,561.2L334.6,561.2L334.6,561.2z M301.6,544.2
			C301.6,544.2,301.6,544.2,301.6,544.2h-0.2C301.5,544.3,301.6,544.3,301.6,544.2c0,0.1,0,0.1,0.1,0.2L301.6,544.2
			C301.7,544.2,301.6,544.2,301.6,544.2z M301.6,544.2C301.6,544.2,301.6,544.2,301.6,544.2h-0.2
			C301.5,544.3,301.6,544.3,301.6,544.2c0,0.1,0,0.1,0.1,0.2L301.6,544.2C301.7,544.2,301.6,544.2,301.6,544.2z M301.6,544.2
			C301.6,544.2,301.6,544.2,301.6,544.2h-0.2C301.5,544.3,301.6,544.3,301.6,544.2c0,0.1,0,0.1,0.1,0.2L301.6,544.2
			C301.7,544.2,301.6,544.2,301.6,544.2z M334.6,560.8v0.4c0.1,0,0.1,0.1,0.1,0.1v-0.1h0.1L334.6,560.8z M301.6,544.2
			C301.6,544.2,301.6,544.2,301.6,544.2h-0.2C301.5,544.3,301.6,544.3,301.6,544.2c0,0.1,0,0.1,0.1,0.2L301.6,544.2
			C301.7,544.2,301.6,544.2,301.6,544.2z M301.6,544.2C301.6,544.2,301.6,544.2,301.6,544.2h-0.2
			C301.5,544.3,301.6,544.3,301.6,544.2c0,0.1,0,0.1,0.1,0.2L301.6,544.2C301.7,544.2,301.6,544.2,301.6,544.2z M301.6,544.2
			C301.6,544.2,301.6,544.2,301.6,544.2h-0.2C301.5,544.3,301.6,544.3,301.6,544.2c0,0.1,0,0.1,0.1,0.2L301.6,544.2
			C301.7,544.2,301.6,544.2,301.6,544.2z M334.6,561.2C334.7,561.2,334.7,561.3,334.6,561.2L334.6,561.2L334.6,561.2z M301.6,544.2
			C301.6,544.2,301.6,544.2,301.6,544.2h-0.2C301.5,544.3,301.6,544.3,301.6,544.2c0,0.1,0,0.1,0.1,0.2L301.6,544.2
			C301.7,544.2,301.6,544.2,301.6,544.2z M334.6,560.8v0.4c0.1,0,0.1,0.1,0.1,0.1v-0.1h0.1L334.6,560.8z M301.6,544.2
			C301.6,544.2,301.6,544.2,301.6,544.2h-0.2C301.5,544.3,301.6,544.3,301.6,544.2c0,0.1,0,0.1,0.1,0.2L301.6,544.2
			C301.7,544.2,301.6,544.2,301.6,544.2z M334.6,561.2C334.7,561.2,334.7,561.3,334.6,561.2L334.6,561.2L334.6,561.2z M301.6,544.2
			C301.6,544.2,301.6,544.2,301.6,544.2h-0.2C301.5,544.3,301.6,544.3,301.6,544.2c0,0.1,0,0.1,0.1,0.2L301.6,544.2
			C301.7,544.2,301.6,544.2,301.6,544.2z M334.6,561.2C334.7,561.2,334.7,561.3,334.6,561.2L334.6,561.2L334.6,561.2z"/>
		<path d="M334.9,563.8c0.3,8.7-1.1,18.9-3.2,27.5c-2.2,9-17.1,5.2-23.3,10c-6.1-10.4,9-11.9,13.3-18.3c2.1-3.1,0.6-5.1-1.3-7.7
			c-3.4-4.5-4.1-9.1-5.9-14.3c-1.1-6.7-5.8-14.1-12.4-16.6c-2.3-2.3-7.3,1.1-9-0.1c-6.8-4.7-3.3-10.8,2.2-15
			c3.1-2.3,10.7-8.2,14.5-6.2c3.9,2.1,8.6,2.7,12.2,5.2C331.7,534.9,334.9,552.5,334.9,563.8z"/>
	</g>
</g>
</svg>
