<?xml version="1.0" encoding="utf-8"?>
<!-- Generator: Adobe Illustrator 18.1.0, SVG Export Plug-In . SVG Version: 6.00 Build 0)  -->
<!DOCTYPE svg PUBLIC "-//W3C//DTD SVG 1.1//EN" "http://www.w3.org/Graphics/SVG/1.1/DTD/svg11.dtd">
<svg version="1.1" xmlns="http://www.w3.org/2000/svg" xmlns:xlink="http://www.w3.org/1999/xlink" x="0px" y="0px"
	 viewBox="0 0 648 648" enable-background="new 0 0 648 648" xml:space="preserve">
<g id="Outline_Version">
	<g>
		<path d="M487.4,294.6c0-27.8-0.1-56.6-10.5-82.9c-12.8-32.3-40.9-52.1-73.6-61.3c-49-13.8-102.5-12.6-147.2,13
			c-46.7,26.8-83,72-102.9,121.7c-18.8,46.9-19.5,99-12.2,148.6c4.8,32.8,16.9,65.8,47.1,83.1c31.5,18,78.6,22.7,112.9,11.3
			c40.1-13.2,73.8-43.9,101.4-74.7c23.2-25.9,43.7-54.6,60.2-85.2C474.4,346.3,487.4,320.2,487.4,294.6z M270.1,525.6
			c-35.5,0-76.9-4.8-100.2-35c-23.2-30.2-24.3-73.8-25-110.1c-1-56.1,15.4-108.3,50-152.9c30.6-39.5,76-73.9,127.4-77.5
			c41.6-3,94.8,3.2,126.4,33.4c21.9,20.9,28.6,50.9,30.2,80.1c0.8,15.2,1.9,31.4-1.2,46.3c-5.2,25.3-17.7,49.2-31,71.2
			c-30.8,51-73.7,103.1-127.6,130.9C304.1,519.7,287.3,525.6,270.1,525.6z"/>
		<path d="M552.6,463.1c-16.8-4.6-29.4,41.2-12.4,45.8C557.1,513.6,569.5,467.5,552.6,463.1C552,462.9,554.1,463.5,552.6,463.1z
			 M550.9,487.2c-2.6,9.8-7.3,14.1-8.6,14.1c-6.3-2.5,1.3-30.6,8.3-30.6C551.8,471.4,553.4,477.9,550.9,487.2
			C548.2,497,553.4,477.9,550.9,487.2z"/>
		<path d="M583.4,469.1c-11.5-6.4-28.8,24.7-17.2,30.8C577.6,506.4,595,475.4,583.4,469.1C582.5,468.6,584.5,469.7,583.4,469.1z
			 M576.1,485.2c-2.1,3.7-4.2,5.9-5.5,6.9c0.5-5.5,4.1-11.9,8.4-15.2C578.9,478.8,578.1,481.7,576.1,485.2
			C574,489,578.1,481.7,576.1,485.2z"/>
		<path d="M506.9,530.5c14,0,14-33.5,2.2-37.3C493.8,488.2,491,530.5,506.9,530.5z M506.9,501.1c3.7,4.9,3.7,16.2,0,21.2
			C503.3,517.3,503.2,506.1,506.9,501.1C507.9,502.4,506,502.4,506.9,501.1z"/>
		<path d="M592.4,242.4c0-3.4-2.6-4.6-3.1-7.6c-0.8-4.9,1.6-11.8,6.4-14c4.7-2.2,7.1,7.9,8.6,11c7.8-27.2,8.7-54.8,6.7-83.1
			c-1.1-15.2-3.1-30.8-8.6-45.2c-3.3-8.8-13.7-29.6-24-16.1c-4.5,5.8-7.7,12.5-11.6,18.7c-4.7,7.4-10.6,14.3-14.2,22.3
			c-6.6,14.9-2.3,29.1,2.3,43.7c10.5,33.6-7.9,63.7-36.8,81.1c4.2-38.5,1.8-80.4-31.7-105.7c-30.2-22.9-71.6-28.1-108.2-30.2
			c16.1-23.4,41.4-17.1,65.5-21.1l-0.5,0.8c4.2-2.3,9.6-2.3,14.2-3.1l-5.1-1c12.5-5.5,23.7-13.2,33.8-22.4
			c5.7-5.2,33.2-6.3,22.8-18.3c-13.8-15.8-38.9-15.4-58.1-16.1c3.2,4.5,9.1,12.2-1.6,12.2c-10.3,0-5.1-7.5-2.2-12.3
			c-13.3,1.1-26.2,2.9-39.1,6.3c-16.7,4.4-33.2,12-50.3,14.5c-24.6,3.5-25.7,41.8-27.6,60.4c-69.9,4.7-133.9,39.3-177.6,93.8
			c-5.7,7.1-7.8,12.5-17.9,11.6c-6.6-0.6-10.3-5.4-12.3-11.4c-4.2-12.6-5.1-27.7-2.6-40.7c1.2-6,3.4-12.1,7.8-16.5
			c4.4-4.3,10.7-5.1,15.6-8.6c10.1-7.1,17.2-17.7,24.6-27.4c-9.5,2.1-21.7,4.4-14.2-10.4c3.2-6.4,10.5-14.7,18.4-14.7
			c4.5,0,5,5.7,6.2,9c7.2-11.1,14-23.2,23.3-32.6c5.9-5.9,32.8-15.4,29.2-25.5c-2.9-8.4-23.9-6.8-30.1-7c-30.7-1.3-62.5-3-90.2,12.5
			C85.8,62.9,70.7,85.6,58.2,110c4.2-0.9,17.6-4.7,17.6,3.4c0,11.3-15.1,2.1-18.5-1.1c-6.2,15.2-11.2,30.5-14.6,46.6l-4.3,26
			c-2.7,23.6-2.3,44.6,10.4,65.3c12.8,21,31.6,37.6,45,58.2c3.2,4.9,6.1,8.1,4.8,13.9c-1.6,6.7-2.8,13.4-3.9,20.2
			c-2,13.4-2.9,26.9-2.7,40.5c0.3,25.1,3.5,50.4,11.4,74.3c-25,7.8-55.1,19.1-64,46.4c-4.2,12.8-2.8,27.4-2.3,40.7
			c0.5,13.8,1.6,28,6.2,41.2c21.7,63.2,119.4-1.1,126.8-45.6c34.8,19.4,80.3,27.2,119.6,21.4c10.8-1.6,21.4-4.5,31.6-8.3
			c8.3-1.3,18.5,0.5,26.7,1.6c15.5,2,30.6,6.4,44.4,13.9c26,14,45.3,38.3,76.2,42.1c39.3,4.8,68.1-25.3,91-53.2
			c-3.5-0.5-8.7-0.2-11.3-3c-5.7-6.1-1.6-17.2,3.3-22.5c11.3-12.1,16.6-0.2,19.1,10.1c11.3-17.7,21.9-35.8,30.2-55.1
			c9.7-22.6,11.4-41.4,10.7-65.8c-0.3-9.4,2.6-61.1-15.4-61.1c-12.6,0-14.3,33.6-20.4,41.8c-13.7,18.3-34.7,32-51.9,46.8
			c-16.7,14.3-35.6,29.7-45.9,49.5c-7.6,14.6-50.5-8.8-60-13.7c47.9-51,86.1-115.6,94.3-185.8c15.8-3.6,33.2-6,46.9-15.4
			c16.8-11.6,28.7-26.6,32-31.5C593.4,248.4,592.6,245.5,592.4,242.4z M548.8,441.5c2.5,0,2.5,3.5,0,3.5
			C546.2,445,546.3,441.5,548.8,441.5z M566.6,192.8c0-18.5-13.1-36-9.1-54.5c2.1-9.7,8.7-17.1,14-25.2c4.5-6.9,8.2-17,14-22.6
			c5.1,2.4,8.6,12.8,10.3,17.6c3.3,9.4,5.1,19.4,6.3,29.3c2.9,24.3,4.1,51.3-0.8,75.4c-0.2-0.1-0.4-0.1-0.5-0.2
			c-15.5-5.1-26.4,23.6-14,32.2c-9.2,12.2-21.7,26.1-35.1,33.9c-11.5,6.7-25.5,8.8-38.3,11.7c1-7.4,0.3-25.7,6.8-29.3
			c9-5.1,17.3-11.6,24.4-19.1C556.8,228.9,566.6,211.4,566.6,192.8z M449.5,86.3l-3.2,5.4c-4.8-0.9-14.1-1.2-17.1-5.7
			C423.4,77.1,455.6,76.1,449.5,86.3z M338.1,116c1.4-14.3,1.6-42.8,17-50.3c3.9-1.9,8.8-2,13-3.1c7.3-1.9,14.4-4.3,21.6-6.6
			c14.7-4.7,29.7-9.2,45.1-11c1.4,15,28.6,14.7,29.3-0.5c24,1.6,33.3,7,37.9,11.6c-18.2,3-28.6,16.9-44.2,25.4
			c-5.7-19.5-46.3-9.2-35.1,8.6c-16.3-1.5-31.6,2.9-43.6,14.2c-3.8,3.6-7.3,7.8-9.7,12.4c-10.4-0.3-20.8-0.6-31.2-0.2L338.1,116z
			 M47.4,172.2c1.8,3.9,1.7,9.2,0,13.1C45.8,181.7,44,175.1,47.4,172.2z M44.6,211.4c0-5.2,0.3-11.2,0.8-17.6
			c12.2,4.1,12-18.8,9.2-24.8c-1-2.2-2.6-4.3-4.9-5.2c0.8-4.1,1.7-8.2,2.7-12.2c2.2-9,4.9-17.9,8.2-26.6c19.3,8.5,33-19.6,11.3-24.3
			c14.7-26.3,37.6-47.4,67.6-54.1c16.5-3.7,33.6-2.7,50.4-2.3c10.3,0.2,21.5-0.2,31.5,2.3c-8.4,5.9-18.2,9.7-25.6,17.1
			c-3.9,4-7.2,8.5-10.4,13c-1.5,2.2-3,4.4-4.5,6.6c-3.5,5.2-1.9,2.7-6.6,2c-17.4-2.6-45.6,33-23.7,42.1c-4,4.8-8.4,9.6-13.9,12.8
			c-5.1,2.9-10.4,3.9-14.7,8.1c-8.4,8.2-10.9,20.9-11.4,32.2c-0.8,18.8,2.2,51,27.5,49.9c-15.7,23.5-27.7,49.5-35.7,76.6
			C83.7,276.7,44.6,250.5,44.6,211.4z M74.5,603.5c-32.5,0-29.7-53.7-29.9-74.8c-0.1-17.1,3-31.6,16.7-43
			c12.7-10.6,29-16.1,44.5-20.9c11,29,30.4,54.4,56.7,71C160.3,563.9,115.1,603.5,74.5,603.5z M168.6,530.3
			c-53.4-32.6-69.8-96.4-68.8-155.4c1.1-61.6,26.3-122.5,66.9-168.6c36.5-41.4,86.1-69.7,140.6-78.6c28.9-4.7,58.7-4,87.8-1.2
			c25,2.5,51,7.1,73.5,19c58.8,31.3,42,101.1,35.4,155.2l0.1,0c-8.2,73.7-54,144-107.3,194c-30.7,28.8-68.8,54.2-111.5,59.4
			C246.6,558.8,202,550.8,168.6,530.3C162,526.2,195.4,546.7,168.6,530.3z M572.6,524.3c-17.9-21.3-50.8,23.7-27.3,38.1
			c-14.1,16.4-31.6,33.4-53,39.3c-19.8,5.5-40.7-1.3-57-12.6c-13.1-9.1-25-19.7-39.1-27.4c-17.8-9.7-37.7-14.4-57.9-15.9
			c27.7-13.6,52.4-33.3,73.9-55.2c20.7,10.5,46.4,24.8,70.2,16.7c9.7-25.4,36.7-44.5,56.8-61.3c5,18.7,31.3-3.3,13.6-11.4
			c10.4-8.8,22-17.8,29.9-29.1c7.8-11.1,6.6-25.9,12.9-37.4c2.4,1.3,3.2,5.9,3.7,8.2c2.5,10.7,3,21.9,3.6,32.8
			c0.9,17.3,3.1,36.1-1.6,53C595.3,484,584.4,504.9,572.6,524.3z"/>
		<path d="M582.4,422.2c-13-4.2-21.7,23.8-8.5,27.8C587.1,454.1,595.5,426.2,582.4,422.2C577.1,420.5,587.8,423.9,582.4,422.2z
			 M580.4,436.8c-1.2,4-3.5,5.7-4.1,5.8c-3-1.9,0.2-12.4,3.8-12.8C580.6,430.1,581.5,432.7,580.4,436.8
			C579.1,440.7,581.5,432.7,580.4,436.8z"/>
		<path d="M506.9,546.7c-14.5,0-14.5,22.5,0,22.5C521.5,569.2,521.4,546.7,506.9,546.7z M506.9,561.3c-4.4,0-4.4-6.8,0-6.8
			C511.3,554.6,511.3,561.3,506.9,561.3z"/>
		<path d="M119,91.7c12.3,0,28.6-24.7,10.9-24.6C117.6,67.1,101.3,91.7,119,91.7z M123.3,77.8c1.9-1.6,4.7-2.8,6.8-3.4
			c0.9,4.7-8,9-11.3,9.8C118.7,83.5,119.8,80.6,123.3,77.8C126,75.6,119.8,80.6,123.3,77.8z"/>
		<path d="M86.8,166.6c16.4,6.3,31.6-33.4,15.1-39.6C85.6,120.8,70.4,160.4,86.8,166.6C87.8,167,80,164.1,86.8,166.6z M89.9,145.1
			c2.6-6.9,7-10.7,9-10.7c5.9,4.8-1.4,24.9-9.2,24.9C88.3,158.8,86.8,153.2,89.9,145.1C92.5,138.2,86.8,153.2,89.9,145.1z"/>
		<path d="M103.3,207.3c-1-5.2-3.5-14-10.2-14c-13.1,0.3-8.4,31,3.2,31C104.4,224.1,104.3,212.9,103.3,207.3z M95.8,215
			c-2-3.6-2.7-8.2-2.1-12.3C95.6,206.2,96.4,211.1,95.8,215C95.1,213.7,96,213.5,95.8,215z"/>
		<path d="M75.3,175.9c-12.7,0-12.7,19.6,0,19.6C88,195.5,87.9,175.9,75.3,175.9z M73.4,185.2c0.4-2.2,3.8-1.7,3.8,0.5
			C77.2,188.2,73.3,187.9,73.4,185.2C73.6,184.4,73.2,188.4,73.4,185.2z"/>
		<path d="M583.3,194.5c11.7,0,11.8-31.1,0-31.1C571.5,163.4,571.5,194.5,583.3,194.5z M583.3,174.1c0.7,3.1,0.7,6.5,0,9.6
			C582.6,180.6,582.6,177.2,583.3,174.1C583.5,175.3,583,175.3,583.3,174.1z"/>
		<path d="M588.8,153.6l1-0.1c15.1-2.1,10.9-36.8-3.7-36.8l-1,0.1C570.2,118.9,574.2,153.6,588.8,153.6z M586.1,124.7
			c5.1,0.9,7.4,19.3,2.7,21.1C583.7,144.8,581.5,126.9,586.1,124.7C586.9,124.8,585.2,125.1,586.1,124.7z"/>
		<path d="M561.2,254.7c11.6,0,16.2-18.8,2.9-19.5C551.6,234.5,547.4,254.7,561.2,254.7z M561.4,243.7c1-0.8,2-1,3-0.6
			C567.1,246.6,556,248.3,561.4,243.7C562.1,243.2,560.2,244.7,561.4,243.7z"/>
		<path d="M367.5,106c13,0,13.1-25.4,0-25.4C354.3,80.6,354.4,106,367.5,106z M367.5,88.4c2.6,0,2.6,9.7,0,9.7
			C364.8,98.1,364.8,88.4,367.5,88.4z"/>
		<path d="M388.4,80.1c8.2,0,19.3-3.9,24.2-11c3.6-5.3,0.5-10.7-5.3-11.7c-8.5-1.5-19.4,2.7-25.4,8.7
			C375.2,72.8,379.8,80.1,388.4,80.1z M395.7,66.8c3.7-1.4,8.1-2,10-1.7c-4,4.7-12.7,7.8-18.8,7C388.2,70.7,391.1,68.5,395.7,66.8
			C399.4,65.4,391.1,68.5,395.7,66.8z"/>
		<path d="M107,556.2c-16.1,7.7-11.1,30.9,7.5,24.4c8.5-2.9,17.6-10.1,12.8-20C123.3,552.3,114.3,552.7,107,556.2
			C94.1,562.4,116.7,551.6,107,556.2z M120.2,568c-2.7,4-15.7,10.5-16,1.4C103.9,560.2,125.6,559.8,120.2,568
			C119.6,569,120.8,567.2,120.2,568z"/>
		<path d="M64.7,522.5c-17.9-1.1-19.8,32.8-1.2,32.8C80,555.3,81.6,523.7,64.7,522.5C64.3,522.5,69.5,522.8,64.7,522.5z M68.4,539.2
			c-0.6,8.2-3.5,8.2-4.9,8.2c-7.7,0.2-6.7-17.1,0.7-17.1C66,530.5,69,530.7,68.4,539.2C67.8,547.4,69,530.7,68.4,539.2z"/>
		<path d="M304.1,268.1c-12.1,3.2-24.2,6.5-36.4,9.7c-17.5,4.7-19.3,23.8-23.3,38.6c-4.1,15.3-8.3,28.2,4.5,41
			c9.3,9.3,19.9,24.6,32.4,29.8c13.4,5.5,33.1-3.8,46.1-7.3c7.2-1.9,14.1-3.9,18.9-10.2c4.3-5.5,5.4-13.2,7.2-19.8
			c4-15.1,13.8-35.5,0.6-48.6c-8.2-9.4-17.8-17.8-26.6-26.6C321.5,268.6,312.6,265.8,304.1,268.1z M352.9,322.4
			c-3.2,11.9-6.4,23.8-9.6,35.7c-3.8,14.1-21.2,15.2-33.2,18.4c-5,1.4-10.2,3.3-15.4,4.1c-8.7,2.3-14.5-3.1-20-8.7
			c-8.7-8.7-30.6-23.6-26.7-38c1.9-12,6.4-24,9.5-35.7c3.8-14.1,21.3-15.2,33.2-18.4c5-1.3,10.2-3.3,15.4-4.1
			c8.8-2.4,14.5,3.1,20,8.7C334.9,293.1,356.8,308,352.9,322.4z"/>
		<path d="M218.6,254.3c9.1,5.1,25.4,18.8,36.5,15.6c13.1-3.8,26.2-7.6,39.4-11.4c11.5-3.3,24-4.3,27.4-17.7
			c3.5-13.8,7-27.5,10.4-41.3c4.3-17.1-19.5-20.5-30.9-24.3c-5.9-2-12.7,0.9-18.4,2.4c-7.7,2.1-15.4,4.1-23.1,6.2
			c-10.8,2.9-18.8,17.6-25.4,25.7c-6.6,8-24.9,23.5-22.6,35.4C212.6,248.9,215.1,252.4,218.6,254.3z M220.8,238.7
			c7.5-9.2,15-18.3,22.5-27.5c6-7.3,11.4-17.8,20.9-20.4c7.6-2,15.1-4.1,22.7-6.1c3.9-1.1,8.5-3.2,12.6-1.8
			c10.2,3.5,27.7,4.7,24.3,18.4c-3.4,13.4-6.8,26.7-10.1,40.1c-2.1,8.2-25,10.7-31.4,12.5c-7.5,2.2-14.9,4.3-22.4,6.5
			c-3.4,1-8.2,3.3-11.6,1.4C242.9,258.8,213.7,247.3,220.8,238.7z"/>
		<path d="M180,378.7c10.8-4.4,21.7-8.8,32.5-13.2c10.7-4.3,12.1-22,14.8-31.6c3.7-13.3,7.3-26.5,11-39.8
			c4.1-14.9-13.5-22-23.5-28.9c-13.7-9.3-23.2,7-30.8,15.9c-7,8.4-20.2,19-23.1,30c-2.7,10-11.1,27-7.2,37.2
			C157.8,359.2,162.7,385.7,180,378.7z M169.5,368.1c-2.8-7.7-10.4-19.6-8.2-27.9c2.4-8.9,3.2-23.7,9.3-30.9
			c8.2-9.7,16.4-19.5,24.6-29.2c2.3-2.8,5.2-7.8,8.7-9.4c5.2-2.4,13.4,5.7,17.1,8.3c3.7,2.5,11.7,6,10.2,11.7c0,3-1.9,6.7-2.6,9.5
			c-4,14.3-7.9,28.6-11.9,42.9c-2.6,9.6-3.3,13.7-12.8,17.6C198.4,362.7,173,377.6,169.5,368.1z"/>
		<path d="M385.6,412.1c-8.6-6.9-17.7-17.1-27.8-21.7c-10.5-4.8-30.4,4.7-40.5,7.4c-10.4,2.8-29.2,4-32.6,16.4
			c-2.7,10.2-12.6,30.5-6.2,40.5c3.2,5,8.7,9.2,12.9,13.3c4.2,4.2,8.2,9.5,13.2,12.8c10,6.7,31.2-3.6,41.4-6.3
			c11.1-3,18.3-15.6,25.4-24C379,441.6,400.2,423.8,385.6,412.1z M381.5,426.5c-7.6,9-15.3,18-22.9,27.1c-7.7,9.1-11,12.4-22.4,15.4
			c-10,2.7-22.6,9.8-30.9,1.6c-5.7-5.7-22.8-17.1-20.3-26.4c1.8-6.6,4-30.8,11.9-32.8c11.7-3.1,23.5-6.2,35.2-9.3
			c8-2.1,18.6-7.9,25.8-2.1C362.5,403.7,388.1,418.7,381.5,426.5z"/>
		<path d="M435.5,373.8c7.6-8.7,10.9-24.1,15.3-34.7c6.3-15-6.4-23.1-16.1-32.8c-4.1-4.1-8.4-9.8-14.5-10.8
			c-5.9-1-13.2,2.3-18.8,3.8c-13.1,3.5-24.1,4.5-28.2,18.9c-4,14.3-8,28.5-12,42.8c-1.7,6.2-3.8,12.3,0.6,18.1
			c3.4,4.5,9.2,7.9,13.5,11.5c9.2,7.5,23.8,24.4,35.5,11.2C419,392.5,427.2,383.1,435.5,373.8z M396.5,397.8
			c-8.5-6.9-17.1-13.9-25.6-20.8c-7.5-6.1-0.8-18.3,1.4-26.1c3.2-11.6,6.5-23.2,9.7-34.8c2.3-8.1,25.1-10.1,31.9-11.9
			c9.9-2.6,17.9,10.5,24.2,16.7c3.1,3.1,8.9,7,6.8,12c-2.1,5-4.2,10-6.3,15c-3.9,9.4-6.8,18.1-13.5,25.8
			C421,378.3,404.1,404,396.5,397.8z"/>
		<path d="M253.4,458c12.8-3.4,14.5-27.8,17.3-38.3c4.1-15.5-8.1-21.9-18.6-30.6c-8.3-6.9-20.8-22.3-33-17.4
			c-12,4.9-23.9,9.7-35.9,14.6c-11.5,4.7-12.2,24.6-14.6,35c-1.6,7-3.9,14.2,2.1,20c3.7,3.7,9.2,6.2,13.6,9
			c8.5,5.4,23.8,19.8,34.9,16.8C230.6,464.1,242,461.1,253.4,458z M212.3,458.9c-9.5-6.1-19.1-12.2-28.6-18.3
			c-3.5-2.3-10.3-5-9.1-10.4c-0.2-4.6,2.5-10.7,3.5-15.2c2.6-11.1,2.2-19.2,13.2-23.7c6.8-2.8,13.6-5.5,20.4-8.3
			c3.7-1.5,8.8-4.8,12.9-4.8c3.6,0,7.1,4.2,9.6,6.3c5.9,4.9,11.7,9.7,17.6,14.6c3,2.5,8,5.3,10.3,8.6c4.4,3.6,0.1,12.7-1.1,17
			c-2.5,9.5-2.7,23.7-13.4,26.5c-6.9,1.8-13.8,3.7-20.7,5.5C223.4,457.9,216.1,461.3,212.3,458.9z"/>
		<path d="M341.4,198.5c-3.9,12.8-7.8,25.5-11.7,38.3c-4.3,14.2,7.4,21.5,16.5,30.3c7.7,7.5,22.1,27.8,34.3,27.8
			c6.2,0,13.1-3.2,18.9-4.8c6.1-1.7,15.2-2.8,20.2-7c4.4-3.7,5-9.7,6.2-15c2-8.5,3.9-17,5.9-25.5c3.2-13.7,7.9-24.2-3.2-35.3
			c-8.3-8.3-20.6-26.7-33.9-24.7c-13.9,2.1-27.8,4.2-41.6,6.3C347.6,189.7,343,193.2,341.4,198.5z M396.9,190.3
			c4.9-0.7,9.8,6.5,12.8,9.5c5.3,5.3,10.6,10.6,16,16c6.7,6.7-1.9,25.8-3.6,33.4c-2,8.8-2.2,26.9-12.4,29.9
			c-9.2,2.6-27.2,12.3-35.1,4.6c-10.7-10.4-21.4-20.7-32.1-31.1c-3.1-3-7.5-5.9-6-10.9c1.8-6,3.7-12,5.5-18.1
			c2.8-9.2,3.7-25.6,14.8-27.2C370.1,194.3,383.5,192.3,396.9,190.3z"/>
		<path d="M276,466.3c-6.9-8.5-18.1-3.6-26.8-1.5c-8.6,2.1-16,3-20.7,11.4c-4.2,7.5-13,18.1-9.8,27.1c3.2,8.8,16.1,11.3,23.8,14.3
			c7.4,2.9,12.8,2.5,20.5,0.9c7.3-1.5,19.4-1.7,25.1-7.4c5.8-5.8,6-22.5,0.9-28.8C285.4,476.6,280.3,471.5,276,466.3z M284.2,501.5
			c0,8.5-29.5,12.4-35.9,9.8c-5.5-2.1-14.3-3.7-18.8-7.4c-8.8-3.4,1.7-16.5,4.2-20.9c3.7-6.5,6.2-7.9,13.4-9.7
			c5-1.2,15.7-6.2,20.8-3.8c5.4,2.6,10,11.4,13.7,16C285.3,490.2,284.2,495.9,284.2,501.5z"/>
		<path d="M430.6,284c-2.8,14.7,14.8,24.2,26.8,20.9c15.7-2.5,14.9-22.8,10.2-33.3c-4.6-10.3-14.1-33.6-28.8-18.6
			C432.2,259.7,432.3,275.2,430.6,284z M442.9,261.5c1.3-6.7,9.3-5.3,11.5-0.3c2,4.5,4,9.1,6.1,13.6c2.6,5.8,5.9,20.7-4.3,22.4
			c-7,3.1-19.5-3.1-17.8-11.9C439.9,277.3,441.4,269.4,442.9,261.5z"/>
		<path d="M205.6,469.4c-6.4-5.6-19.6-11.1-26.5-3.2c-7.1,8.1,0.3,20.1,6.8,25.8c6.5,5.7,19.4,11.4,26.5,3.2
			C219.5,487.1,212.1,475.1,205.6,469.4z M206.5,490c-6.4,7.4-27.8-11.3-21.4-18.7C191.5,464,212.9,482.6,206.5,490
			C205.6,491,208.7,487.5,206.5,490z"/>
		<path d="M330.1,178.5c9.2,4.2,21.7,5.1,31.3,1.9c9.8-3.2,10.4-12.6,1.2-17.1c-9.3-4.6-22.2-5.5-32.1-2.3
			C320,164.4,320.5,174.2,330.1,178.5C334.1,180.3,323,175.3,330.1,178.5z M342.8,167.2c5.5,0,14.2,0.5,18.6,4.6
			c-6.8,4.8-24.7,3.7-30.9-2.1C331.8,168.7,335.7,167.2,342.8,167.2z"/>
		<path d="M452.3,246.7c12.1-0.4,11.4-27.6-0.7-27.6C439.8,219.6,440.4,246.7,452.3,246.7z M451.9,228.1c1.4,3.1,1.2,6.7,0.4,9.9
			C450.9,235.1,450.8,231.1,451.9,228.1C452.3,229.1,451.5,229.1,451.9,228.1z"/>
	</g>
</g>
<g id="Shape_Version" display="none">
	<g display="inline">
		<path d="M487.8,169.6c-32.3-38-98.9-38.8-144.1-38.1c-56.3,0.9-110.8,21.9-152.7,59.6c-45.3,40.8-75.5,98.6-83.2,159
			c-7.3,57.4,2.7,127.1,50.4,165.5c39.4,31.8,102.9,41.9,150.7,26.4c52.1-16.9,94.5-58.8,126.4-101.9c27.4-37,53.5-81.5,59.9-127.8
			c3.5-25.2,7.4-50.8,8.8-76.2C505.2,213.1,503.4,188,487.8,169.6 M269.2,536.9c-36.7,0-79.2-4.9-105-34.1
			c-24.6-27.9-28.5-68.9-30.1-104.4c-1.2-26.5-1.3-52.9,4.7-78.8c6.3-27.4,17.7-53.5,32.7-77.2c28.1-44.3,70.8-83.6,122.2-98
			c33.9-9.5,73.5-6.2,107.3,2.7c24.3,6.4,47.7,18.1,63.6,38c25,31.4,27.5,77.7,24.8,116.2C482,372.2,364,536.9,269.2,536.9z"/>
		<path d="M596.9,364.7c-4.9,0-6.3,10-7.2,13.3c-2.3,8.4-4,18.1-9,25.4c-7.7,11.5-19.7,20.5-30.1,29.3
			c-14.2,11.9-28.6,23.6-42.1,36.3c-11,10.4-23,22.1-28.8,36.4c-20.8,6.6-48.8-8.4-68.4-18.4c-26.9,27.8-57.7,50.8-90.2,63.4
			l0.2,0.4c24.5,0,49.2,3.7,71,15.2c14.7,7.7,27,18.8,40.6,28.2c14.1,9.7,29.5,15.2,46.8,15.2c29.9,0,55.2-25.6,72.7-47.1
			c-15.1-2.2-10.8-22.7-3.9-30.7c6.9-8.1,21.3-10.8,24.4,2.3c19-29.9,36.1-62.2,35.7-98.2C608.6,426.7,611,364.7,596.9,364.7z
			 M549.3,438.5c7.6,0,7.6,11.8,0,11.8C541.7,450.3,541.7,438.5,549.3,438.5z M507.3,498c9.1,0,9.1,29.9,0,29.9
			C498.2,528,498.2,498,507.3,498z M507.3,566.9c-9.5,0-9.5-14.8,0-14.8C516.8,552.1,516.8,566.9,507.3,566.9z M555.2,489.4
			c-1.4,5.4-5.1,16.1-11.9,17c-9.1,1.2-5.7-17.5-4.7-21.5c1.4-5.4,5.1-16.2,11.9-17.1C559.6,466.6,556.3,485.4,555.2,489.4
			C552.4,500,558.1,478.8,555.2,489.4z M580.3,488.4c-1.5,2.6-7.1,11.8-11.5,9.4c-4.4-2.4,0.5-12.1,1.9-14.7
			c1.5-2.6,7.1-11.8,11.5-9.4C586.6,476,581.8,485.8,580.3,488.4C576.6,495,584,481.7,580.3,488.4z M584.9,438.8
			c-3.8,12.4-15.7,8.8-12-3.7C576.7,422.7,588.6,426.4,584.9,438.8C583.2,444.5,586.6,433.1,584.9,438.8z"/>
		<path d="M161.9,38.9c-50.1,0-80.4,29.3-98.5,64.7c6.5-1.4,16.7,3.5,13.9,11.4c-2.8,8.1-15.1,8.7-20.6,3.3
			c-6.9,16.9-11.3,34.4-14.1,50.2c5.8-8,8,11.1,7.4,14.2c-1.7,8.9-8.1,8-9.5-0.5c-3.6,28.1-1.7,50.9,15.3,74.3
			c14.9,20.7,34.7,38.1,46.1,61.2c8.2-32.6,22.8-64.3,42.9-92.5c-9,1.6-19,2.2-24.7-6.4c-6.7-10-7.6-25.2-7.3-36.9
			c0.3-11.2,2.4-24.5,11.3-32.4c4.5-4,10.5-4.8,15.4-8.3c6.8-4.8,12.2-11.4,17.2-18c-14.9,3-10.8-15.3-5.9-22.4
			c3.7-5.3,21.9-21.4,26.9-8.7c8.3-12.8,16.2-26,29.4-34.3c5.6-3.6,12.3-6.3,17.3-10.8c4.6-4.2-2.9-5.7-6.1-6.2
			C199.8,38,180.4,38.9,161.9,38.9z M84.2,143c1.9-5,6.4-13.2,12.7-13.3c8.9-0.1,5.6,15.2,3.9,19.7c-1.9,5-6.4,13.2-12.7,13.3
			C79.1,162.8,82.5,147.4,84.2,143C87.6,134.1,80.8,152,84.2,143z M67.4,185.3c0-7.6,11.8-7.6,11.8,0
			C79.2,192.9,67.4,192.9,67.4,185.3z M97.6,207.8c0.3,1.9,1.1,15.1-4.4,12.1c-5.7-3.2-6.8-15.1-4.7-20.5
			C92.1,191.3,97.2,204.8,97.6,207.8C98.7,214.1,97.5,207,97.6,207.8z M126.4,82.9c-10.7,8.6-18.1-0.6-7.4-9.2
			C129.8,65,137.2,74.3,126.4,82.9C121.5,86.8,131.4,78.9,126.4,82.9z"/>
		<line stroke="#FFFFFF" stroke-width="1.5" stroke-miterlimit="10" x1="101.8" y1="317.9" x2="101.8" y2="317.8"/>
		<path d="M592.9,91.1c-10.2-14.2-18.7,10.8-23.7,18.5c-6.6,10.1-14.6,19.3-15.6,31.8c-0.9,10.5,3.1,20.4,6.1,30.3
			c6.8,22.2,2.3,42.6-12,60.8c-7.7,9.8-17.4,18.2-28.1,24.5c-2,1.1-3.9,2.2-6,3.2c-0.5,4-1,7.9-1.5,11.9c-1.1,7.9-2.2,15.7-3.1,23.6
			c15.1-3.4,32-5.6,45.5-13.6c15.2-9,29.8-25,39.4-39.6c-20,2.7,1.5-42.2,10.5-22.4c6.8-23.8,5.4-51.3,3.3-75.7
			C606.1,126.8,603.6,106,592.9,91.1z M566.4,248.9c-6.5,5.2-13.2-3.2-6.7-8.4C566.2,235.3,572.9,243.8,566.4,248.9
			C563.5,251.2,569.2,246.7,566.4,248.9z M584.1,190.1c-6.4,0-6.3-23.4,0-23.4C590.4,166.7,590.4,190.1,584.1,190.1z M590.1,149
			c-10.1,1.3-13.8-27.7-3.7-29.1C596.5,118.6,600.3,147.7,590.1,149C586.1,149.5,594.1,148.5,590.1,149z"/>
		<path d="M506.3,53.6c-6.2-7.1-18.1-13.5-47.5-14.6c10.1,14.8-28.6,15.7-19.2,0.2c-17.5,1.4-34.5,6.3-51.1,11.7
			c-6.9,2.2-13.8,4.6-20.9,6.5c-5,1.4-10.9,1.5-15.5,4c-17.5,9.7-17.6,41.4-19,58.6c12.8-0.8,25.6-0.4,38.4,0.1v-0.5
			c3.4-8.6,11.3-15.7,19.1-20.3c14.7-8.6,28.8-4.2,44.6-6.7c-11.1-2.2-14.5-13.9-2.3-17.8c6.7-2.1,27.3,1.3,20,12.5
			c13.7-6.1,23-17.5,35.7-24.3C492.3,61,511.6,59.7,506.3,53.6z M367.1,101.2c-8,0-8-17.7,0-17.7
			C375.1,83.5,375.1,101.2,367.1,101.2z M398.2,73.1c-3.1,1.1-14,4.6-15.9-0.4c-1.9-5.1,8.7-9.5,11.8-10.7c3.1-1.2,14-4.7,15.9,0.4
			C411.8,67.4,401.3,71.9,398.2,73.1z"/>
		<line stroke="#FFFFFF" stroke-width="1.5" stroke-miterlimit="10" x1="106.5" y1="460.9" x2="106.4" y2="460.9"/>
		<path d="M102.8,468.2c-21.6,6.8-48.9,16.2-56.4,40.3c-4.1,13.3-2.2,29.2-1.4,42.9c0.7,12.4,1.8,25.6,6.9,37
			c10.7,23.9,40.7,13.9,58.8,4.6c20-10.4,45.3-30.5,48.2-54.7C133.4,521.8,114.6,498.3,102.8,468.2 M70.3,541
			c-1.1,15.9-18.8,14.6-17.7-1.3C53.8,523.8,71.5,525.1,70.3,541z M114.5,577.3c-14.3,6.9-22-9.1-7.6-16
			C121.2,554.5,128.8,570.5,114.5,577.3z"/>
		<g>
			<path d="M222.2,245.5c5.3,2.9,10.5,5.9,15.8,8.8c3.2,1.8,9.5,7.1,13.6,5.9c13.1-3.8,26.2-7.6,39.3-11.4
				c10.1-2.9,18.7-2.5,21.4-13.3c3.3-13.1,6.6-26.3,9.9-39.4c0.5-1.9-0.6-3.9-2.5-4.5c-6.5-2.2-18.6-9.5-25.4-7.7
				c-11.4,3.1-22.7,6.1-34.1,9.2c-2.9,0.8-5.2,5.1-6.9,7.1c-4.6,5.6-9.1,11.2-13.7,16.8s-9.1,11.2-13.7,16.8c-1.6,1.9-6.3,6-5.6,8.9
				C220.4,243.6,220.9,244.8,222.2,245.5z"/>
			<path d="M267.4,473.6c-3.8-4.7-22.7,3.3-27.6,4.5c-4.2,1-14.5,19.1-13,23.2c2.3,5.3,17.2,8.1,22.2,10c6.2,2.4,16.9-2.2,23.1-3.5
				c2.9-0.6,9.3-0.7,9.3-5c0.8-2.2,0.6-8.4,0-10.7C281.4,486.5,270.8,477.7,267.4,473.6z"/>
			<path d="M344.9,177.6c4.1,0.3,19.9,0.8,20.3-6c0.5-6.9-15.2-8.4-19.2-8.7c-4.1-0.3-19.9-0.9-20.3,5.9
				C325.1,175.7,340.8,177.3,344.9,177.6C355.8,178.3,334,176.8,344.9,177.6z"/>
			<path d="M208.1,356.6c4.6-2,5.8-15.2,6.9-19.1c3.3-12,6.7-24.1,10-36.1c1.6-5.6,5.6-12.7-0.2-16.6c-4.6-3.1-18.2-16.6-23.4-10.5
				c-6.5,7.7-13.1,15.5-19.6,23.2c-4.1,4.9-11.4,10.7-13.1,17.2c-2.3,8.5-7.4,19.3-7.5,28.1c-1.9,5.9,6.5,19.6,8.6,25.2
				c0.7,2,3,3,5,2.2L208.1,356.6z"/>
			<path d="M215.2,458.7c10.7-2.9,21.5-5.8,32.2-8.6c8.7-2.3,9.4-19.5,11.4-27c0.8-2.9,4.3-10.4,1.2-13c-1.8-3.2-7.6-6.3-10.4-8.6
				c-5.4-4.5-10.9-9-16.3-13.6c-2.5-2-7.4-8-11.2-6.7c-3.2,0.1-7.9,3.2-10.8,4.4c-6.8,2.8-13.7,5.6-20.5,8.4
				c-10.3,4.2-9.6,11.8-12.1,22.4c-1.2,5-2.3,10-3.5,15.1c-1,4.3,5.4,6.7,8.1,8.5c6.4,4.1,12.7,8.1,19.1,12.2
				C205.3,453.9,211.3,459.6,215.2,458.7z"/>
			<path d="M197.8,477.9c-2.3-2-9.3-6.9-12.7-4.2c-4,4.9,8.4,14.2,11.5,15.6C208.1,494.3,202.8,482.3,197.8,477.9
				C193.8,474.4,200.7,480.4,197.8,477.9z"/>
			<path d="M353.9,400.4c-5.2-4-25.2,5-30.5,6.5c-5.1,1.3-28.1,3.7-29.8,10c-1.3,5-2.7,10-4,15.1c-1.1,4.2-4.4,10.8-4.1,15.2
				c-1.9,6.1,18.7,21.4,22.8,25.5c5,5,24.6-4,30.3-5.5c10.2-2.7,13.8-9.1,20.6-17.1c3.1-3.6,25.4-24.4,19.8-29.5
				c-2.1-3.7-9.3-7.4-12.6-10.1C362.3,407.2,358.1,403.8,353.9,400.4z"/>
			<path d="M452.2,261c-0.6-1.5-2.1-2.3-3.6-2.3c-5.9,0-6.6,18.3-7.4,22.2c-1,5.3,1.1,16.5,8.9,15.3
				C470.4,293,457.4,272.6,452.2,261z"/>
			<path d="M330.2,151.1c-51.6,0-98.3,32.8-130,71.2c-36.1,43.6-55.6,97.1-54.8,153.6c0.5,37.9,1.4,84.3,25.9,115.8
				c21.2,27.3,57.6,32.5,90,33.2c40,0.9,73.8-20.7,102.9-46.5c33.5-29.7,62-65.9,84.5-104.6c16.8-28.9,29.5-57.9,29.2-91.7
				c-0.2-29-1.9-60.5-18.9-85.2C431.2,156.7,374.7,151.1,330.2,151.1z M408.7,184.5c8.7,8.7,20.3,17.2,27.1,27.5
				c7,10.6-2.6,32.6-5.1,43.5c-2.8,12-3.3,28.8-17.3,32.8c-11.6,3.3-33.7,14.5-44.1,4.4c-10.5-8.3-19.7-19.1-29.3-28.4
				c-3.1-3-6.8-6-9.6-9.3c-7.1-6.9-4.3-15.1-1.9-23.1c2.4-7.8,4.8-15.7,7.2-23.5c1.8-6.1,3-13.7,8.1-18c4.7-4.1,11.4-4.2,17.3-5.1
				c8.9-1.3,17.7-2.7,26.6-4C395,180,402.6,178.3,408.7,184.5z M361.9,325.3c-3.2,12.2-6.5,24.4-9.7,36.6c-4.8,18-23,20.1-38.2,24.2
				c-15.9,4.3-30.7,9.9-44.3-3.6c-9.5-9.5-23-19.2-29.8-31c-8.1-14.3,1.4-34.6,5.3-49c4.4-16.2,12.1-24,28.3-28.3
				c14.5-3.9,34.7-13.4,49-5.3c12,6.9,21.9,20.6,31.6,30.3C361.1,306,364.6,315.6,361.9,325.3z M346.3,156.9
				c8.2,0.6,25.6,3.5,24.8,15c-0.7,11.3-18.6,12.4-26.6,11.5c-8.3-0.6-25.5-3.5-24.8-15C320.5,156.9,338.2,156.3,346.3,156.9
				C359.2,157.8,331,155.8,346.3,156.9z M211.9,232.3c7.1-8.7,14.2-17.3,21.3-26c6-7.4,14.1-21.9,24-24.5c11.4-3,22.7-6.1,34.1-9.1
				c10.1-2.7,22.9,4.6,32.3,7.8c7.8,2.6,12.2,10.8,10.2,18.7c-3.6,14.3-7.3,28.7-10.9,43c-3.9,15.3-23.7,16.8-36.7,20.5
				c-11,3.2-32.4,14-43.7,7.7C230.7,263.9,196,251.1,211.9,232.3z M158.7,372.1c-3.2-8.6-10-19.9-9.5-29.3c0.6-10.3,5.4-21.2,8-31.2
				c2.3-8.4,10-15.3,15.5-21.8c6.8-8,13.5-16.1,20.3-24.1c5-5.9,14.4-7.3,20.8-2.9c11.1,7.6,29.9,15.4,25.3,31.8
				c-4.4,15.9-8.8,31.9-13.3,47.8c-1.4,4.9-2.7,9.7-4.1,14.6c-2.2,7.9-8.8,10.3-15.6,13.1C193.7,375.3,166.4,392.4,158.7,372.1z
				 M163.5,428.9c2.5-10.7,4.2-22.2,7.7-32.6c3-13.2,26.8-18,37.4-22.4c6-2.4,12.3-6,19-4.3c5.6,1.5,10.5,6.8,14.8,10.4
				c8.8,7.3,29.2,18.6,30.7,31.2c1.4,11.7-6,26.8-9,37.9c-3.7,14-24,15.3-35.7,18.4c-6.3,1.7-13.6,4.7-20.1,2.1
				c-4.9-2-9.6-5.8-14-8.7C183.9,454.3,159.9,444.7,163.5,428.9z M201.5,502.4c-16.6,0-44.2-33.5-18.9-40.3
				C208.4,455.1,230.3,502.4,201.5,502.4z M293.3,502.8c0,12.4-11,15-20.6,17c-7.9,1.6-19.1,6-27,2.9c-7-2-13.8-5.4-20.6-8.1
				c-13.8-5.4-10.2-18.8-4.7-28.7c4.4-7.9,7.8-17.2,17.5-19.5c8.3-2,17.4-5.7,26-6.1c10.6-0.5,16.8,10.5,22.6,17.7
				C292.8,485.9,293.3,492.9,293.3,502.8z M388.7,433.7c-8.5,10-17,20.1-25.5,30.1c-3.4,4-6.9,9.4-11.7,11.9
				c-5.2,2.6-11.8,3.5-17.4,5c-6.1,1.6-12.2,3.3-18.4,4.9c-8.5,2.3-13.9-2.6-19.4-8.1c-10-10-25.8-20.2-21.6-36
				c3.1-11.4,4.7-35.3,18.5-38.9c12-4.4,25.2-6.7,37.5-9.9c12.5-3.3,22.5-7.9,33.7,1.1C375.1,402.1,402.7,417.3,388.7,433.7z
				 M454,336.9c-4.7,11.1-9.3,22.1-14,33.2c-4.6,11-16.2,20.3-23.9,29.1c-5.3,6-10.7,12.1-19.8,10c-6.1-1.4-11.4-7.2-16.1-11
				c-9.8-8-27-16.9-22.8-31.9c3.7-13.5,7.5-26.9,11.2-40.4c3.6-12.9,5.9-21.4,20.2-25.2c12.7-3.4,30.4-12.3,41.3-1.4
				C439,308.1,460.2,322.3,454,336.9z M470,297.1c-7.5,19.7-36.9,10.6-41.2-6.6c-1.8-7.3,1.7-17,3.1-24.1c1.7-9,4.3-18.7,15.4-19.6
				c-9-6.3-8.2-33.5,6.6-29.6c11.6,3,12.6,27.4,1,30.9c8.8,3.6,11.9,16.5,15.5,24.4C474.5,281.7,473.5,287.9,470,297.1z"/>
			<path d="M350.3,201c-3.8,12.4-7.6,24.8-11.4,37.3c-3.2,10.4,8.2,16.5,15.2,23.2c5.9,5.7,11.7,11.3,17.6,17c2.2,2.1,6,7.5,9.7,6.5
				c6.4-1.8,12.8-3.6,19.1-5.4c3.3-0.9,12.7-1.8,13.7-6.1c3-13,6.1-26.1,9.1-39.1c0.8-3.5,3.4-9.2,3-12.9c1.1-4.2-8.1-10.6-10.4-13
				c-5-5-10.1-10.1-15.1-15.1c-3-3-8.7-0.8-12.2-0.2c-8.1,1.2-16.2,2.4-24.4,3.7C361.2,197.2,351.5,197,350.3,201z"/>
			<path d="M452.4,242.7c6.8-0.2,6.2-20-0.6-19.8C445.1,223.1,445.7,242.9,452.4,242.7C455.1,242.6,449.8,242.7,452.4,242.7z"/>
			<path d="M420.6,306.5c-3-3-11.8,1.2-14.9,2c-6.2,1.7-12.4,3.3-18.6,5c-7.1,1.9-9.4,24.1-11,29.9c-1.5,5.4-11.4,26.8-5.8,31.4
				c9,7.4,18.1,14.8,27.1,22.2c2.4,1.9,4.1,0.8,5.2-0.5c6.9-7.9,13.8-15.7,20.8-23.6c5.3-6.1,7.5-11.9,10.7-19.4
				c2-4.9,12.4-21.1,7.5-25.9C434.7,320.6,427.6,313.5,420.6,306.5z"/>
			<path d="M309.6,277.2c-12.1,0-25.9,6.4-37.4,9.5c-14.5,3.9-15.2,17.9-18.6,30.6c-3.6,13.2-8.6,23.8,2.4,34.7
				c5.6,5.6,11.2,11.1,16.7,16.7c4.2,4.2,8.6,10,14.8,11c5.5,0.9,12.2-2,17.4-3.4c7.4-2,14.9-4,22.3-6c14.6-3.9,15.2-17.8,18.6-30.5
				c3.6-13.5,8.5-23.8-2.6-34.9C335.3,297,321.9,277.2,309.6,277.2z"/>
		</g>
	</g>
</g>
</svg>
