<?xml version="1.0" encoding="utf-8"?>
<!-- Generator: Adobe Illustrator 18.1.0, SVG Export Plug-In . SVG Version: 6.00 Build 0)  -->
<!DOCTYPE svg PUBLIC "-//W3C//DTD SVG 1.1//EN" "http://www.w3.org/Graphics/SVG/1.1/DTD/svg11.dtd">
<svg version="1.1" id="compass" xmlns="http://www.w3.org/2000/svg" xmlns:xlink="http://www.w3.org/1999/xlink" x="0px" y="0px"
	 viewBox="0 0 450 450" enable-background="new 0 0 450 450" xml:space="preserve">
<g id="comprose">
	<circle fill="none" stroke="#F5F5F5" stroke-width="5" stroke-miterlimit="10" cx="225" cy="225" r="131.3"/>
	<path fill="none" stroke="#F5F5F5" stroke-width="5" stroke-linecap="round" stroke-linejoin="round" stroke-miterlimit="10" d="
		M241.5,72.9c-3-0.3-6-0.6-9.1-0.7c-2.5-0.1-4.9-0.2-7.4-0.2s-5,0.1-7.4,0.2c-3,0.1-6.1,0.4-9.1,0.7C131.8,81.1,72,146.1,72,225
		c0,84.5,68.5,153,153,153s153-68.5,153-153C378,146.1,318.2,81.1,241.5,72.9z M225,356.3c-72.5,0-131.3-58.8-131.3-131.3
		S152.5,93.7,225,93.7S356.3,152.5,356.3,225S297.5,356.3,225,356.3z"/>
	<circle fill="none" stroke="#F5F5F5" stroke-width="5" stroke-miterlimit="10" cx="225" cy="225" r="131.3"/>
	<g>
		
			<line fill="none" stroke="#F5F5F5" stroke-width="5" stroke-linecap="round" stroke-linejoin="round" stroke-miterlimit="10" x1="225" y1="93.7" x2="225.1" y2="111.4"/>
		
			<line fill="none" stroke="#F5F5F5" stroke-width="5" stroke-linecap="round" stroke-linejoin="round" stroke-miterlimit="10" x1="317.3" y1="132" x2="304.5" y2="144.7"/>
		
			<line fill="none" stroke="#F5F5F5" stroke-width="5" stroke-linecap="round" stroke-linejoin="round" stroke-miterlimit="10" x1="356" y1="224.5" x2="338" y2="224.5"/>
		
			<line fill="none" stroke="#F5F5F5" stroke-width="5" stroke-linecap="round" stroke-linejoin="round" stroke-miterlimit="10" x1="318" y1="317.3" x2="305.3" y2="304.5"/>
		
			<line fill="none" stroke="#F5F5F5" stroke-width="5" stroke-linecap="round" stroke-linejoin="round" stroke-miterlimit="10" x1="225.5" y1="356" x2="225.5" y2="338"/>
		
			<line fill="none" stroke="#F5F5F5" stroke-width="5" stroke-linecap="round" stroke-linejoin="round" stroke-miterlimit="10" x1="132.7" y1="318" x2="145.5" y2="305.3"/>
		
			<line fill="none" stroke="#F5F5F5" stroke-width="5" stroke-linecap="round" stroke-linejoin="round" stroke-miterlimit="10" x1="94" y1="225.5" x2="112" y2="225.5"/>
		
			<line fill="none" stroke="#F5F5F5" stroke-width="5" stroke-linecap="round" stroke-linejoin="round" stroke-miterlimit="10" x1="132" y1="132.7" x2="144.7" y2="145.5"/>
	</g>
	<g>
		
			<line fill="none" stroke="#F5F5F5" stroke-width="5" stroke-linecap="round" stroke-linejoin="round" stroke-miterlimit="10" x1="164.6" y1="121.3" x2="159.1" y2="111.8"/>
		
			<line fill="none" stroke="#F5F5F5" stroke-width="5" stroke-linecap="round" stroke-linejoin="round" stroke-miterlimit="10" x1="255.6" y1="109" x2="258.4" y2="98.3"/>
		
			<line fill="none" stroke="#F5F5F5" stroke-width="5" stroke-linecap="round" stroke-linejoin="round" stroke-miterlimit="10" x1="328.7" y1="164.6" x2="338.2" y2="159.1"/>
		
			<line fill="none" stroke="#F5F5F5" stroke-width="5" stroke-linecap="round" stroke-linejoin="round" stroke-miterlimit="10" x1="341" y1="255.6" x2="351.7" y2="258.4"/>
		
			<line fill="none" stroke="#F5F5F5" stroke-width="5" stroke-linecap="round" stroke-linejoin="round" stroke-miterlimit="10" x1="285.4" y1="328.7" x2="290.9" y2="338.2"/>
		
			<line fill="none" stroke="#F5F5F5" stroke-width="5" stroke-linecap="round" stroke-linejoin="round" stroke-miterlimit="10" x1="194.4" y1="341" x2="191.6" y2="351.7"/>
		
			<line fill="none" stroke="#F5F5F5" stroke-width="5" stroke-linecap="round" stroke-linejoin="round" stroke-miterlimit="10" x1="121.3" y1="285.4" x2="111.8" y2="290.9"/>
		
			<line fill="none" stroke="#F5F5F5" stroke-width="5" stroke-linecap="round" stroke-linejoin="round" stroke-miterlimit="10" x1="109" y1="194.4" x2="98.3" y2="191.6"/>
	</g>
	<g>
		
			<line fill="none" stroke="#F5F5F5" stroke-width="5" stroke-linecap="round" stroke-linejoin="round" stroke-miterlimit="10" x1="120.8" y1="165.4" x2="111.3" y2="159.9"/>
		
			<line fill="none" stroke="#F5F5F5" stroke-width="5" stroke-linecap="round" stroke-linejoin="round" stroke-miterlimit="10" x1="193.5" y1="109.2" x2="190.6" y2="98.6"/>
		
			<line fill="none" stroke="#F5F5F5" stroke-width="5" stroke-linecap="round" stroke-linejoin="round" stroke-miterlimit="10" x1="284.6" y1="120.8" x2="290.1" y2="111.3"/>
		
			<line fill="none" stroke="#F5F5F5" stroke-width="5" stroke-linecap="round" stroke-linejoin="round" stroke-miterlimit="10" x1="340.8" y1="193.5" x2="351.4" y2="190.6"/>
		
			<line fill="none" stroke="#F5F5F5" stroke-width="5" stroke-linecap="round" stroke-linejoin="round" stroke-miterlimit="10" x1="329.2" y1="284.6" x2="338.7" y2="290.1"/>
		
			<line fill="none" stroke="#F5F5F5" stroke-width="5" stroke-linecap="round" stroke-linejoin="round" stroke-miterlimit="10" x1="256.5" y1="340.8" x2="259.4" y2="351.4"/>
		
			<line fill="none" stroke="#F5F5F5" stroke-width="5" stroke-linecap="round" stroke-linejoin="round" stroke-miterlimit="10" x1="165.4" y1="329.2" x2="159.9" y2="338.7"/>
		
			<line fill="none" stroke="#F5F5F5" stroke-width="5" stroke-linecap="round" stroke-linejoin="round" stroke-miterlimit="10" x1="109.2" y1="256.5" x2="98.6" y2="259.4"/>
	</g>
	
		<polygon fill="none" stroke="#F5F5F5" stroke-width="5" stroke-linecap="round" stroke-linejoin="round" stroke-miterlimit="10" points="
		225,165.4 230.8,195.8 247.8,170 241.5,200.2 267.1,182.9 249.8,208.5 280,202.2 254.2,219.2 284.6,225 254.2,230.8 280,247.8 
		249.8,241.5 267.1,267.1 241.5,249.8 247.8,280 230.8,254.2 225,284.6 219.2,254.2 202.2,280 208.5,249.8 182.9,267.1 200.2,241.5 
		170,247.8 195.8,230.8 165.4,225 195.8,219.2 170,202.2 200.2,208.5 182.9,182.9 208.5,200.2 202.2,170 219.2,195.8 	"/>
</g>
<g id="needle">

		<animateTransform
			attributeName="transform"
			begin="0s"
			dur="750ms"
			type="rotate"
			from="0 225 225"
			to="360 225 225"
			repeatCount="indefinite" 
		/>
	
		<polygon fill="#F5F5F5" stroke="#F5F5F5" stroke-width="6" stroke-linecap="round" stroke-linejoin="round" stroke-miterlimit="10" points="
		224.2,328.7 209.4,225 240.6,225 	"/>
	
		<polygon fill="#FA8072" stroke="#F5F5F5" stroke-width="6" stroke-linecap="round" stroke-linejoin="round" stroke-miterlimit="10" points="
		225.8,121.3 240.6,225 225,229 209.4,225 	"/>
</g>
<g id="handle">
	
		<path fill="none" stroke="#F5F5F5" stroke-width="4.7344" stroke-linecap="round" stroke-linejoin="round" stroke-miterlimit="10" d="
		M106.9,87.7c-4.8-0.2-9.8,1.6-13.4,5.3s-5.5,8.6-5.3,13.4c-6.1,0.7-12.5-1.4-17.2-6c-8.2-8.2-8.2-21.6,0-29.8
		c8.2-8.2,21.6-8.2,29.8,0C105.6,75.2,107.6,81.6,106.9,87.7z"/>
	<path fill="none" stroke="#F5F5F5" stroke-width="5" stroke-linecap="round" stroke-linejoin="round" stroke-miterlimit="10" d="
		M123.1,99.3c-1.2,1-2.4,2-3.6,3c-3,2.5-5.9,5.2-8.7,8c-2.8,2.8-5.5,5.7-8,8.7c-1,1.2-2,2.4-3,3.6c-2.3-0.9-4.4-2.2-6.3-4.1
		c-1.4-1.4-2.5-2.9-3.3-4.5c-1.2-2.2-1.8-4.7-2-7.1c0-0.2,0-0.3,0-0.5c-0.2-4.8,1.6-9.8,5.3-13.4s8.6-5.5,13.4-5.3
		c0.2,0,0.3,0,0.5,0c2.5,0.2,4.9,0.8,7.1,2c1.6,0.8,3.1,1.9,4.5,3.3C120.8,94.8,122.2,97,123.1,99.3z"/>
	<path fill="none" stroke="#F5F5F5" stroke-width="5" stroke-linecap="round" stroke-linejoin="round" stroke-miterlimit="10" d="
		M114.5,89.7c-2.2-1.2-4.7-1.8-7.1-2c-0.2,0-0.3,0-0.5,0c-4.8-0.2-9.8,1.6-13.4,5.3s-5.5,8.6-5.3,13.4c0,0.2,0,0.3,0,0.5
		c0.2,2.5,0.8,4.9,2,7.1c-9.1,1.5-18.8-1.2-25.8-8.3c-11.6-11.6-11.6-30.3,0-41.9s30.3-11.6,41.9,0C113.3,70.9,116,80.6,114.5,89.7z
		"/>
	<path fill="none" stroke="#F5F5F5" stroke-width="5" stroke-linecap="round" stroke-linejoin="round" stroke-miterlimit="10" d="
		M122.5,111.5c-1.8,1.7-3.6,3.4-5.4,5.1s-3.5,3.5-5.1,5.4c-3.3,0.3-6.7-0.7-9.3-3.1c2.5-3,5.2-5.9,8-8.7c2.8-2.8,5.7-5.5,8.7-8
		C121.9,104.9,122.9,108.3,122.5,111.5z"/>
</g>
</svg>
