<?xml version="1.0" encoding="utf-8"?>
<!-- Generator: Adobe Illustrator 18.1.0, SVG Export Plug-In . SVG Version: 6.00 Build 0)  -->
<!DOCTYPE svg PUBLIC "-//W3C//DTD SVG 1.1//EN" "http://www.w3.org/Graphics/SVG/1.1/DTD/svg11.dtd">
<svg version="1.1" id="Layer_1" xmlns="http://www.w3.org/2000/svg" xmlns:xlink="http://www.w3.org/1999/xlink" x="0px" y="0px"
	 viewBox="723 0 100 100" enable-background="new 723 0 100 100" xml:space="preserve">
<path fill="#FA8072" d="M773,22c-15.5,0-28,12.5-28,28s12.5,28,28,28s28-12.5,28-28C801,34.6,788.5,22,773,22z M781.2,55.5
	c-3.8,4.9-7.1,7.4-9.8,7.4c-1.6,0-3-1.5-4.1-4.4c-0.8-2.8-1.5-5.6-2.3-8.2c-0.8-3-1.8-4.4-2.6-4.4c-0.1,0-1,0.5-2.2,1.4l-1.4-1.6
	c1.4-1.1,2.8-2.5,4.1-3.6c1.8-1.6,3.3-2.5,4.1-2.5c2.2-0.1,3.4,1.4,4,4.4c0.5,3.4,1,5.6,1.1,6.5c0.7,2.8,1.4,4.3,2.2,4.3
	c0.7,0,1.5-1,2.6-2.8c1.1-1.8,1.8-3.3,1.8-4.3c0.1-1.6-0.5-2.3-1.8-2.3c-0.7,0-1.4,0.1-2.2,0.5c1.4-4.4,4-6.6,8-6.6
	c3,0,4.3,1.9,4.1,5.6C786.9,47,785.1,50.7,781.2,55.5z"/>
</svg>
