<?xml version="1.0" encoding="utf-8"?>
<!-- Generator: Adobe Illustrator 18.1.0, SVG Export Plug-In . SVG Version: 6.00 Build 0)  -->
<!DOCTYPE svg PUBLIC "-//W3C//DTD SVG 1.1//EN" "http://www.w3.org/Graphics/SVG/1.1/DTD/svg11.dtd">
<svg version="1.1" id="Layer_1" xmlns="http://www.w3.org/2000/svg" xmlns:xlink="http://www.w3.org/1999/xlink" x="0px" y="0px"
	 viewBox="200 0 100 100" enable-background="new 200 0 100 100" xml:space="preserve">
<g>
	<path fill="#FA8072" d="M257.7,48.1c-0.8,0-1.5,0.3-1.9,0.8c-0.5,0.5-0.8,0.3-0.8,1.9h5.8c0-1.6-0.3-1.6-0.8-2.2
		C259.2,48.4,258.5,48.1,257.7,48.1z"/>
	<path fill="#FA8072" d="M245.6,47.4c0.5-0.3,0.7-0.7,0.7-1.5c0-0.8-0.3-1.1-1-1.5c-0.5-0.1-1.1-0.1-1.9-0.1H239v3.3h4.8
		C244.4,47.5,245.1,47.5,245.6,47.4z"/>
	<path fill="#FA8072" d="M245.6,51.1c-0.3-0.1-1-0.3-1.8-0.3H239v4.9h4.8c0.8,0,1.4-0.3,1.8-0.5c0.8-0.3,1.1-1.1,1.1-2.3
		C246.6,52.2,246.2,51.5,245.6,51.1z"/>
	<path fill="#FA8072" d="M250,22c-15.5,0-28,12.5-28,28s12.5,28,28,28s28-12.5,28-28S265.5,22,250,22z M253.8,42.6h8.2v1.6h-8.2
		V42.6z M249.5,55.9c-0.3,0.5-0.7,1-1.1,1.4c-0.5,0.5-1.1,1-1.9,1.1c-0.8,0.3-1.6,0.7-2.5,0.7h-8.2V40.9h8.8c2.2,0,3.6,0.7,4.4,1.9
		c0.5,0.7,0.8,1.6,0.8,2.6c0,1-0.3,1.9-0.8,2.6c-0.3,0.3-0.7,0.7-1.4,1c0.8,0.3,1.5,0.8,1.9,1.5c0.5,0.7,0.7,1.5,0.7,2.5
		C250.1,54.3,250,55.1,249.5,55.9z M264,52.5h-9.4c0,1.6,0.5,2.5,1.4,3c0.5,0.3,1.1,0.7,1.8,0.7c0.8,0,1.4-0.5,1.8-0.8
		c0.3-0.1,0.5,0.5,0.7-1.1h3.4c-0.1,1.6-0.5,1.8-1.4,2.6c-1.1,1.4-2.8,1.9-4.8,1.9c-1.6,0-3.2-0.5-4.4-1.5c-1.4-1-1.9-2.8-1.9-5.1
		c0-2.2,0.7-4,1.8-5.1c1.1-1.1,2.6-1.8,4.7-1.8c1.1,0,2.2,0.1,3,0.7c0.8,0.3,1.6,1,2.2,1.9c0.5,0.8,0.8,1.5,1,2.5
		C264,50.8,264,52.5,264,52.5z"/>
</g>
</svg>
