<?xml version="1.0" encoding="utf-8"?>
<!-- Generator: Adobe Illustrator 18.1.0, SVG Export Plug-In . SVG Version: 6.00 Build 0)  -->
<!DOCTYPE svg PUBLIC "-//W3C//DTD SVG 1.1//EN" "http://www.w3.org/Graphics/SVG/1.1/DTD/svg11.dtd">
<svg version="1.1" id="Layer_1" xmlns="http://www.w3.org/2000/svg" xmlns:xlink="http://www.w3.org/1999/xlink" x="0px" y="0px"
	 viewBox="331 0 100 100" enable-background="new 331 0 100 100" xml:space="preserve">
<path fill="#FA8072" d="M381,22c-15.5,0-28,12.5-28,28s12.5,28,28,28s28-12.5,28-28S396.5,22,381,22z M387.6,62.5
	c0,0.5-1.6,1-2.6,1.1c-1,0.1-1.6,0.3-2.8,0.3c-1.4,0-2.3-0.1-3.3-0.5c-1-0.3-1.8-0.8-2.5-1.4c-0.7-0.7-1.4-1.4-1.5-1.9
	c-0.3-0.7-0.5-1.6-0.5-3V46.7h-3.3v-3.2c1.6-0.3,2.3-0.8,3.2-1.5c0.8-0.7,1.5-1.8,1.9-2.8c0.5-1,1-2.3,1.1-4h3.6v6.6h6.6v4.9H381v8
	c0,1.6,0.1,2.6,0.3,3.2c0.1,0.5,0.5,0.8,1,1.1c0.7,0.3,0.7,0.5,1.5,0.5c1.5,0,3.6-0.5,3.6-1.4v4.4H387.6z"/>
</svg>
