<?xml version="1.0" encoding="utf-8"?>
<!-- Generator: Adobe Illustrator 18.1.0, SVG Export Plug-In . SVG Version: 6.00 Build 0)  -->
<!DOCTYPE svg PUBLIC "-//W3C//DTD SVG 1.1//EN" "http://www.w3.org/Graphics/SVG/1.1/DTD/svg11.dtd">
<svg version="1.1" id="Layer_1" xmlns="http://www.w3.org/2000/svg" xmlns:xlink="http://www.w3.org/1999/xlink" x="0px" y="0px"
	 viewBox="460 0 100 100" enable-background="new 460 0 100 100" xml:space="preserve">
<path fill="#FA8072" d="M510,22c-15.5,0-28,12.5-28,28s12.5,28,28,28s28-12.5,28-28S525.5,22,510,22z M521.3,45.7c0,0.1,0,0.5,0,0.8
	c0,7.6-5.8,16.3-16.3,16.3c-3.3,0-6.3-1-8.9-2.6c0.5,0,1,0,1.4,0c2.6,0,5.1-1,7.1-2.5c-2.5,0-4.7-1.6-5.5-4c0.3,0,0.7,0.1,1.1,0.1
	s0.8,0,1.4-0.1c-2.6-0.5-4.8-2.8-4.8-5.6l0,0c0,0.5,1.8,0.7,2.8,0.7c-1.5-1-2.5-2.8-2.5-4.8c0-1,0.3-1.9,0.8-3
	c2.8,3.4,7.1,5.8,11.8,6.1c-0.1-0.5-0.1-0.8-0.1-1.4c0-3.2,2.6-5.8,5.8-5.8c1.6,0,3.2,0.7,4.3,1.8c1.4-0.3,2.5-0.7,3.6-1.4
	c-0.5,1.4-1.4,2.5-2.5,3.2c1.1-0.1,2.3-0.5,3.3-1C523.3,43.7,522.4,44.9,521.3,45.7z"/>
</svg>
