<?xml version="1.0" encoding="utf-8"?>
<!-- Generator: Adobe Illustrator 18.1.0, SVG Export Plug-In . SVG Version: 6.00 Build 0)  -->
<!DOCTYPE svg PUBLIC "-//W3C//DTD SVG 1.1//EN" "http://www.w3.org/Graphics/SVG/1.1/DTD/svg11.dtd">
<svg version="1.1" id="Layer_1" xmlns="http://www.w3.org/2000/svg" xmlns:xlink="http://www.w3.org/1999/xlink" x="0px" y="0px"
	 viewBox="590 0 100 100" enable-background="new 590 0 100 100" xml:space="preserve">
<g>
	<path fill="#FA8072" d="M640,54.9c2.8,0,4.9-2.2,4.9-4.9c0-1.1-0.3-2.2-1-2.8c-0.8-1.4-2.3-1.9-4-1.9c-1.7,0-3.2,0.8-4,1.9
		c-0.7,0.8-1,1.8-1,2.8C635.1,52.8,637.4,54.9,640,54.9z"/>
	<polygon fill="#FA8072" points="649.9,43.9 649.9,39.8 649.9,39.3 649.8,39.3 645.8,39.3 645.5,43.9 	"/>
	<path fill="#FA8072" d="M647.7,49.9c0,4.3-3.4,7.7-7.7,7.7s-7.7-3.6-7.7-7.7c0-1,0.1-3,0.5-3h-4.3v11.8c0,1.5,1.5,1.4,3,1.4h17.2
		c1.5,0,3,0.1,3-1.4V46.7h-4.4C647.4,46.7,647.7,48.9,647.7,49.9z"/>
	<path fill="#FA8072" d="M640,22c-15.5,0-28,12.5-28,28s12.5,28,28,28s28-12.5,28-28S655.5,22,640,22z M653.2,47.2v11.5
		c0,3-1.6,4.7-4.7,4.7h-17.2c-3,0-6.3-1.6-6.3-4.7V47.2v-5.8c0-3,3.3-6.3,6.3-6.3h17.2c3,0,4.7,3.3,4.7,6.3V47.2z"/>
</g>
</svg>
