<?xml version="1.0" encoding="utf-8"?>
<!-- Generator: Adobe Illustrator 18.1.0, SVG Export Plug-In . SVG Version: 6.00 Build 0)  -->
<!DOCTYPE svg PUBLIC "-//W3C//DTD SVG 1.1//EN" "http://www.w3.org/Graphics/SVG/1.1/DTD/svg11.dtd">
<svg version="1.1" id="Layer_1" xmlns="http://www.w3.org/2000/svg" xmlns:xlink="http://www.w3.org/1999/xlink" x="0px" y="0px"
	 viewBox="364.1 93.3 231.8 373.3" enable-background="new 364.1 93.3 231.8 373.3" xml:space="preserve">
<g id="fox">
	<path d="M412.4,204.4l65.5,52.3c1.1,0.9,2.8,0.9,4.1,0l65.5-52.3l7.8-6.2l28-22.4L480,93.3l-103.4,82.5l28,22.4L412.4,204.4z
		 M480,105.8l87.7,70l-20.2,16.1L480,137.9l-67.6,53.9l-20.2-16.1L480,105.8z"/>
	<path d="M590.9,189.8l-57.3,45.7l0,0L480,278.3l-53.6-42.6l-4.7-3.7l-52.5-41.8c-2.1-1.7-5.2-0.2-5.2,2.6v180.7l1.9,3.9l79.7,63.7
		l31.4,25c0.2,0.2,0.2,0.2,0.4,0.4c0.7,0.6,1.7,0.7,2.6,0.7c0.9,0,1.9-0.2,2.6-0.7c0.2-0.2,0.2-0.2,0.4-0.4l10.3-8.2l21.1-16.8
		l79.7-63.7l1.9-3.9V192.8C596.1,189.7,592.9,188.2,590.9,189.8z M373.8,208.3c0-0.9,1.1-1.5,1.9-0.9l35.3,28.2l-37.1,29.7V208.3z
		 M435.4,366.1c0,0-1.7,0.2-4.1,0.2c-2.4,0.2-5.8-2.4-9-2.2c-3.4-0.2-6.5,2.4-9,2.2c-2.4,0-4.1-0.2-4.1-0.2v-0.9
		c0,0,1.7-2.8,4.1-4.9c1.3-1.1,2.6-1.9,4.3-2.6c1.5-0.6,3.2-0.9,4.9-0.9c1.7,0,3.4,0.4,4.9,0.9c0.7,0.2,1.5,0.7,2.2,1.1
		c0.7,0.4,1.3,0.9,2.1,1.5c2.4,1.9,4.1,4.7,4.1,4.7v1.1H435.4z M487.3,449.7l-7.3,5.8l-7.3-5.8l-16.2-13.1l10.3-8.2l6.2-4.9l3.7-3
		c2.1-1.7,4.9-1.7,6.9,0l3.7,3l6.3,4.9l10.3,8.2L487.3,449.7z M550.7,366.1c0,0-1.7,0.2-4.1,0.2c-2.4,0.2-5.8-2.4-9-2.2
		c-3.4-0.2-6.5,2.4-9,2.2c-2.4,0-4.1-0.2-4.1-0.2v-0.9c0,0,1.7-2.8,4.1-4.9c1.3-1.1,2.6-1.9,4.1-2.6c1.5-0.6,3.2-0.9,4.9-0.9
		s3.2,0.4,4.9,0.9c0.7,0.2,1.5,0.7,2.2,1.1s1.3,0.9,1.9,1.5c2.4,1.9,4.1,4.7,4.1,4.7V366.1z M516.6,349.6c-0.4,0-0.7,0.2-0.9,0.7
		l-19.4,67.9l-6.2-4.9l20.2-70.4c0.2-0.4,0.6-0.7,0.9-0.7h35.5L485,293.3c-3-2.4-7.1-2.4-10.1,0l-61.6,49.1h35.3
		c0.4,0,0.7,0.4,0.9,0.7l20.3,70.6l-6.3,4.9l-19.4-68.1c-0.2-0.4-0.6-0.7-0.9-0.7h-50.8l83.6-66.6c2.2-1.9,5.6-1.9,7.8,0l83.6,66.6
		L516.6,349.6L516.6,349.6z M586.2,265.3l-37.1-29.7l35.3-28.2c0.7-0.6,1.9,0,1.9,0.9V265.3z"/>
</g>
<style type="text/css" media="screen">  
	<![CDATA[  
	#fox {  
		transition: .5s;  
		-webkit-transition: .5s;  
		-moz-transition: .5s;  
		-ms-transition: .5s;  
		-o-transition: .5s;  
	}  
	svg:hover #fox {  
		fill: #708090 ;  
	}  
	]]>  
</style>

</svg>
