<?xml version="1.0" encoding="utf-8"?>
<!-- Generator: Adobe Illustrator 18.1.1, SVG Export Plug-In . SVG Version: 6.00 Build 0)  -->
<!DOCTYPE svg PUBLIC "-//W3C//DTD SVG 1.1//EN" "http://www.w3.org/Graphics/SVG/1.1/DTD/svg11.dtd">
<svg version="1.1" id="Layer_1" xmlns="http://www.w3.org/2000/svg" xmlns:xlink="http://www.w3.org/1999/xlink" x="0px" y="0px"
	 width="141.8px" height="216px" viewBox="0 0 141.8 216" enable-background="new 0 0 141.8 216" xml:space="preserve">
<path d="M70.9,0L7.8,50.3L24.9,64l4.8,3.8l40,31.9c0.7,0.6,1.8,0.6,2.5,0l40.1-31.9L117,64l17.1-13.6L70.9,0z M112.2,60.2L70.9,27.3
	L29.7,60.2l-12.3-9.8L70.9,7.6l53.6,42.7L112.2,60.2z M138.6,59l-35,28h0l-32.6,26l-32.7-26l-2.9-2.3L3.2,59c-1.3-1-3.2-0.1-3.2,1.6
	v98.3l1.1,2.3L49.8,200L69,215.3c0.1,0.1,0.1,0.1,0.2,0.2c0.5,0.3,1.1,0.5,1.6,0.5c0.6,0,1.1-0.1,1.6-0.5c0.1-0.1,0.1-0.1,0.2-0.2
	l6.3-5L92,200l48.7-38.8l1.2-2.3V60.5C141.8,58.9,139.9,57.9,138.6,59z M6,70.2c0-0.6,0.7-0.9,1.1-0.5l21.5,17.2L6,105V70.2z
	 M48.6,144.2c-9.2-3-19.3-3.5-29.1-0.2l-2.4,0.8c5.2-4.1,11.4-6.6,17.9-7c5.5-0.4,10.9,0.2,16.4,2.1l1.2,0.4l12.2,42.4l-4.2,3.4
	L48.6,144.2z M75.3,205.7l-4.4,3.5l-4.5-3.5l-10-8l6.2-5l3.8-3l2.3-1.8c1.2-1,2.9-1,4.2,0l2.2,1.8l3.8,3l6.3,5L75.3,205.7z
	 M122.3,143.9c-9.8-3.3-20-2.7-29.1,0.2l-12.1,42l-4.2-3.4l12.2-42.4l1.2-0.4c5.5-2,10.9-2.5,16.4-2.1c6.5,0.5,12.8,3,17.9,7
	L122.3,143.9z M135.9,105l-22.7-18.1l21.6-17.2c0.5-0.4,1.1,0,1.1,0.5V105z M43.7,156.6v0.6c0,0-1,0.1-2.5,0.1
	c-1.5,0.1-3.5-1.5-5.5-1.4c-2-0.1-4,1.5-5.5,1.4c-1.5-0.1-2.5-0.1-2.5-0.1v-0.6c0,0,1-1.7,2.5-2.9c0.7-0.6,1.6-1.2,2.6-1.6
	c1-0.3,1.9-0.6,2.9-0.6c1,0,2,0.2,2.9,0.6c0.5,0.2,1,0.5,1.4,0.7c0.4,0.2,0.8,0.5,1.2,0.9C42.7,154.9,43.7,156.6,43.7,156.6z
	 M114.1,156.6v0.6c0,0-1,0.1-2.5,0.1c-1.5,0.1-3.5-1.5-5.5-1.4c-2-0.1-4,1.5-5.5,1.4c-1.5-0.1-2.5-0.1-2.5-0.1v-0.6
	c0,0,1-1.7,2.5-2.9c0.7-0.6,1.6-1.2,2.6-1.6c0.9-0.3,1.9-0.6,3-0.6c1,0,2,0.2,2.9,0.6c0.5,0.2,0.9,0.5,1.4,0.7
	c0.4,0.2,0.8,0.5,1.2,0.9C113.1,154.9,114.1,156.6,114.1,156.6z"/>
</svg>
