<?xml version="1.0" encoding="utf-8"?>
<!-- Generator: Adobe Illustrator 18.1.0, SVG Export Plug-In . SVG Version: 6.00 Build 0)  -->
<!DOCTYPE svg PUBLIC "-//W3C//DTD SVG 1.1//EN" "http://www.w3.org/Graphics/SVG/1.1/DTD/svg11.dtd">
<svg version="1.1" id="Layer_1" xmlns="http://www.w3.org/2000/svg" xmlns:xlink="http://www.w3.org/1999/xlink" x="0px" y="0px"
	 viewBox="0 0 300 300" enable-background="new 0 0 300 300" xml:space="preserve">
<g>
	<path d="M113.8,109.5l35.1,28c0.6,0.5,1.5,0.5,2.2,0l35.1-28l4.2-3.3l15-12L150,50L94.6,94.2l15,12L113.8,109.5z M150,56.7l47,37.5
		l-10.8,8.6L150,73.9l-36.2,28.9L103,94.2L150,56.7z"/>
	<path d="M209.4,101.7l-30.7,24.5h0L150,149.1l-28.7-22.8l-2.5-2l-28.1-22.4c-1.1-0.9-2.8-0.1-2.8,1.4v96.8l1,2.1l42.7,34.1
		l16.8,13.4c0.1,0.1,0.1,0.1,0.2,0.2c0.4,0.3,0.9,0.4,1.4,0.4c0.5,0,1-0.1,1.4-0.4c0.1-0.1,0.1-0.1,0.2-0.2l5.5-4.4l11.3-9
		l42.7-34.1l1-2.1v-96.8C212.2,101.6,210.5,100.8,209.4,101.7z M93.1,111.6c0-0.5,0.6-0.8,1-0.5l18.9,15.1l-19.9,15.9V111.6z
		 M126.1,196.1c0,0-0.9,0.1-2.2,0.1c-1.3,0.1-3.1-1.3-4.8-1.2c-1.8-0.1-3.5,1.3-4.8,1.2c-1.3,0-2.2-0.1-2.2-0.1v-0.5
		c0,0,0.9-1.5,2.2-2.6c0.7-0.6,1.4-1,2.3-1.4c0.8-0.3,1.7-0.5,2.6-0.5c0.9,0,1.8,0.2,2.6,0.5c0.4,0.1,0.8,0.4,1.2,0.6
		c0.4,0.2,0.7,0.5,1.1,0.8c1.3,1,2.2,2.5,2.2,2.5V196.1z M153.9,240.9L150,244l-3.9-3.1l-8.7-7l5.5-4.4l3.3-2.6l2-1.6
		c1.1-0.9,2.6-0.9,3.7,0l2,1.6l3.4,2.6l5.5,4.4L153.9,240.9z M187.9,196.1c0,0-0.9,0.1-2.2,0.1c-1.3,0.1-3.1-1.3-4.8-1.2
		c-1.8-0.1-3.5,1.3-4.8,1.2c-1.3,0-2.2-0.1-2.2-0.1v-0.5c0,0,0.9-1.5,2.2-2.6c0.7-0.6,1.4-1,2.2-1.4c0.8-0.3,1.7-0.5,2.6-0.5
		c0.9,0,1.7,0.2,2.6,0.5c0.4,0.1,0.8,0.4,1.2,0.6c0.4,0.2,0.7,0.5,1,0.8c1.3,1,2.2,2.5,2.2,2.5V196.1z M169.6,187.3
		c-0.2,0-0.4,0.1-0.5,0.4l-10.4,36.4l-3.3-2.6l10.8-37.7c0.1-0.2,0.3-0.4,0.5-0.4h19l-33-26.3c-1.6-1.3-3.8-1.3-5.4,0l-33,26.3h18.9
		c0.2,0,0.4,0.2,0.5,0.4l10.9,37.8l-3.4,2.6l-10.4-36.5c-0.1-0.2-0.3-0.4-0.5-0.4h-27.2l44.8-35.7c1.2-1,3-1,4.2,0l44.8,35.7H169.6z
		 M206.9,142.1L187,126.2l18.9-15.1c0.4-0.3,1,0,1,0.5V142.1z"/>
</g>
</svg>
