<?xml version="1.0" encoding="utf-8"?>
<!-- Generator: Adobe Illustrator 18.1.0, SVG Export Plug-In . SVG Version: 6.00 Build 0)  -->
<!DOCTYPE svg PUBLIC "-//W3C//DTD SVG 1.1//EN" "http://www.w3.org/Graphics/SVG/1.1/DTD/svg11.dtd">
<svg version="1.1" id="Layer_1" xmlns="http://www.w3.org/2000/svg" xmlns:xlink="http://www.w3.org/1999/xlink" x="0px" y="0px"
	 viewBox="200 -200 100 500" enable-background="new 200 -200 100 500" xml:space="preserve">
<path fill="#FA8072" d="M250-74.6c-13.6,0-24.6,11-24.6,24.6s11,24.6,24.6,24.6s24.6-11,24.6-24.6S263.6-74.6,250-74.6z M255.8-39
	c0,0.4-1.4,0.9-2.3,1s-1.4,0.3-2.5,0.3c-1.2,0-2-0.1-2.9-0.4c-0.9-0.3-1.6-0.7-2.2-1.2c-0.6-0.6-1.2-1.2-1.3-1.7
	c-0.3-0.6-0.4-1.4-0.4-2.6v-9.3h-2.9v-2.8c1.4-0.3,2-0.7,2.8-1.3c0.7-0.6,1.3-1.6,1.7-2.5s0.9-2,1-3.5h3.2v5.8h5.8v4.3H250v7
	c0,1.4,0.1,2.3,0.3,2.8c0.1,0.4,0.4,0.7,0.9,1c0.6,0.3,0.6,0.4,1.3,0.4c1.3,0,3.2-0.4,3.2-1.2v3.9H255.8z"/>
<path fill="#FA8072" d="M250,25.4c-13.6,0-24.6,11-24.6,24.6s11,24.6,24.6,24.6s24.6-11,24.6-24.6S263.6,25.4,250,25.4z M259.9,46.2
	c0,0.1,0,0.4,0,0.7c0,6.7-5.1,14.3-14.3,14.3c-2.9,0-5.5-0.9-7.8-2.3c0.4,0,0.9,0,1.2,0c2.3,0,4.5-0.9,6.2-2.2
	c-2.2,0-4.1-1.4-4.8-3.5c0.3,0,0.6,0.1,1,0.1s0.7,0,1.2-0.1c-2.3-0.4-4.2-2.5-4.2-4.9l0,0c0,0.4,1.6,0.6,2.5,0.6
	c-1.3-0.9-2.2-2.5-2.2-4.2c0-0.9,0.3-1.7,0.7-2.6c2.5,3,6.2,5.1,10.4,5.4c-0.1-0.4-0.1-0.7-0.1-1.2c0-2.8,2.3-5.1,5.1-5.1
	c1.4,0,2.8,0.6,3.8,1.6c1.2-0.3,2.2-0.6,3.2-1.2c-0.4,1.2-1.2,2.2-2.2,2.8c1-0.1,2-0.4,2.9-0.9C261.7,44.5,260.9,45.5,259.9,46.2z"
	/>
<g>
	<path fill="#FA8072" d="M256.8-151.7c-0.7,0-1.3,0.3-1.7,0.7s-0.7,0.3-0.7,1.7h5.1c0-1.4-0.3-1.4-0.7-1.9
		C258.1-151.4,257.5-151.7,256.8-151.7z"/>
	<path fill="#FA8072" d="M246.1-152.3c0.4-0.3,0.6-0.6,0.6-1.3s-0.3-1-0.9-1.3c-0.4-0.1-1-0.1-1.7-0.1h-3.8v2.9h4.2
		C245.1-152.2,245.7-152.2,246.1-152.3z"/>
	<path fill="#FA8072" d="M246.1-149c-0.3-0.1-0.9-0.3-1.6-0.3h-4.2v4.3h4.2c0.7,0,1.2-0.3,1.6-0.4c0.7-0.3,1-1,1-2
		C247-148.1,246.7-148.7,246.1-149z"/>
	<path fill="#FA8072" d="M250-174.6c-13.6,0-24.6,11-24.6,24.6s11,24.6,24.6,24.6s24.6-11,24.6-24.6S263.6-174.6,250-174.6z
		 M253.3-156.5h7.2v1.4h-7.2V-156.5z M249.6-144.8c-0.3,0.4-0.6,0.9-1,1.2c-0.4,0.4-1,0.9-1.7,1c-0.7,0.3-1.4,0.6-2.2,0.6h-7.2v-16
		h7.7c1.9,0,3.2,0.6,3.9,1.7c0.4,0.6,0.7,1.4,0.7,2.3s-0.3,1.7-0.7,2.3c-0.3,0.3-0.6,0.6-1.2,0.9c0.7,0.3,1.3,0.7,1.7,1.3
		s0.6,1.3,0.6,2.2C250.1-146.2,250-145.5,249.6-144.8z M262.3-147.8H254c0,1.4,0.4,2.2,1.2,2.6c0.4,0.3,1,0.6,1.6,0.6
		c0.7,0,1.2-0.4,1.6-0.7c0.3-0.1,0.4,0.4,0.6-1h3c-0.1,1.4-0.4,1.6-1.2,2.3c-1,1.2-2.5,1.7-4.2,1.7c-1.4,0-2.8-0.4-3.9-1.3
		c-1.2-0.9-1.7-2.5-1.7-4.5c0-1.9,0.6-3.5,1.6-4.5s2.3-1.6,4.1-1.6c1,0,1.9,0.1,2.6,0.6c0.7,0.3,1.4,0.9,1.9,1.7
		c0.4,0.7,0.7,1.3,0.9,2.2C262.3-149.3,262.3-147.8,262.3-147.8z"/>
</g>
<path fill="#FA8072" d="M250,225.4c-13.6,0-24.6,11-24.6,24.6s11,24.6,24.6,24.6s24.6-11,24.6-24.6
	C274.6,236.5,263.6,225.4,250,225.4z M257.2,254.8c-3.3,4.3-6.2,6.5-8.6,6.5c-1.4,0-2.6-1.3-3.6-3.9c-0.7-2.5-1.3-4.9-2-7.2
	c-0.7-2.6-1.6-3.9-2.3-3.9c-0.1,0-0.9,0.4-1.9,1.2l-1.2-1.4c1.2-1,2.5-2.2,3.6-3.2c1.6-1.4,2.9-2.2,3.6-2.2c1.9-0.1,3,1.2,3.5,3.9
	c0.4,3,0.9,4.9,1,5.7c0.6,2.5,1.2,3.8,1.9,3.8c0.6,0,1.3-0.9,2.3-2.5s1.6-2.9,1.6-3.8c0.1-1.4-0.4-2-1.6-2c-0.6,0-1.2,0.1-1.9,0.4
	c1.2-3.9,3.5-5.8,7-5.8c2.6,0,3.8,1.7,3.6,4.9C262.2,247.4,260.6,250.6,257.2,254.8z"/>
<g>
	<path fill="#FA8072" d="M250,154.3c2.5,0,4.3-1.9,4.3-4.3c0-1-0.3-1.9-0.9-2.5c-0.7-1.2-2-1.7-3.5-1.7s-2.8,0.7-3.5,1.7
		c-0.6,0.7-0.9,1.6-0.9,2.5C245.7,152.5,247.7,154.3,250,154.3z"/>
	<polygon fill="#FA8072" points="258.7,144.6 258.7,141 258.7,140.6 258.6,140.6 255.1,140.6 254.8,144.6 	"/>
	<path fill="#FA8072" d="M256.8,149.9c0,3.8-3,6.8-6.8,6.8s-6.8-3.2-6.8-6.8c0-0.9,0.1-2.6,0.4-2.6h-3.8v10.4c0,1.3,1.3,1.2,2.6,1.2
		h15.1c1.3,0,2.6,0.1,2.6-1.2v-10.6h-3.9C256.5,147.1,256.8,149,256.8,149.9z"/>
	<path fill="#FA8072" d="M250,125.4c-13.6,0-24.6,11-24.6,24.6s11,24.6,24.6,24.6s24.6-11,24.6-24.6S263.6,125.4,250,125.4z
		 M261.6,147.5v10.1c0,2.6-1.4,4.1-4.1,4.1h-15.1c-2.6,0-5.5-1.4-5.5-4.1v-10.1v-5.1c0-2.6,2.9-5.5,5.5-5.5h15.1
		c2.6,0,4.1,2.9,4.1,5.5V147.5z"/>
</g>
</svg>
