<?xml version="1.0" encoding="utf-8"?>
<!-- Generator: Adobe Illustrator 18.1.0, SVG Export Plug-In . SVG Version: 6.00 Build 0)  -->
<!DOCTYPE svg PUBLIC "-//W3C//DTD SVG 1.1//EN" "http://www.w3.org/Graphics/SVG/1.1/DTD/svg11.dtd">
<svg version="1.1" id="Layer_1" xmlns="http://www.w3.org/2000/svg" xmlns:xlink="http://www.w3.org/1999/xlink" x="0px" y="0px"
	 viewBox="0 0 500 100" enable-background="new 0 0 500 100" xml:space="preserve">
<path fill="#FA8072" d="M150,25.4c-13.6,0-24.6,11-24.6,24.6s11,24.6,24.6,24.6c13.6,0,24.6-11,24.6-24.6S163.6,25.4,150,25.4z
	 M155.8,61c0,0.4-1.4,0.9-2.3,1s-1.4,0.3-2.5,0.3c-1.2,0-2-0.1-2.9-0.4c-0.9-0.3-1.6-0.7-2.2-1.2c-0.6-0.6-1.2-1.2-1.3-1.7
	c-0.3-0.6-0.4-1.4-0.4-2.6v-9.3h-2.9v-2.8c1.4-0.3,2-0.7,2.8-1.3c0.7-0.6,1.3-1.6,1.7-2.5c0.4-0.9,0.9-2,1-3.5h3.2v5.8h5.8v4.3H150
	v7c0,1.4,0.1,2.3,0.3,2.8c0.1,0.4,0.4,0.7,0.9,1c0.6,0.3,0.6,0.4,1.3,0.4c1.3,0,3.2-0.4,3.2-1.2V61H155.8z"/>
<path fill="#FA8072" d="M250,25.4c-13.6,0-24.6,11-24.6,24.6s11,24.6,24.6,24.6c13.6,0,24.6-11,24.6-24.6S263.6,25.4,250,25.4z
	 M259.9,46.2c0,0.1,0,0.4,0,0.7c0,6.7-5.1,14.3-14.3,14.3c-2.9,0-5.5-0.9-7.8-2.3c0.4,0,0.9,0,1.2,0c2.3,0,4.5-0.9,6.2-2.2
	c-2.2,0-4.1-1.4-4.8-3.5c0.3,0,0.6,0.1,1,0.1c0.4,0,0.7,0,1.2-0.1c-2.3-0.4-4.2-2.5-4.2-4.9l0,0c0,0.4,1.6,0.6,2.5,0.6
	c-1.3-0.9-2.2-2.5-2.2-4.2c0-0.9,0.3-1.7,0.7-2.6c2.5,3,6.2,5.1,10.4,5.4c-0.1-0.4-0.1-0.7-0.1-1.2c0-2.8,2.3-5.1,5.1-5.1
	c1.4,0,2.8,0.6,3.8,1.6c1.2-0.3,2.2-0.6,3.2-1.2c-0.4,1.2-1.2,2.2-2.2,2.8c1-0.1,2-0.4,2.9-0.9C261.7,44.5,260.9,45.5,259.9,46.2z"
	/>
<g>
	<path fill="#FA8072" d="M56.8,48.3c-0.7,0-1.3,0.3-1.7,0.7s-0.7,0.3-0.7,1.7h5.1c0-1.4-0.3-1.4-0.7-1.9
		C58.1,48.6,57.5,48.3,56.8,48.3z"/>
	<path fill="#FA8072" d="M46.1,47.7c0.4-0.3,0.6-0.6,0.6-1.3s-0.3-1-0.9-1.3c-0.4-0.1-1-0.1-1.7-0.1h-3.8v2.9h4.2
		C45.1,47.8,45.7,47.8,46.1,47.7z"/>
	<path fill="#FA8072" d="M46.1,51c-0.3-0.1-0.9-0.3-1.6-0.3h-4.2V55h4.2c0.7,0,1.2-0.3,1.6-0.4c0.7-0.3,1-1,1-2
		C47,51.9,46.7,51.3,46.1,51z"/>
	<path fill="#FA8072" d="M50,25.4c-13.6,0-24.6,11-24.6,24.6s11,24.6,24.6,24.6s24.6-11,24.6-24.6S63.6,25.4,50,25.4z M53.3,43.5
		h7.2v1.4h-7.2V43.5z M49.6,55.2c-0.3,0.4-0.6,0.9-1,1.2c-0.4,0.4-1,0.9-1.7,1c-0.7,0.3-1.4,0.6-2.2,0.6h-7.2V42h7.7
		c1.9,0,3.2,0.6,3.9,1.7c0.4,0.6,0.7,1.4,0.7,2.3s-0.3,1.7-0.7,2.3c-0.3,0.3-0.6,0.6-1.2,0.9c0.7,0.3,1.3,0.7,1.7,1.3
		s0.6,1.3,0.6,2.2C50.1,53.8,50,54.5,49.6,55.2z M62.3,52.2H54c0,1.4,0.4,2.2,1.2,2.6c0.4,0.3,1,0.6,1.6,0.6c0.7,0,1.2-0.4,1.6-0.7
		c0.3-0.1,0.4,0.4,0.6-1h3c-0.1,1.4-0.4,1.6-1.2,2.3c-1,1.2-2.5,1.7-4.2,1.7c-1.4,0-2.8-0.4-3.9-1.3c-1.2-0.9-1.7-2.5-1.7-4.5
		c0-1.9,0.6-3.5,1.6-4.5s2.3-1.6,4.1-1.6c1,0,1.9,0.1,2.6,0.6c0.7,0.3,1.4,0.9,1.9,1.7c0.4,0.7,0.7,1.3,0.9,2.2
		C62.3,50.7,62.3,52.2,62.3,52.2z"/>
</g>
<path fill="#FA8072" d="M450,25.4c-13.6,0-24.6,11-24.6,24.6s11,24.6,24.6,24.6s24.6-11,24.6-24.6C474.6,36.5,463.6,25.4,450,25.4z
	 M457.2,54.8c-3.3,4.3-6.2,6.5-8.6,6.5c-1.4,0-2.6-1.3-3.6-3.9c-0.7-2.5-1.3-4.9-2-7.2c-0.7-2.6-1.6-3.9-2.3-3.9
	c-0.1,0-0.9,0.4-1.9,1.2l-1.2-1.4c1.2-1,2.5-2.2,3.6-3.2c1.6-1.4,2.9-2.2,3.6-2.2c1.9-0.1,3,1.2,3.5,3.9c0.4,3,0.9,4.9,1,5.7
	c0.6,2.5,1.2,3.8,1.9,3.8c0.6,0,1.3-0.9,2.3-2.5s1.6-2.9,1.6-3.8c0.1-1.4-0.4-2-1.6-2c-0.6,0-1.2,0.1-1.9,0.4c1.2-3.9,3.5-5.8,7-5.8
	c2.6,0,3.8,1.7,3.6,4.9C462.2,47.4,460.6,50.6,457.2,54.8z"/>
<g>
	<path fill="#FA8072" d="M350,54.3c2.5,0,4.3-1.9,4.3-4.3c0-1-0.3-1.9-0.9-2.5c-0.7-1.2-2-1.7-3.5-1.7s-2.8,0.7-3.5,1.7
		c-0.6,0.7-0.9,1.6-0.9,2.5C345.7,52.5,347.7,54.3,350,54.3z"/>
	<polygon fill="#FA8072" points="358.7,44.6 358.7,41 358.7,40.6 358.6,40.6 355.1,40.6 354.8,44.6 	"/>
	<path fill="#FA8072" d="M356.8,49.9c0,3.8-3,6.8-6.8,6.8c-3.8,0-6.8-3.2-6.8-6.8c0-0.9,0.1-2.6,0.4-2.6h-3.8v10.4
		c0,1.3,1.3,1.2,2.6,1.2h15.1c1.3,0,2.6,0.1,2.6-1.2V47.1h-3.9C356.5,47.1,356.8,49,356.8,49.9z"/>
	<path fill="#FA8072" d="M350,25.4c-13.6,0-24.6,11-24.6,24.6s11,24.6,24.6,24.6s24.6-11,24.6-24.6S363.6,25.4,350,25.4z
		 M361.6,47.5v10.1c0,2.6-1.4,4.1-4.1,4.1h-15.1c-2.6,0-5.5-1.4-5.5-4.1V47.5v-5.1c0-2.6,2.9-5.5,5.5-5.5h15.1
		c2.6,0,4.1,2.9,4.1,5.5V47.5z"/>
</g>
<g>
	<path fill="#FA8072" d="M94,6v88H6V6H94 M100,0H0v100h100V0L100,0z"/>
</g>
<g>
	<path fill="#FA8072" d="M194,6v88h-88V6H194 M200,0H100v100h100V0L200,0z"/>
</g>
<g>
	<path fill="#FA8072" d="M294,6v88h-88V6H294 M300,0H200v100h100V0L300,0z"/>
</g>
<g>
	<path fill="#FA8072" d="M394,6v88h-88V6H394 M400,0H300v100h100V0L400,0z"/>
</g>
<g>
	<path fill="#FA8072" d="M494,6v88h-88V6H494 M500,0H400v100h100V0L500,0z"/>
</g>
</svg>
