<?xml version="1.0" encoding="utf-8"?>
<!-- Generator: Adobe Illustrator 18.1.0, SVG Export Plug-In . SVG Version: 6.00 Build 0)  -->
<!DOCTYPE svg PUBLIC "-//W3C//DTD SVG 1.1//EN" "http://www.w3.org/Graphics/SVG/1.1/DTD/svg11.dtd">
<svg version="1.1" id="Layer_1" xmlns="http://www.w3.org/2000/svg" xmlns:xlink="http://www.w3.org/1999/xlink" x="0px" y="0px"
	 viewBox="68 68 64 64" enable-background="new 68 68 64 64" xml:space="preserve">
<rect x="68" y="68" opacity="0" fill="#FFFFFF" width="64" height="64"/>
<g id="fox">
	<path d="M125.6,68.1l-13.2,10.5l-12.3,9.9l-12.3-9.8l-1.1-0.9l-12.1-9.6c-0.5-0.4-1.2,0-1.2,0.6v41.6l0.4,0.9L92.1,126l7.2,5.7
		c0,0,0,0,0.1,0.1c0.2,0.1,0.4,0.2,0.6,0.2c0.2,0,0.4,0,0.6-0.2c0,0,0,0,0.1-0.1l2.4-1.9l4.9-3.9l18.4-14.7l0.4-0.9V68.8
		C126.8,68.1,126.1,67.8,125.6,68.1z M75.6,72.4c0-0.2,0.2-0.3,0.4-0.2l8.1,6.5l-8.5,6.8L75.6,72.4L75.6,72.4z M90.5,110.7h-0.1
		c0,0-0.5,0-1.1,0c-0.7,0-1.6-0.7-2.5-0.6c-0.9,0-1.8,0.7-2.5,0.6c-0.7,0-1.1,0-1.1,0v-0.2c0,0,0.5-0.8,1.1-1.3
		c0.3-0.3,0.7-0.5,1.2-0.7c0.4-0.2,0.9-0.2,1.3-0.2c0.5,0,0.9,0.1,1.3,0.2c0.2,0,0.4,0.2,0.6,0.3c0.2,0.1,0.3,0.2,0.6,0.4
		c0.7,0.5,1.1,1.3,1.1,1.3v0.3L90.5,110.7L90.5,110.7z M101.7,128l-1.7,1.3l-1.7-1.3l-3.7-3l2.4-1.9l1.4-1.1l0.9-0.7
		c0.5-0.4,1.1-0.4,1.6,0l0.9,0.7l1.5,1.1l2.4,1.9L101.7,128z M117,110.7c0,0-0.5,0-1.1,0c-0.7,0-1.6-0.7-2.5-0.6
		c-0.9,0-1.8,0.7-2.5,0.6c-0.7,0-1.1,0-1.1,0v-0.2c0,0,0.5-0.8,1.1-1.4c0.3-0.3,0.7-0.5,1.1-0.7c0.4-0.2,0.9-0.2,1.4-0.2
		c0.5,0,0.9,0.1,1.4,0.2c0.2,0,0.4,0.2,0.6,0.3c0.2,0.1,0.3,0.2,0.5,0.4c0.7,0.5,1.1,1.3,1.1,1.3L117,110.7L117,110.7z M108.5,104.9
		c-0.1,0-0.2,0-0.2,0.2l-4.5,15.6l-1.4-1.1l4.6-16.2c0-0.1,0.1-0.2,0.2-0.2h8.2L101.2,92c-0.7-0.6-1.6-0.6-2.3,0l-14.2,11.3h8.1
		c0.1,0,0.2,0.1,0.2,0.2l4.7,16.3l-1.5,1.1l-4.5-15.7c0-0.1-0.1-0.2-0.2-0.2H79.9l19.3-15.4c0.5-0.4,1.3-0.4,1.8,0l19.3,15.4
		L108.5,104.9z M124.6,85.5L124.6,85.5l-8.6-6.8l8.1-6.5c0.2-0.1,0.4,0,0.4,0.2L124.6,85.5L124.6,85.5L124.6,85.5z"/>
</g>
</svg>
