<?xml version="1.0" encoding="utf-8"?>
<!-- Generator: Adobe Illustrator 18.1.0, SVG Export Plug-In . SVG Version: 6.00 Build 0)  -->
<!DOCTYPE svg PUBLIC "-//W3C//DTD SVG 1.1//EN" "http://www.w3.org/Graphics/SVG/1.1/DTD/svg11.dtd">
<svg version="1.1" id="Layer_1" xmlns="http://www.w3.org/2000/svg" xmlns:xlink="http://www.w3.org/1999/xlink" x="0px" y="0px"
	 viewBox="-15.3 0 184 184" enable-background="new -15.3 0 184 184" xml:space="preserve">
<g id="fox">
	<path d="M150.1,0.5l-37.9,30.2L76.8,59L41.4,30.8l-3.1-2.5L3.5,0.7C2.1-0.4,0,0.6,0,2.4v119.5l1.2,2.6L54,166.6l20.7,16.5
		c0.1,0.1,0.1,0.1,0.2,0.2c0.5,0.4,1.1,0.5,1.7,0.5c0.6,0,1.2-0.1,1.7-0.5c0.1-0.1,0.1-0.1,0.2-0.2l6.8-5.4l14-11.1l52.7-42.1
		l1.2-2.6V2.4C153.6,0.3,151.5-0.6,150.1,0.5z M6.5,12.7c0-0.6,0.7-1,1.2-0.6l23.3,18.6L6.7,50.3L6.5,12.7L6.5,12.7z M49.3,122.6
		h-0.4c0,0-1.4,0.1-3.2,0.1c-1.9,0.1-4.6-1.9-7.2-1.7c-2.7-0.1-5.2,1.9-7.2,1.7c-1.9,0-3.2-0.1-3.2-0.1v-0.7c0,0,1.4-2.2,3.2-3.8
		c1-0.9,2.1-1.5,3.5-2.1c1.2-0.5,2.5-0.7,3.8-0.7c1.4,0,2.7,0.2,3.8,0.7c0.5,0.1,1.2,0.6,1.7,0.9c0.6,0.2,1,0.7,1.6,1.2
		c1.9,1.5,3.2,3.7,3.2,3.7v0.9H49.3z M81.6,172.3l-4.8,3.8l-4.8-3.8l-10.7-8.6l6.8-5.4l4.1-3.2l2.5-2c1.4-1.1,3.2-1.1,4.6,0l2.5,2
		l4.2,3.2l6.8,5.4L81.6,172.3z M125.4,122.6c0,0-1.4,0.1-3.3,0.1c-1.9,0.1-4.7-2-7.2-1.7c-2.7-0.1-5.2,2-7.2,1.7
		c-2,0-3.3-0.1-3.3-0.1v-0.7c0,0,1.4-2.2,3.3-4c1-0.9,2.1-1.5,3.3-2.1c1.2-0.5,2.6-0.7,4-0.7c1.4,0,2.6,0.2,4,0.7
		c0.6,0.1,1.2,0.6,1.7,0.9c0.6,0.4,1,0.7,1.5,1.2c2,1.5,3.3,3.7,3.3,3.7v1H125.4z M101,106.1c-0.2,0-0.5,0.1-0.6,0.5l-12.8,44.9
		l-4.1-3.2l13.3-46.5c0.1-0.2,0.4-0.5,0.6-0.5h23.5L80.1,69c-2-1.6-4.7-1.6-6.7,0l-40.7,32.5H56c0.2,0,0.5,0.2,0.6,0.5l13.5,46.7
		l-4.2,3.2l-12.8-45.1c-0.1-0.2-0.4-0.5-0.6-0.5H18.9l55.3-44.1c1.5-1.2,3.7-1.2,5.2,0l55.3,44.1L101,106.1z M147.2,50.3L147.2,50.3
		l-24.7-19.6l23.3-18.6c0.5-0.4,1.2,0,1.2,0.6v37.7H147.2z"/>
</g>
</svg>
